<svg width="69" height="61" viewBox="0 0 69 61" fill="none" xmlns="http://www.w3.org/2000/svg">
<path d="M60.1439 17.0088C60.1439 17.1687 60.1439 17.3287 60.1439 17.5153C60.1439 28.8723 60.1439 40.2292 60.1439 51.5862C60.1439 53.5057 59.6374 55.2919 58.4643 56.8114C57.158 58.5177 55.3985 59.5574 53.2657 59.9573C52.6792 60.0639 52.0927 60.0906 51.4795 60.0906C37.0301 60.0906 22.5806 60.0906 8.13115 60.0906C6.10503 60.0906 4.29218 59.3708 2.77259 58.0111C1.22634 56.6515 0.373233 54.9453 0.0799784 52.9458C0.0266593 52.5726 0.0266595 52.1993 0 51.8261C0 37.2967 0 22.7939 0 8.26445C0 5.75846 0.933083 3.65235 2.79925 1.99946C4.02559 0.906424 5.4652 0.266595 7.09143 0.0533192C7.49132 2.02601e-07 7.91788 0 8.31777 0C22.8206 0 37.3233 0 51.8261 0C54.2255 0 56.2516 0.853105 57.9045 2.58597C59.2108 3.94561 59.9306 5.5985 60.1172 7.46467C60.1705 7.94454 60.1705 8.42441 60.1705 8.87762C60.1705 10.2906 60.1705 11.7302 60.1705 13.1431C59.0775 14.2095 58.0111 15.2759 56.9181 16.3156C56.5448 16.6889 56.1983 17.0888 55.7717 17.382C55.7184 17.2487 55.7451 17.1154 55.7451 16.9821C55.7451 14.0762 55.7451 11.1703 55.7451 8.26445C55.7451 6.02505 54.0922 4.37216 51.8528 4.37216C37.3766 4.37216 22.9005 4.37216 8.45107 4.37216C8.13115 4.37216 7.78458 4.39882 7.46467 4.4788C5.65182 4.79871 4.39882 6.4516 4.39882 8.21113C4.42548 22.7406 4.39882 37.27 4.39882 51.7994C4.39882 52.0127 4.37216 52.226 4.39882 52.4393C4.69208 54.2255 6.21167 55.6651 8.1045 55.6651C22.7139 55.6651 37.3233 55.6651 51.9061 55.6651C52.0927 55.6651 52.2793 55.6917 52.4659 55.6384C54.3321 55.2919 55.6384 53.6923 55.6384 51.7728C55.6384 41.7755 55.6384 31.7782 55.6384 21.7808C55.6384 21.6475 55.6917 21.5142 55.5851 21.4076C57.1314 19.9413 58.6243 18.475 60.1439 17.0088Z" fill="#F09295"/>
<path d="M55.7184 17.3559C56.1716 17.0627 56.4915 16.6361 56.8647 16.2895C57.9578 15.2498 59.0508 14.1834 60.1172 13.1171C60.4371 12.8238 60.7304 12.5039 61.0503 12.2106C62.0634 11.2242 63.0764 10.2378 64.0895 9.25144C64.8893 8.47831 65.6624 7.70518 66.4355 6.93206C66.9154 6.45219 67.4486 6.21225 68.1151 6.47885C69.0481 6.87874 69.3414 7.99844 68.515 8.79822C68.0617 9.22478 67.6619 9.65133 67.2086 10.0779C66.1423 11.1176 65.1025 12.184 64.0095 13.197C63.2097 13.9435 62.4899 14.7433 61.6901 15.4631C61.1303 15.9696 60.6237 16.4762 60.1172 17.0094C58.6243 18.4756 57.1047 19.9419 55.6117 21.3815C55.5584 21.4082 55.5318 21.4615 55.4785 21.4882C47.374 29.3794 39.2695 37.2439 31.165 45.1352C30.3385 45.9349 29.4854 45.8816 28.7923 44.9485C25.1666 40.0965 21.5409 35.2445 17.9418 30.3924C17.1954 29.3794 16.4223 28.393 15.6758 27.3533C15.0893 26.5268 15.5425 25.4071 16.5289 25.1938C17.1954 25.0605 17.6486 25.3538 18.0218 25.8603C22.0208 31.2189 25.993 36.5508 29.9919 41.9094C30.1519 42.1226 30.2319 42.1759 30.4452 41.9627C38.7896 33.8315 47.1607 25.727 55.5051 17.5959C55.5851 17.5692 55.6917 17.4892 55.7184 17.3559Z" fill="#E21F25"/>
</svg>
