<svg width="42" height="84" viewBox="0 0 42 84" fill="none" xmlns="http://www.w3.org/2000/svg">
<path d="M38.07 0C38.07 0.03 38.07 0.0600001 38.07 0.0900001C37.92 0.0900001 37.77 0.12 37.62 0.12C28.65 0.12 19.71 0.12 10.74 0.12C10.44 0.12 10.17 0.12 9.87 0.0900001C9.87 0.0600001 9.87 0.03 9.87 0C19.29 0 28.68 0 38.07 0Z" fill="#FBD4A5"/>
<path d="M9.87003 0.0898438C10.17 0.0898438 10.44 0.119844 10.74 0.119844C19.71 0.119844 28.65 0.119844 37.62 0.119844C37.77 0.119844 37.92 0.119844 38.07 0.0898438C39.81 0.299844 41.01 1.64984 41.1 3.47984C41.1 3.59984 41.1 3.74984 41.1 3.86984C41.1 29.0398 41.1 54.2398 41.1 79.4098C41.1 80.9698 40.53 82.1698 39.12 82.9198C38.58 83.1898 38.01 83.2498 37.41 83.2498C28.44 83.2498 19.47 83.2498 10.5 83.2498C8.28003 83.2498 6.84003 81.7798 6.84003 79.5598C6.84003 54.2698 6.84003 28.9798 6.84003 3.68984C6.84003 1.73984 8.07003 0.299844 9.87003 0.0898438ZM37.41 41.6698C37.41 29.2498 37.41 16.8298 37.41 4.40984C37.41 3.62984 37.5 3.71984 36.69 3.71984C28.2 3.71984 19.71 3.71984 11.22 3.71984C10.53 3.71984 10.53 3.71984 10.53 4.43984C10.53 7.37984 10.53 10.3198 10.53 13.2598C10.53 14.0998 10.44 14.0098 11.28 14.0098C14.46 14.0098 17.64 14.0098 20.82 14.0098C21.51 14.0098 21.99 14.4898 21.99 15.1198C21.99 15.7198 21.48 16.1998 20.85 16.1998C20.7 16.1998 20.55 16.1998 20.4 16.1998C17.28 16.1998 14.16 16.1998 11.04 16.1998C10.62 16.1998 10.5 16.2898 10.53 16.7098C10.56 19.1098 10.56 21.5398 10.53 23.9398C10.53 24.3298 10.65 24.4198 11.04 24.4198C12.54 24.3898 14.04 24.4198 15.54 24.4198C16.35 24.4198 16.83 24.8398 16.83 25.5298C16.83 26.2198 16.35 26.6398 15.57 26.6398C14.1 26.6398 12.6 26.6398 11.13 26.6398C10.71 26.6398 10.56 26.7298 10.56 27.1798C10.59 29.6398 10.59 32.0698 10.56 34.5298C10.56 35.0098 10.71 35.0998 11.16 35.0998C14.28 35.0698 17.4 35.0998 20.52 35.0998C20.76 35.0998 21 35.0698 21.21 35.1598C21.69 35.3398 21.99 35.8498 21.93 36.3298C21.84 36.8998 21.39 37.2898 20.73 37.2898C17.52 37.2898 14.34 37.2898 11.13 37.2898C10.68 37.2898 10.56 37.4098 10.56 37.8598C10.59 40.7098 10.59 43.5598 10.56 46.4098C10.56 46.8298 10.65 46.9798 11.1 46.9798C12.51 46.9498 13.95 46.9798 15.36 46.9798C16.29 46.9798 16.8 47.3998 16.83 48.0898C16.83 48.8098 16.29 49.2298 15.39 49.2298C13.98 49.2298 12.54 49.2598 11.13 49.2298C10.65 49.2298 10.56 49.3798 10.56 49.8298C10.59 51.8098 10.59 53.7598 10.56 55.7398C10.56 56.2198 10.71 56.3098 11.16 56.3098C14.34 56.2798 17.52 56.3098 20.7 56.3098C21.51 56.3098 22.05 56.7598 22.05 57.4198C22.05 58.0798 21.54 58.5598 20.73 58.5598C20.61 58.5598 20.46 58.5598 20.34 58.5598C17.28 58.5598 14.19 58.5598 11.13 58.5598C10.71 58.5598 10.56 58.6498 10.56 59.0998C10.59 61.2298 10.59 63.3298 10.56 65.4598C10.56 65.8498 10.68 65.9398 11.07 65.9398C12.6 65.9098 14.13 65.9398 15.66 65.9398C16.44 65.9398 16.95 66.3898 16.95 67.0498C16.95 67.7098 16.44 68.1298 15.66 68.1298C14.19 68.1298 12.69 68.1598 11.22 68.1298C10.74 68.1298 10.56 68.2198 10.59 68.7598C10.62 72.1798 10.62 75.5998 10.59 79.0199C10.59 79.5598 10.71 79.6798 11.25 79.6798C19.77 79.6498 28.26 79.6798 36.78 79.6798C37.56 79.6798 37.47 79.7698 37.47 78.9898C37.41 66.4798 37.41 54.0898 37.41 41.6698Z" fill="#D19665"/>
<path d="M0.0299996 42.3595C0.0299996 29.3694 0.0299996 16.3794 0.0299996 3.38945C0.0299996 2.63945 0.180001 1.97945 0.870001 1.61945C1.59 1.25945 2.31 1.28945 3 1.67945C3.48 1.94945 3.69 2.42945 3.75 2.93945C3.78 3.08945 3.75 3.26945 3.75 3.41945C3.75 29.3694 3.75 55.3195 3.75 81.2695C3.75 81.7795 3.72 82.2595 3.39 82.6795C2.91 83.2495 1.92 83.4895 1.11 83.2195C0.390002 82.9795 0 82.3794 0 81.5095C0.03 68.4894 0.0299996 55.4394 0.0299996 42.3595Z" fill="#FBD4A5"/>
</svg>
