<svg width="92" height="73" viewBox="0 0 92 73" fill="none" xmlns="http://www.w3.org/2000/svg">
<path d="M45.3952 0.0333328C49.2952 0.0333328 53.2285 -5.09123e-07 57.1285 0.0333328C59.3285 0.0666662 61.5285 0.199999 63.6285 0.899999C65.9285 1.66667 68.0619 2.73333 69.9285 4.33333C72.0952 6.16667 73.8619 8.36667 75.1619 10.9C76.0619 12.7 76.5952 14.6333 76.8285 16.6333C76.9619 17.8333 77.0285 19.0333 76.9952 20.2667C76.9952 22.9333 76.9619 25.6333 76.9952 28.3C76.9952 29.5333 77.0285 29.2667 77.9619 29.0333C79.5285 28.6333 81.0952 28.2333 82.7285 28.1C85.3285 27.9 87.7952 28.3333 89.6952 30.3C91.1619 31.8333 91.9619 33.6667 91.8619 35.8C91.7285 39.3667 88.7952 42.5 85.4619 42.9C84.2285 43.0667 82.9285 43 81.7619 43.4667C79.2619 44.5333 77.6285 46.3333 77.1952 49.1C77.0285 50.0667 77.0285 51.0667 77.0285 52.0667C77.0285 54.7667 76.9952 57.4667 77.0285 60.1667C77.0619 61.6 77.0952 63.0333 77.0952 64.4667C77.0952 64.7667 77.0619 65.0667 76.9952 65.3667C76.8619 66.1333 76.3619 66.5333 75.5952 66.5667C75.2619 66.5667 74.9285 66.5667 74.5952 66.5667C74.2285 66.5667 74.0285 66.7333 74.0619 67.1333C74.0952 68 74.0285 68.9 74.1285 69.7667C74.1952 70.3 74.1285 70.8333 74.0285 71.3667C73.8952 71.9667 73.4285 72.2667 72.8619 72.4333C72.3952 72.5667 71.9285 72.5667 71.4619 72.5667C70.3285 72.5667 69.1952 72.5333 68.0619 72.5667C67.3285 72.5667 66.5619 72.6667 65.8285 72.3C65.3285 72.0333 65.0952 71.6667 65.0619 71.1333C64.9952 69.8333 64.8619 68.5333 65.0285 67.2333C65.0952 66.8333 64.9619 66.6667 64.5285 66.6667C63.7952 66.7 63.0619 66.6667 62.2952 66.6667C52.2285 66.5 42.1619 66.6 32.0952 66.6C30.4619 66.6 28.8619 66.6333 27.2285 66.6667C26.8619 66.6667 26.7952 66.8 26.8285 67.1667C26.9285 68.5333 26.9952 69.8667 26.7619 71.2333C26.6285 72.1 26.0619 72.5333 25.0619 72.5667C23.2285 72.6 21.3619 72.6333 19.5285 72.5667C17.9285 72.5 17.6952 71.6333 17.7285 70.0667C17.7619 69.0667 17.9952 68.1 17.7952 67.1C17.7285 66.7667 17.5619 66.6333 17.2619 66.6333C16.8952 66.6333 16.5285 66.6333 16.1619 66.6333C15.3619 66.6 14.8619 66.0667 14.8285 65.2667C14.6285 61.6 14.7619 57.9333 14.7619 54.2333C14.7619 52.8 14.7952 51.4 14.7285 49.9667C14.6619 48.2333 14.0285 46.7667 12.8619 45.5C11.5285 44 9.8952 43.2667 7.92854 43.1333C6.72854 43.0667 5.52854 42.9333 4.3952 42.4C2.1952 41.3667 0.828536 39.6667 0.228536 37.3333C-0.53813 34.3 0.66187 31.2 3.26187 29.4C5.02854 28.2 6.9952 28 9.02853 28.1333C10.8285 28.2667 12.5619 28.7333 14.2952 29.2C14.7285 29.3333 14.7619 29.0333 14.7619 28.7333C14.7619 27.5333 14.7619 26.3667 14.7619 25.1667C14.7285 23.4667 14.6285 21.7667 14.6952 20.0667C14.7619 17.9667 14.9619 15.9 15.5285 13.8667C16.1952 11.5333 17.3285 9.46667 18.7952 7.56667C20.3619 5.56667 22.1952 3.86667 24.3952 2.6C26.3952 1.46667 28.4952 0.699999 30.7619 0.299999C31.8952 0.0999992 32.9952 0 34.1285 0C37.9952 0.0333333 41.6952 0.0333328 45.3952 0.0333328ZM45.9619 36.3C52.6952 36.3 59.3952 36.3 66.1285 36.3C66.8619 36.3 67.3952 36.1 67.8285 35.5333C69.3952 33.6667 71.2952 32.2 73.4285 31C73.8285 30.7667 74.0285 30.4667 74.0285 29.9667C74.0285 28.5333 73.9952 27.0667 73.9619 25.6333C73.8952 23.5667 73.9285 21.4667 73.9619 19.4C73.9619 18.6333 73.9285 17.8333 73.8285 17.1C73.3619 14.0667 72.2285 11.3667 70.2285 9C68.3619 6.8 66.0952 5.2 63.4285 4.16667C61.1952 3.3 58.8619 3.16667 56.4952 3.16667C48.8619 3.16667 41.2619 3.06667 33.6285 3.23333C32.7952 3.26667 31.9619 3.3 31.1285 3.46667C27.3619 4.26667 24.2285 6.1 21.7619 9.06667C19.5285 11.8 18.2285 14.9333 18.0952 18.4333C17.9619 22.2667 18.0952 26.1333 17.9619 29.9667C17.9619 30.4333 18.1619 30.8 18.5619 31C18.7619 31.1 18.9619 31.2333 19.1285 31.3333C20.9619 32.4333 22.6285 33.7 23.9952 35.3333C24.5285 35.9667 25.0952 36.2667 25.9619 36.2667C32.6285 36.2667 39.2952 36.3 45.9619 36.3ZM45.9952 63.4667C51.1952 63.4667 56.3952 63.4667 61.6285 63.4667C62.0952 63.4667 62.1952 63.3333 62.1952 62.9C62.1952 58.4333 62.1952 53.9333 62.1952 49.4667C62.1952 49 62.0285 48.9 61.5952 48.9C51.1952 48.9 40.7952 48.9 30.3952 48.9C29.9619 48.9 29.7952 49 29.7952 49.4667C29.8285 53.9333 29.8285 58.4333 29.7952 62.9C29.7952 63.3667 29.9285 63.4667 30.3619 63.4667C35.5952 63.4667 40.7952 63.4667 45.9952 63.4667ZM18.0619 56.5333C18.0619 58.7 18.0619 60.8667 18.0619 63.0333C18.0619 63.3 18.0619 63.5 18.4285 63.5C21.0619 63.5 23.6952 63.5 26.3285 63.5C26.5952 63.5 26.6952 63.4333 26.6952 63.1667C26.6952 62.3333 26.7619 61.5333 26.7619 60.7C26.7285 57.9 26.8285 55.1 26.6952 52.2667C26.6285 50.8667 26.6619 49.4667 26.4952 48.0667C26.2619 45.9333 25.7285 43.9333 24.7952 42.0333C23.5619 39.5333 21.8952 37.4 19.6952 35.6C18.0952 34.3 16.3619 33.2333 14.4285 32.4667C12.8952 31.8333 11.2952 31.4667 9.62854 31.3C8.6952 31.2 7.6952 31.1 6.76187 31.3333C4.7952 31.7667 3.62854 32.9667 3.2952 34.9667C2.96187 36.8 4.1952 39.1667 6.22854 39.6667C7.0952 39.8667 7.96187 39.9 8.82854 40C11.0285 40.2333 12.9285 41.1 14.5285 42.5667C16.9285 44.7667 17.9619 47.5333 17.9952 50.7333C18.0619 52.6667 18.0619 54.6 18.0619 56.5333ZM69.6285 63.4667C70.8952 63.4667 72.1952 63.4667 73.4619 63.4667C73.8619 63.4667 73.9619 63.3333 73.9619 62.9667C73.9619 58.9333 73.9619 54.9 73.9619 50.8333C73.9619 48.9333 74.2952 47.1 75.1952 45.4333C76.5952 42.8 78.7285 41.0667 81.6285 40.2667C82.8619 39.9333 84.1285 39.9333 85.3619 39.7333C87.4285 39.4 88.5619 37.6333 88.7285 36.0333C88.9285 33.9667 87.7285 32.1667 85.8952 31.5C84.7952 31.1 83.6619 31.2 82.5285 31.3C80.5285 31.5 78.5952 32 76.7619 32.8333C73.6952 34.2 71.1619 36.2 69.1285 38.8667C66.6285 42.0667 65.5952 45.8 65.3619 49.8C65.2619 51.3333 65.3285 52.8667 65.2619 54.4C65.1952 56.5333 65.3285 58.6667 65.3285 60.8C65.3285 61.5 65.3619 62.2333 65.3285 62.9333C65.2952 63.3667 65.4285 63.5333 65.8952 63.5333C67.1285 63.4667 68.3619 63.4667 69.6285 63.4667ZM45.9952 38.9333C39.7619 38.9333 33.5619 38.9333 27.3285 38.9333C27.0619 38.9333 26.6619 38.8667 26.9619 39.3667C28.0285 41.2 28.6619 43.2 29.2285 45.2C29.3619 45.6333 29.5619 45.7667 30.0285 45.7667C40.6619 45.7667 51.2952 45.7667 61.9285 45.7667C62.0285 45.7667 62.1285 45.7667 62.2285 45.7667C62.4952 45.8 62.5952 45.6667 62.6619 45.4333C62.6952 45.2667 62.7952 45.1 62.8285 44.9333C63.1952 43 64.1619 41.2667 64.9285 39.5C65.1619 38.9333 65.2285 38.9333 64.5619 38.9333C58.3952 38.9333 52.1952 38.9333 45.9952 38.9333ZM23.7619 68C23.7619 67.6667 23.7619 67.3 23.7619 66.9667C23.7619 66.7 23.6952 66.6 23.4285 66.6C22.7285 66.6 22.0619 66.6 21.3619 66.6C21.1285 66.6 21.0285 66.6667 21.0285 66.9333C21.0285 67.6667 21.0285 68.3667 21.0285 69.1C21.0285 69.3333 21.0952 69.4333 21.3619 69.4333C22.0619 69.4333 22.7619 69.4333 23.4952 69.4333C23.7619 69.4333 23.8285 69.3333 23.7952 69.1C23.7285 68.7333 23.7619 68.3667 23.7619 68ZM68.2619 67.9333C68.2619 68.3667 68.2619 68.7333 68.2619 69.1C68.2619 69.3333 68.3285 69.4333 68.5952 69.4333C69.2952 69.4333 69.9952 69.4333 70.7285 69.4333C70.9952 69.4333 71.0619 69.3333 71.0619 69.1C71.0619 68.3667 71.0619 67.6667 71.0619 66.9333C71.0619 66.6667 70.9619 66.6 70.7285 66.6C70.3952 66.6 70.0285 66.6 69.6952 66.6C69.2619 66.6333 68.6952 66.4 68.4285 66.6667C68.0619 67 68.2952 67.5667 68.2619 67.9333Z" fill="#A2D8F6"/>
<path d="M46.8618 33.1669C39.1284 33.1669 32.4951 26.8669 32.5951 18.7003C32.6951 10.7669 39.1284 4.50027 46.9951 4.56693C54.8951 4.60027 61.3951 11.0336 61.2284 19.2669C61.0618 26.7669 54.8951 33.1669 46.8618 33.1669ZM46.8951 30.1336C52.9284 30.2003 58.1618 25.2336 58.1951 18.9003C58.2284 12.7003 53.1284 7.6336 46.9951 7.60027C40.7951 7.56693 35.5951 12.5669 35.6284 18.9336C35.6284 25.3336 40.8951 30.2003 46.8951 30.1336Z" fill="#A79ECD"/>
<path d="M46.8286 9C48.1286 9.03333 48.2286 8.76667 48.1953 10.3667C48.1953 11.2333 48.1953 11.2333 49.0286 11.4333C49.9953 11.6667 50.8953 12.0333 51.6953 12.6333C52.1286 12.9333 52.1953 13.1333 51.8953 13.5667C51.6619 13.9667 51.3953 14.3667 51.1286 14.7667C50.8286 15.2 50.6619 15.2333 50.1953 14.9333C49.3953 14.4 48.5286 14 47.5619 13.9333C46.6619 13.8333 45.7952 13.9333 45.0619 14.5333C44.4286 15.0333 44.3952 15.7667 44.9952 16.3333C45.5286 16.8667 46.2286 17.1333 46.9286 17.3667C48.1286 17.8 49.3286 18.1667 50.4286 18.7667C51.4953 19.3667 52.3619 20.1333 52.6286 21.4C52.9619 23.1 52.1286 24.8333 50.5953 25.7C49.9619 26.0667 49.2619 26.3333 48.5619 26.4333C48.2619 26.4667 48.1619 26.6 48.1619 26.8667C48.1619 27.2667 48.1953 27.6667 48.1953 28.0333C48.1953 28.6 48.0286 28.7667 47.4953 28.7667C46.9953 28.7667 46.5286 28.7667 46.0286 28.7667C45.5286 28.7333 45.3619 28.5333 45.4286 28.0333C45.4286 28 45.4619 27.9667 45.4619 27.9333C45.4619 27.5 45.5619 27.0333 45.4619 26.6667C45.2952 26.2 44.7286 26.3667 44.3619 26.2333C43.2286 25.8667 42.1952 25.4 41.2952 24.6333C40.8952 24.3 40.8952 24.1667 41.2286 23.7333C41.5619 23.3333 41.9286 22.9 42.2619 22.5C42.6286 22.0333 42.7619 22.0667 43.1952 22.4333C44.5286 23.5667 46.0286 24.1 47.7953 23.7667C48.1286 23.7 48.4619 23.5333 48.7286 23.3333C49.5619 22.6667 49.4953 21.7 48.5953 21.1C47.9286 20.6667 47.1953 20.4333 46.4952 20.1667C45.4286 19.8 44.3619 19.5 43.3952 18.9333C42.1952 18.2333 41.3286 17.2667 41.2619 15.8C41.1619 14.0667 42.0952 12.5667 43.6952 11.8333C44.1952 11.6 44.6952 11.4333 45.1952 11.3C45.4286 11.2333 45.4952 11.1333 45.4952 10.9333C45.4619 10.4667 45.4952 10.0333 45.4952 9.56667C45.4952 9.16667 45.6952 9 46.0619 9C46.2619 9 46.5286 9 46.8286 9Z" fill="#A79ECD"/>
</svg>
