<svg width="69" height="49" viewBox="0 0 69 49" fill="none" xmlns="http://www.w3.org/2000/svg">
<path d="M44.5105 0.0249223C45.009 0.174453 45.5074 0.149531 46.0058 0.224296C46.9778 0.348905 47.9248 0.448591 48.8968 0.5732C49.8189 0.672887 50.7659 0.747653 51.688 0.872262C52.4606 0.971949 53.2581 0.971949 54.0057 1.22117C55.4263 1.69468 56.3982 3.28967 56.1739 4.78498C55.9995 5.90646 55.9247 7.02794 55.8001 8.17434C55.7004 9.12136 55.5758 10.0684 55.4761 10.9905C55.3764 11.9126 55.2767 12.8347 55.1771 13.7568C55.0774 14.7038 54.9528 15.6509 54.8531 16.573C54.7534 17.52 54.6537 18.467 54.554 19.414C54.4543 20.3362 54.3297 21.2583 54.23 22.1804C54.1303 23.1025 54.0307 24.0495 53.931 24.9716C53.8313 25.9186 53.7067 26.8657 53.607 27.7878C53.5073 28.6849 53.4076 29.607 53.3079 30.5042C53.2082 31.4513 53.0836 32.4232 52.9839 33.3702C52.9092 34.0431 52.8095 34.716 52.7596 35.4138C52.6101 37.0337 51.5136 38.1801 49.9435 38.4543C49.2208 38.5789 48.5479 38.3795 47.8251 38.3297C47.1024 38.2798 46.3797 38.1552 45.6569 38.0804C44.7099 37.9808 43.738 37.8562 42.7909 37.7565C42.0682 37.6817 41.3455 37.5571 40.6227 37.5322C38.8284 37.4574 37.3331 35.8873 37.4078 34.093C37.4328 33.3952 37.5574 32.6973 37.6321 31.9746C37.7069 31.227 37.8066 30.4793 37.8814 29.7317C37.981 28.8096 38.1056 27.8625 38.2053 26.9404C38.2801 26.2177 38.3549 25.495 38.4296 24.7722C38.5293 23.8252 38.6539 22.8533 38.7536 21.9062C38.8533 21.009 38.953 20.0869 39.0527 19.1898C39.1524 18.2427 39.277 17.2708 39.3767 16.3238C39.4514 15.601 39.5262 14.9032 39.601 14.1805C39.7006 13.2335 39.8253 12.2864 39.9249 11.3643C39.9997 10.6416 40.0745 9.94378 40.1492 9.22105C40.2489 8.2491 40.3735 7.30207 40.4732 6.33013C40.5729 5.43294 40.6726 4.51084 40.7723 3.61366C40.847 2.76632 40.9966 1.96882 41.5698 1.27101C42.1181 0.623045 42.7909 0.249217 43.5884 0.0747651C43.6632 0.0498433 43.738 0.0747653 43.7629 0C44.037 0.0249218 44.2613 0.0249223 44.5105 0.0249223ZM53.3079 4.41115C53.3079 4.08717 53.1833 3.96256 52.8344 3.93764C52.5603 3.91272 52.311 3.8878 52.0369 3.86287C51.065 3.76319 50.093 3.63858 49.0961 3.53889C48.3983 3.46412 47.7254 3.38936 47.0276 3.31459C46.1055 3.21491 45.1834 3.0903 44.2613 2.99061C43.9623 2.96569 43.7629 3.0903 43.713 3.41428C43.6632 3.88779 43.6134 4.38623 43.5635 4.85974C43.4887 5.6074 43.3891 6.33013 43.3143 7.07778C43.2146 7.97496 43.1149 8.89707 43.0152 9.79425C42.9155 10.7164 42.8159 11.6634 42.7162 12.5855C42.6165 13.5574 42.4919 14.5045 42.3922 15.4764C42.3174 16.1991 42.2427 16.897 42.1679 17.6197C42.0682 18.5667 41.9436 19.5137 41.8439 20.4358C41.7691 21.1586 41.6944 21.8564 41.6196 22.5791C41.5199 23.5261 41.3953 24.4981 41.2956 25.4451C41.2209 26.1429 41.1461 26.8407 41.0713 27.5385C40.9716 28.4856 40.847 29.4575 40.7474 30.4045C40.6726 31.1522 40.5729 31.8999 40.4981 32.6475C40.4483 33.1459 40.3735 33.6444 40.3486 34.1428C40.3237 34.4419 40.4483 34.6163 40.7723 34.6412C41.2209 34.6911 41.6695 34.7409 42.1181 34.7908C43.2645 34.9154 44.4109 35.0649 45.5573 35.1895C46.7535 35.3391 47.9747 35.4637 49.1709 35.6132C49.6693 35.663 49.8687 35.5135 49.8936 34.9901C49.9186 34.4668 49.9933 33.9434 50.0432 33.445C50.1429 32.498 50.2675 31.5509 50.3672 30.6288C50.4668 29.7067 50.5665 28.7846 50.6662 27.8625C50.7659 26.8906 50.8905 25.9186 50.9902 24.9218C51.065 24.2239 51.1397 23.5261 51.2145 22.8283C51.3142 21.8813 51.4388 20.9094 51.5385 19.9623C51.6132 19.2645 51.688 18.5667 51.7628 17.8689C51.8625 16.897 51.9871 15.9499 52.0868 14.978C52.1864 14.0808 52.2861 13.1836 52.3858 12.2864C52.4855 11.3145 52.6101 10.3675 52.7098 9.3955C52.7846 8.64785 52.8843 7.92512 52.959 7.17747C53.1085 6.23044 53.2082 5.33326 53.3079 4.41115Z" fill="#D1CCE6"/>
<path d="M18.891 48.9959C13.7322 48.9959 8.59832 48.9959 3.43952 48.9959C1.74484 48.9959 0.423987 47.9243 0.0750824 46.3044C0.0252389 46.0302 0.0252389 45.781 0.0252389 45.5069C0.0252389 42.6907 0.0750826 39.8745 0.00031732 37.0584C-0.0246044 35.1892 1.42086 33.5693 3.48936 33.5693C13.7322 33.5943 23.9501 33.5693 34.193 33.5693C36.2615 33.5693 37.682 34.9899 37.682 37.0584C37.682 39.8745 37.682 42.6907 37.682 45.5069C37.682 47.5754 36.2615 48.9959 34.193 48.9959C29.1089 48.9959 24 48.9959 18.891 48.9959ZM18.8661 46.0801C23.975 46.0801 29.084 46.0801 34.193 46.0801C34.7163 46.0801 34.816 45.9804 34.816 45.4819C34.816 42.6907 34.816 39.9244 34.816 37.1331C34.816 36.5849 34.7412 36.4852 34.168 36.4852C24 36.4852 13.807 36.4852 3.63889 36.4852C3.06569 36.4852 2.96601 36.5849 2.96601 37.183C2.96601 39.9244 2.96601 42.6658 2.96601 45.3822C2.96601 45.9804 3.06569 46.0801 3.63889 46.0801C8.69801 46.0801 13.7821 46.0801 18.8661 46.0801Z" fill="#AE4B84"/>
<path d="M65.9433 34.5658C65.2953 33.1452 64.6474 31.7995 64.0243 30.4288C63.9495 30.3042 63.9994 30.2294 64.124 30.1546C64.7221 29.8307 64.7221 29.8307 64.9963 30.4537C65.2455 31.002 65.4947 31.5253 65.7938 32.0736C65.8934 31.1017 65.7938 30.1297 65.5196 29.2076C64.2985 25.1952 61.6069 22.8276 57.4699 22.1049C57.2456 22.0551 57.0213 22.0551 56.8219 22.0301C56.5478 22.0052 56.3983 21.8557 56.3983 21.5566C56.4232 21.2825 56.6226 21.1579 56.8967 21.1828C58.1677 21.2326 59.3639 21.5566 60.5103 22.08C64.3981 23.8494 66.8155 27.6874 66.7159 31.9739C66.7159 32.0736 66.7159 32.1733 66.7159 32.3228C67.0149 32.0985 67.1894 31.8244 67.4137 31.5752C67.7127 31.2512 67.9869 30.9272 68.261 30.6032C68.4105 30.4039 68.5102 30.4288 68.6847 30.5783C69.0834 30.9521 69.1084 30.9521 68.7345 31.3758C67.9121 32.3228 67.0648 33.2948 66.2423 34.2418C66.1427 34.3664 66.0679 34.4412 65.9433 34.5658Z" fill="#AE4B84"/>
</svg>
