<svg width="48" height="32" viewBox="0 0 48 32" fill="none" xmlns="http://www.w3.org/2000/svg">
<path d="M41.9347 13.4424C41.8949 14.4955 41.4578 15.5089 40.643 16.264L27.4885 28.4052L26.3757 29.4186C25.561 30.1737 24.5079 30.5313 23.4746 30.4916C22.4214 30.4519 21.408 30.0147 20.6529 29.1801L1.7557 8.7131C0.40448 7.24265 0.1859 4.97737 1.39802 3.40757C2.25247 2.27493 3.54408 1.75828 4.81582 1.79802C5.84911 1.83777 6.88239 2.27493 7.63749 3.08963L7.67723 3.12938L22.5009 19.1851C23.2759 20.0196 24.5874 20.0793 25.4219 19.3043L27.9853 16.9397L35.1786 10.2829C36.7682 8.81245 39.2123 8.87207 40.7424 10.3624C40.802 10.4021 40.8616 10.4617 40.9014 10.5214C41.6366 11.3559 41.9744 12.4091 41.9347 13.4424Z" fill="#1D9594"/>
<path d="M27.7469 17.8935L25.1835 20.2581C24.3489 21.0331 23.0375 20.9933 22.2625 20.1389L7.45868 4.08318C7.55803 3.84473 7.69713 3.60628 7.8561 3.40757C8.71055 2.27493 10.0022 1.75828 11.2739 1.79802C12.3072 1.83777 13.3405 2.27493 14.0956 3.08963L27.7469 17.8935Z" stroke="#1D9594" stroke-width="2" stroke-miterlimit="10"/>
<path d="M46.9969 13.1523C46.9572 14.2054 46.52 15.2188 45.7053 15.9739L31.438 29.1285C30.6233 29.8836 29.5701 30.2412 28.5368 30.2015C27.5632 30.1618 26.6094 29.7842 25.8741 29.0689L39.0287 16.9277C39.8434 16.1726 40.2806 15.1592 40.3203 14.1061C40.36 13.0728 40.0024 12.0196 39.2473 11.185C39.2075 11.1254 39.1479 11.0658 39.0883 11.0261L40.2011 9.99279C41.8504 8.4826 44.4137 8.58196 45.9239 10.2312C46.6988 11.0658 47.0367 12.119 46.9969 13.1523Z" stroke="#1D9594" stroke-width="2" stroke-miterlimit="10"/>
</svg>
