<svg width="66" height="69" viewBox="0 0 66 69" fill="none" xmlns="http://www.w3.org/2000/svg">
<path d="M0.024553 33.6633C0.34374 32.6812 1.17854 32.583 2.01333 32.5585C4.83691 32.5339 7.66049 32.5339 10.4841 32.5585C10.9997 32.5585 11.5644 32.6567 11.8836 33.1477C12.4974 34.0807 11.9572 35.0874 10.7787 35.1611C10.1403 35.2102 9.4774 35.2102 8.81448 35.1856C6.85025 35.1365 4.88602 35.1611 2.92179 35.1611C2.6026 35.1611 2.30797 35.2347 1.98878 35.2102C1.00667 35.1365 0.319187 35.2593 0 33.9334C0.0245529 33.8598 0.024553 33.7615 0.024553 33.6633Z" fill="#FEF284"/>
<path d="M49.7932 34.1052C49.8178 38.3283 48.4674 41.7903 46.0857 44.9085C45.2264 46.0379 44.4161 47.2165 43.8023 48.4932C42.9675 50.1874 42.722 52.0043 42.6729 53.8457C42.6483 54.7542 41.8872 55.3189 41.0769 55.0243C40.5613 54.8279 40.3404 54.4104 40.3158 53.8948C40.2176 51.3413 40.7823 48.9597 42.01 46.7009C42.8693 45.1295 43.9742 43.73 44.9809 42.2813C46.896 39.556 47.5589 36.4869 47.3134 33.2213C46.8223 26.7885 42.4765 21.7797 36.5101 20.3311C31.7714 19.1771 27.5238 20.2329 23.8163 23.4002C21.0909 25.7327 19.4704 28.7282 18.9794 32.2883C18.5129 35.7994 19.1758 39.114 21.14 42.1095C22.073 43.5335 23.1288 44.8839 23.9882 46.3326C25.1176 48.2231 25.7805 50.261 25.9033 52.4708C25.9278 53.0355 26.026 53.5757 25.9033 54.1404C25.756 54.7051 25.2895 55.1225 24.7247 55.0979C24.16 55.0734 23.7181 54.7051 23.6444 54.1158C23.5216 53.1828 23.448 52.2252 23.3252 51.2922C23.006 49.1561 21.9748 47.3638 20.7226 45.6696C19.3968 43.8527 18.1691 42.0113 17.3834 39.8997C16.4504 37.4199 16.2294 34.8418 16.6223 32.2147C16.9906 29.7348 17.7763 27.4023 19.1021 25.2662C20.6244 22.7618 22.7605 20.9695 25.2649 19.5208C26.959 18.5387 28.8496 18.1213 30.7402 17.753C34.6441 16.9919 38.2534 17.9003 41.5926 19.8891C45.9875 22.4917 48.5901 26.3956 49.5968 31.4044C49.6459 31.6745 49.695 31.92 49.7196 32.1901C49.7687 32.9021 49.8178 33.6387 49.7932 34.1052Z" fill="#B2B09C"/>
<path d="M21.0173 34.0563C20.9927 32.8041 21.361 31.6256 21.8275 30.4962C23.006 27.6235 24.8966 25.3646 27.7202 23.9896C29.3898 23.1794 31.133 22.6638 33.0236 22.7374C33.5883 22.762 34.0057 22.983 34.2758 23.4986C34.5213 23.9896 34.3495 24.4316 34.1039 24.8244C33.7847 25.2909 33.2691 25.3155 32.7535 25.3401C28.9724 25.5856 26.247 27.427 24.5283 30.7908C23.9391 31.9448 23.6444 33.1724 23.6199 34.4737C23.5953 35.4313 23.3252 35.8978 22.6869 36.1188C21.8521 36.3888 21.14 35.8487 21.0173 34.8666C20.9927 34.5719 21.0173 34.3264 21.0173 34.0563Z" fill="#FEF284"/>
<path d="M40.4386 60.1804C36.7065 60.033 32.95 60.1312 29.2179 60.1067C27.9657 60.1067 26.689 60.1558 25.4368 60.1804C25.0194 60.1804 24.6265 60.1067 24.2337 59.9839C23.6935 59.7875 23.448 59.4438 23.448 58.9036C23.448 58.3634 23.6935 58.0197 24.2582 57.8478C25.1176 57.5532 26.026 57.676 26.91 57.7005C27.18 57.7005 27.4747 57.7496 27.7447 57.7496C32.1888 57.7496 36.6083 57.7496 41.0524 57.7496C41.3225 57.7496 41.6171 57.7496 41.8872 57.7742C42.501 57.8478 42.8939 58.2161 42.943 58.7808C42.9921 59.4192 42.7465 59.8121 42.1082 60.033C41.568 60.2049 41.0033 60.2049 40.4386 60.1804Z" fill="#B2B09C"/>
<path d="M33.1955 64.7716C31.3049 64.7716 29.4143 64.7716 27.5238 64.7716C27.2537 64.7716 26.959 64.747 26.689 64.6979C26.0997 64.5997 25.756 64.2314 25.7069 63.6421C25.6577 63.102 25.9769 62.66 26.5416 62.4881C26.8608 62.3899 27.18 62.3408 27.4992 62.3408C31.1085 62.3408 34.7423 62.3408 38.3516 62.3654C38.7935 62.3654 39.26 62.4145 39.702 62.4636C40.2176 62.5127 40.5613 62.881 40.6595 63.4212C40.7332 63.8631 40.5122 64.3542 40.1194 64.5751C39.7756 64.7716 39.3828 64.8207 38.9899 64.8207C37.0748 64.7961 35.1352 64.7961 33.1955 64.7716Z" fill="#B2B09C"/>
<path d="M49.8669 18.3663C49.8423 17.998 50.1615 17.6051 50.5298 17.2614C52.4449 15.3217 54.2864 13.2838 56.3243 11.4669C56.6189 11.1968 56.9381 10.9267 57.2573 10.7058C57.6747 10.4111 58.2394 10.4602 58.6568 10.7549C59.0251 11.025 59.197 11.5651 59.0742 12.0562C58.976 12.4245 58.7796 12.7437 58.5095 13.0137C56.6189 14.9043 54.7038 16.8194 52.8132 18.71C52.494 19.0292 52.1257 19.3484 51.7329 19.6185C51.3155 19.9131 50.8735 19.8149 50.4561 19.5939C50.0387 19.3729 49.8669 19.0046 49.8669 18.3663Z" fill="#FEF284"/>
<path d="M16.1558 18.4649C16.1558 19.005 15.9594 19.3733 15.5174 19.6434C15.0755 19.9135 14.6581 19.8153 14.2407 19.5697C13.9952 19.4224 13.7742 19.2506 13.5778 19.0541C11.6626 17.139 9.74751 15.2239 7.80783 13.2842C7.46409 12.9405 7.16946 12.5967 6.99759 12.1548C6.77661 11.6146 6.85027 11.1972 7.21857 10.878C7.73418 10.4606 8.348 10.3624 8.8145 10.6325C8.93727 10.7062 9.06003 10.8044 9.18279 10.9271C11.2698 12.9896 13.3322 15.0766 15.3947 17.1636C15.763 17.5319 16.1804 17.9002 16.1558 18.4649Z" fill="#FEF284"/>
<path d="M59.7617 32.5586C61.1121 32.5586 62.4625 32.5586 63.8375 32.5586C64.2058 32.5586 64.5741 32.6077 64.9423 32.7059C65.6298 32.8778 65.9245 33.3197 65.8999 34.0563C65.8754 34.621 65.458 35.063 64.8441 35.1857C64.4758 35.2594 64.1076 35.284 63.7393 35.2594C61.8732 35.1121 60.0072 35.1858 58.1412 35.2103C57.1591 35.2103 56.177 35.284 55.1949 35.1857C54.0409 35.0384 53.5253 34.0809 54.1145 33.197C54.4583 32.6814 54.9984 32.5831 55.5632 32.5831C56.9627 32.5586 58.3622 32.5586 59.7617 32.5586Z" fill="#FEF284"/>
<path d="M34.3249 6.09034C34.3249 7.48985 34.3249 8.88936 34.3249 10.3134C34.3249 10.6572 34.2758 11.0009 34.1285 11.3201C33.9075 11.8112 33.4901 12.0076 32.9745 12.0567C32.4589 12.0812 32.1152 11.8603 31.8942 11.4183C31.7223 11.05 31.6978 10.6326 31.6978 10.2398C31.6978 7.73538 31.6978 5.20643 31.6978 2.70204C31.6978 2.18643 31.5996 1.69537 31.6978 1.17976C31.8205 0.516837 32.3361 0.0257796 32.9991 0.00122674C33.6374 -0.0233261 34.0548 0.320414 34.2022 1.057C34.2758 1.37619 34.3249 1.69537 34.3004 2.03911C34.3004 3.34042 34.3004 4.71538 34.3249 6.09034Z" fill="#FEF284"/>
<path d="M51.0208 47.8545C51.561 47.9036 51.9784 48.1246 52.3467 48.4683C54.1636 50.2852 56.0051 52.1021 57.7974 53.9436C58.2148 54.3856 58.6322 54.8275 58.9514 55.3431C59.2215 55.7605 59.1724 56.2025 58.8532 56.6444C58.5586 57.0373 58.0675 57.2337 57.6256 57.0864C56.889 56.8654 56.3488 56.3252 55.8332 55.7605C54.6792 54.4838 53.427 53.3298 52.2239 52.1021C51.4874 51.3656 50.7017 50.6535 50.1124 49.7942C49.5968 49.033 50.0142 48.0018 50.9226 47.8545C50.9717 47.8545 51.0208 47.8545 51.0208 47.8545Z" fill="#FEF284"/>
<path d="M15.0755 47.9033C15.4438 47.9033 15.8366 48.0997 16.033 48.5908C16.2295 49.0819 16.2049 49.5484 15.8121 49.9658C13.7005 52.2492 11.4662 54.3853 9.281 56.595C8.96181 56.9142 8.54442 57.1106 8.07791 57.1106C7.58685 57.1106 7.24311 56.8897 7.02214 56.4723C6.80116 56.0549 6.80116 55.6129 7.0958 55.2446C7.58685 54.6554 8.10246 54.0906 8.61807 53.5505C10.2877 51.8563 11.9818 50.1622 13.676 48.468C14.0197 48.1243 14.4126 47.9033 15.0755 47.9033Z" fill="#FEF284"/>
<path d="M33.3427 68.9945C32.0906 68.97 30.8138 69.0191 29.5616 68.9209C28.9723 68.8718 28.5058 68.528 28.4322 68.0124C28.334 67.3249 28.604 66.883 29.2179 66.662C29.6107 66.5147 30.0281 66.441 30.4455 66.4656C32.5325 66.5884 34.6195 66.5392 36.7065 66.5638C36.8784 66.5638 37.0502 66.6129 37.2221 66.6375C37.7132 66.7602 37.9341 67.104 37.9832 67.5705C38.0323 68.0861 37.885 68.4544 37.4185 68.6999C37.0257 68.8963 36.5837 68.9945 36.1418 68.9945C35.2088 68.9945 34.2758 68.9945 33.3427 68.9945Z" fill="#B2B09C"/>
</svg>
