<svg width="72" height="64" viewBox="0 0 72 64" fill="none" xmlns="http://www.w3.org/2000/svg">
<path d="M0.0506924 38.9826C0.0253463 38.9826 0.0253461 38.9826 0 38.9572C0 26.7657 0 14.5742 0 2.38277C0.0253461 2.38277 0.0253463 2.38277 0.0506924 2.35742C0.0506924 2.45881 0.0506924 2.53484 0.0506924 2.63623C0.0506924 14.5489 0.0506924 26.4616 0.0506924 38.3489C0.0506924 38.577 0.0506924 38.7798 0.0506924 38.9826Z" fill="#A2D8F6"/>
<path d="M0.0507202 38.9823C0.0507202 38.7795 0.0507202 38.5768 0.0507202 38.374C0.0507202 26.4613 0.0507202 14.5487 0.0507202 2.66134C0.0507202 2.55996 0.0507202 2.48392 0.0507202 2.38253C0.202797 1.06454 1.24199 0.0760383 2.55998 0C2.68672 0 2.81345 0 2.94018 0C14.8022 0 26.6641 0 38.5261 0C40.1483 0 41.1114 1.01384 41.3649 1.977C41.4409 2.2558 41.4663 2.55996 41.4663 2.83876C41.4663 4.43557 41.4663 6.03237 41.4663 7.62918C41.4663 7.75591 41.4663 7.88264 41.4663 8.11075C41.669 7.78125 41.8211 7.52779 41.9732 7.27433C42.6829 6.18445 44.1023 6.2098 44.7612 7.32502C46.865 10.9495 48.9434 14.574 51.0471 18.2239C53.455 22.406 55.8882 26.5881 58.2961 30.7702C60.9321 35.3071 63.5427 39.8694 66.1787 44.4064C67.7755 47.1691 69.347 49.9318 70.9438 52.6692C71.5014 53.6324 71.2986 54.6209 70.3862 55.0771C70.1327 55.2038 69.8792 55.2545 69.6258 55.2545C59.7661 55.2545 49.8812 55.2545 40.0215 55.2545C39.9962 55.2545 39.9708 55.2545 39.9455 55.2545C39.9455 55.2292 39.9455 55.1785 39.9708 55.1531C40.7566 54.19 41.3902 53.1254 41.9985 52.0609C42.0746 52.0609 42.1253 52.0609 42.2013 52.0609C50.312 52.0609 58.4228 52.0609 66.5336 52.0609C66.5842 52.0609 66.6096 52.0609 66.6603 52.0609C66.9137 52.0863 66.9137 51.9849 66.787 51.8074C66.5082 51.3259 66.2294 50.8443 65.9506 50.3374C62.5796 44.5078 59.2085 38.7035 55.8628 32.8739C52.0102 26.2079 48.1576 19.5165 44.305 12.8505C44.0009 12.3182 43.6967 11.8113 43.3672 11.2537C40.7059 15.8667 38.0699 20.429 35.4339 24.9659C35.2818 24.9913 35.1551 24.9152 35.0537 24.8392C34.6228 24.5857 34.2173 24.3323 33.7864 24.0535C33.4315 23.8253 32.9753 23.724 32.6712 23.4198C32.7219 23.3184 32.7725 23.2424 32.8232 23.141C34.5721 20.0995 36.321 17.0833 38.0699 14.0417C38.1966 13.839 38.2726 13.6616 38.2726 13.4081C38.2726 10.1638 38.2473 6.91949 38.2726 3.64984C38.2726 3.26965 38.1713 3.16826 37.7911 3.16826C26.436 3.16826 15.081 3.16826 3.72591 3.16826C3.37106 3.16826 3.26968 3.2443 3.26968 3.62449C3.26968 11.4057 3.26968 19.187 3.26968 26.9429C3.26968 30.4153 3.26968 33.9131 3.26968 37.3855C3.24433 38.2726 2.99087 39.1597 2.91483 40.0468C2.86414 40.5031 2.96552 40.9593 2.7881 41.3902C1.29268 41.4155 0.152105 40.275 0.0507202 38.9823Z" fill="#66C3D0"/>
<path d="M32.6458 23.4198C32.95 23.7493 33.4062 23.8253 33.761 24.0535C34.1919 24.3069 34.5975 24.5604 35.0284 24.8392C35.1551 24.9152 35.2565 24.9913 35.4085 24.9659C35.4085 25.118 35.5353 25.1687 35.6367 25.2447C36.3463 25.7516 37.0307 26.3093 37.6897 26.8922C39.9708 29.0213 41.7451 31.5306 42.9363 34.4454C43.7221 36.3717 44.1783 38.3993 44.3811 40.4524C44.4571 41.4662 44.5078 42.5054 44.4064 43.5446C44.3304 44.4824 44.229 45.4456 44.0262 46.3834C43.646 48.3604 42.9363 50.236 41.9985 52.0356C41.3902 53.1001 40.7312 54.1646 39.9708 55.1278C39.9455 55.1531 39.9455 55.2038 39.9455 55.2292C39.54 55.584 39.2358 56.0402 38.881 56.4204C35.6873 59.7915 31.8094 61.9205 27.2217 62.757C25.5743 63.0611 23.9268 63.1625 22.2793 63.0358C17.9958 62.7316 14.1432 61.2869 10.7468 58.6255C8.13613 56.5725 6.15913 54.0632 4.73975 51.0724C3.85264 49.1714 3.26968 47.1944 2.99087 45.0907C2.8388 43.8741 2.76276 42.6322 2.76276 41.4155C2.94018 40.9847 2.86414 40.5031 2.88949 40.0722C2.96553 39.1851 3.21899 38.298 3.24433 37.4109C3.34572 37.4109 3.34572 37.3348 3.37106 37.2588C3.47245 36.8786 3.57383 36.5237 3.67522 36.1689C4.58768 33.1527 6.13379 30.4914 8.26286 28.1595C10.2145 26.0305 12.5464 24.3576 15.2077 23.1917C17.4382 22.2032 19.7953 21.6202 22.2286 21.4682C23.5466 21.3921 24.8646 21.4175 26.1826 21.5949C27.9061 21.823 29.5536 22.2539 31.1504 22.8368C31.6573 23.0143 32.1135 23.3184 32.6458 23.4198ZM5.95637 42.3027C5.98171 52.0609 13.839 59.9435 23.5973 59.9182C33.5583 59.8928 41.2381 51.8581 41.2128 42.2266C41.1875 32.5191 33.3809 24.6111 23.5719 24.6111C13.7376 24.6111 5.93102 32.5697 5.95637 42.3027Z" fill="#A2D8F6"/>
</svg>
