<svg width="71" height="70" viewBox="0 0 71 70" fill="none" xmlns="http://www.w3.org/2000/svg">
<path d="M0.892215 7.45092C0.917271 6.29835 0.817048 5.12074 0.992437 3.96818C1.26805 2.13911 2.57095 0.961495 4.40001 0.81116C4.95124 0.761049 5.50246 0.735993 6.07874 0.735993C10.7642 0.735993 15.4496 0.710938 20.135 0.710938C20.9117 0.710938 21.6884 0.735993 22.4902 0.786105C24.3443 0.861272 25.7475 2.26439 25.8727 4.14357C26.0481 6.69925 24.4446 8.32787 21.6884 8.37798C19.3833 8.40303 17.0782 8.40303 14.7731 8.40303C14.6227 8.40303 14.4473 8.40303 14.2469 8.40303C14.3221 8.65359 14.4975 8.77887 14.6227 8.9292C18.2308 12.7126 21.939 16.4209 25.6472 20.1542C27.6767 22.1837 29.6311 24.2633 31.7358 26.2176C32.4874 26.9192 33.0136 27.721 33.1389 28.7733C33.3393 30.2015 32.6378 31.6798 31.3599 32.4565C30.0821 33.2332 28.4284 33.2082 27.2759 32.3813C26.8499 32.0807 26.4991 31.7048 26.1483 31.354C20.6361 25.7666 15.0487 20.2043 9.38609 14.7421C9.16059 14.5166 8.93509 14.3162 8.60937 14.0406C8.58431 14.5918 8.5342 15.0678 8.5342 15.5439C8.50914 17.5734 8.50914 19.5779 8.48409 21.6074C8.48409 22.6347 8.25859 23.5617 7.60714 24.3886C6.68008 25.6163 5.07651 26.0923 3.54812 25.6413C2.01972 25.1903 0.992438 23.8874 0.892215 22.334C0.892215 22.1837 0.967382 22.0083 0.791992 21.883C0.791992 17.7739 0.791992 13.6898 0.791992 9.58065C0.992438 8.87909 0.867159 8.17753 0.892215 7.45092Z" fill="#FDCB01"/>
<path d="M0.817017 48.8422C0.992406 48.6919 0.917239 48.5165 0.917239 48.3411C0.892184 46.5371 2.49575 44.9336 4.42504 44.7832C6.4796 44.6329 8.13328 45.9358 8.43394 47.8901C8.53417 48.5416 8.53417 49.2181 8.53417 49.8695C8.55922 51.9742 8.459 54.0789 8.60933 56.1836C8.60933 56.2587 8.63439 56.3339 8.63439 56.4341C8.98517 56.3088 9.18562 56.0583 9.41112 55.8328C11.3404 54.0288 13.1444 52.0995 15.0236 50.2704C18.2307 47.1385 21.4629 44.0065 24.5698 40.7743C25.3966 39.9224 26.1483 38.9954 27.1255 38.2938C29.3304 36.6902 32.3621 37.7676 33.0637 40.3985C33.3644 41.551 33.1639 42.6034 32.4122 43.5555C32.0865 43.9564 31.7357 44.3072 31.3599 44.683C26.1483 49.9196 20.9618 55.1563 15.7502 60.3929C15.224 60.9191 14.7229 61.4453 14.297 62.0466C14.4223 62.1969 14.5726 62.1468 14.6979 62.1468C16.9779 62.222 19.2831 62.247 21.5631 62.222C22.3148 62.1969 23.0414 62.2721 23.7179 62.5728C25.1711 63.2493 26.1233 64.8528 25.9228 66.3812C25.6723 68.2855 24.6199 69.413 22.7658 69.7637C22.4401 69.8139 22.1143 69.7888 21.8137 69.9391C20.6611 69.9391 19.5336 69.9391 18.3811 69.9391C18.2307 69.7637 18.0052 69.8389 17.8298 69.8389C13.5453 69.8389 9.23573 69.8389 4.9512 69.8389C3.87381 69.8389 2.92169 69.5382 2.11991 68.7615C1.34319 68.0098 0.942295 67.1078 0.917239 66.0304C0.892184 64.2014 0.892184 62.3723 0.892184 60.5683C0.892184 60.3929 0.917239 60.2426 0.842072 60.0672C0.817017 56.3088 0.817017 52.5755 0.817017 48.8422Z" fill="#AFCA1F"/>
<path d="M0.817017 60.043C0.892184 60.1933 0.867128 60.3687 0.867128 60.5441C0.867128 62.3731 0.892184 64.2022 0.892184 66.0062C0.892184 67.0836 1.31813 67.9856 2.09486 68.7373C2.89664 69.514 3.8237 69.8147 4.92615 69.8147C9.21067 69.8147 13.5203 69.8147 17.8048 69.8147C17.9802 69.8147 18.2057 69.7395 18.356 69.9149C12.6433 69.9149 6.90555 69.9149 1.19285 69.9149C0.892184 69.9149 0.817017 69.8648 0.817017 69.5391C0.817017 66.3821 0.817017 63.2 0.817017 60.043Z" fill="#FEFEFE"/>
<path d="M0.892184 7.45084C0.867128 8.17745 0.992406 8.87901 0.817017 9.60563C0.817017 8.87901 0.817017 8.1524 0.817017 7.42578C0.842072 7.42578 0.867128 7.42578 0.892184 7.45084Z" fill="#AFCA1F"/>
<path d="M57.5431 61.9477C57.1673 61.5469 56.8165 61.146 56.4407 60.7451C51.5297 55.7339 46.6188 50.7479 41.6328 45.8369C40.8811 45.0853 40.1294 44.3085 39.4529 43.4817C38.5509 42.4043 38.4006 41.2016 38.9017 39.9238C39.4279 38.5958 40.405 37.769 41.8332 37.5185C42.8605 37.3431 43.7875 37.5686 44.5893 38.2952C46.7942 40.2495 48.8738 42.3291 50.9535 44.3837C54.6367 47.9917 58.1946 51.725 61.9028 55.2829C62.2285 55.6087 62.6044 55.9093 62.9301 56.2351C63.1305 56.4104 63.2057 56.3603 63.2308 56.1098C63.2308 55.7339 63.2558 55.3581 63.2558 54.9823C63.2558 53.078 63.2558 51.1487 63.2558 49.2445C63.2558 48.6432 63.2809 48.0418 63.4563 47.4656C63.8822 45.9372 64.9345 45.0853 66.4379 44.7846C67.9913 44.4839 69.4947 45.1354 70.2213 46.313C70.7475 47.1899 70.9229 48.1671 70.9479 49.1693C70.998 50.5725 70.8978 51.9756 70.8978 53.3787C70.8978 57.1371 70.9229 60.9205 70.9229 64.6788C70.9229 65.4054 70.9229 66.132 70.7725 66.8336C70.4718 68.3119 69.0186 69.5897 67.5153 69.715C66.7135 69.7902 65.8867 69.7651 65.0849 69.7651C61.1261 69.7651 57.1673 69.7902 53.2085 69.7651C51.9557 69.7651 50.7029 69.715 49.4501 69.69C47.596 69.6398 46.0927 68.2117 45.9173 66.3325C45.7168 64.0023 47.0949 62.3486 49.4251 62.1732C51.5799 61.9979 53.7597 62.1482 55.9395 62.0981C56.4657 62.0981 56.9919 62.0981 57.5181 62.0981C57.5181 62.073 57.5181 61.9979 57.5431 61.9477Z" fill="#FDCB01"/>
<path d="M57.6683 8.55305C55.4634 8.47788 53.3087 8.47788 51.1789 8.50293C50.5275 8.50293 49.851 8.55305 49.1995 8.45282C47.4707 8.20227 46.0174 6.64881 45.9172 4.91997C45.817 3.16607 47.0698 1.41218 48.7736 0.986229C49.4751 0.810839 50.2017 0.835895 50.9284 0.835895C55.6388 0.785783 60.3493 0.835895 65.0598 0.86095C65.9117 0.86095 66.7636 0.835895 67.6405 0.911062C69.3443 1.08645 70.8476 2.6399 70.9479 4.31863C71.0481 5.84703 70.9729 7.35037 70.9729 8.87877C70.9729 11.8353 70.9479 14.817 70.9729 17.7735C70.9729 19.3019 71.0481 20.8053 70.9479 22.3337C70.8226 24.3381 69.3694 25.7663 67.3398 25.8415C65.2853 25.9166 63.7068 24.6137 63.4061 22.6343C63.3309 22.1332 63.3309 21.6071 63.3309 21.1059C63.3309 19.1516 63.3309 17.1973 63.3059 15.2429C63.3059 15.0425 63.2808 14.842 63.2808 14.6666C63.2808 14.3409 63.1054 14.3159 62.8799 14.4662C62.6795 14.5915 62.479 14.7418 62.3287 14.9172C57.2173 20.1288 51.9807 25.19 46.8192 30.3264C46.1678 30.9528 45.6166 31.6794 44.915 32.2557C43.6121 33.3331 41.8332 33.4584 40.43 32.5063C38.9768 31.5291 38.3504 29.7502 38.8515 28.1466C39.0269 27.6455 39.3526 27.2446 39.6784 26.8688C41.307 25.0647 43.0609 23.3359 44.7897 21.6321C48.7986 17.6733 52.6823 13.5892 56.7162 9.6555C57.0921 9.35483 57.4428 9.05416 57.6683 8.55305Z" fill="#AFCA1F"/>
</svg>
