<svg width="73" height="72" viewBox="0 0 73 72" fill="none" xmlns="http://www.w3.org/2000/svg">
<path d="M72.8904 37.5705C72.6888 37.9987 72.7392 38.4522 72.714 38.9057C72.5125 41.9539 71.9079 44.9013 70.875 47.7732C70.2452 49.587 69.4643 51.3252 68.5826 53.0131C67.4993 55.0536 66.1893 56.9682 64.7282 58.7568C62.9144 60.9737 60.8487 62.9639 58.5814 64.7021C56.7676 66.0877 54.853 67.2969 52.8377 68.2793C49.7139 69.7909 46.4641 70.8993 43.0128 71.4787C40.3929 71.9322 37.7729 72.0833 35.153 71.9573C31.8529 71.8062 28.6283 71.2268 25.4793 70.1687C24.6984 69.9168 23.867 69.7153 23.1617 69.3626C21.9273 68.758 20.6425 68.2038 19.4333 67.5236C17.7202 66.5663 16.0828 65.483 14.5461 64.2738C12.4048 62.586 10.5406 60.621 8.75194 58.5553C7.87022 57.5224 7.16485 56.3888 6.3839 55.3055C5.93045 54.6757 5.55257 53.92 5.1747 53.2146C3.68838 50.4435 2.52955 47.5716 1.82418 44.4982C1.42111 42.76 1.11881 40.9966 0.99285 39.208C0.892083 37.7972 0.740932 36.4117 0.816507 35.0009C0.99285 31.9023 1.37073 28.8289 2.25244 25.8311C2.73109 24.2188 3.28531 22.6569 3.96549 21.1454C4.67086 19.5583 5.55257 17.9964 6.50986 16.4849C7.03889 15.6536 7.69388 15.1246 8.62598 14.8978C9.4825 14.6711 10.6161 15.1246 11.12 15.8803C11.7498 16.7872 11.8002 17.7445 11.3467 18.7522C11.0192 19.4827 10.4398 20.0622 10.0871 20.7927C9.55808 21.8508 9.02905 22.9088 8.5504 23.9921C7.74426 25.7555 7.34119 27.6197 6.83736 29.4335C6.45948 30.8695 6.33352 32.3558 6.18237 33.8421C6.0816 34.9253 6.05641 35.9834 6.10679 37.0415C6.23275 40.266 6.86255 43.3898 7.97099 46.438C8.47483 47.7984 9.05424 49.1083 9.73442 50.3679C10.8681 52.4841 12.2536 54.449 13.8155 56.2628C15.7805 58.5553 18.0981 60.4195 20.6173 62.0318C22.3052 63.115 24.0938 63.9967 26.0335 64.6769C27.5954 65.2311 29.1573 65.7098 30.7444 66.0373C33.3896 66.5915 36.0599 66.7426 38.7302 66.6167C40.3677 66.5159 42.0052 66.3144 43.5923 65.9365C45.3305 65.5334 47.0435 65.0548 48.681 64.3242C49.6635 63.8708 50.646 63.3921 51.6033 62.8883C53.0392 62.1325 54.3492 61.2508 55.6088 60.2935C57.2966 59.0087 58.9089 57.5728 60.2441 55.9101C61.3021 54.6002 62.3854 53.265 63.2167 51.7787C63.9221 50.4939 64.703 49.2343 65.2069 47.8488C65.7611 46.2869 66.3657 44.7753 66.7436 43.1379C67.3482 40.4927 67.6505 37.7972 67.6253 35.1017C67.6001 33.8169 67.4993 32.5321 67.2978 31.2977C66.8695 28.7533 66.2397 26.2342 65.1565 23.8661C64.6778 22.7829 64.1488 21.7248 63.5442 20.692C62.8892 19.6087 62.2342 18.5506 61.5037 17.543C59.5135 14.8474 57.1203 12.5802 54.3744 10.6656C53.8453 10.2877 53.2155 10.0358 52.7369 9.65792C52.0315 9.12889 51.2758 8.75102 50.52 8.37314C47.5222 6.88682 44.3732 5.90434 41.0731 5.42569C39.0325 5.14858 36.9668 5.0982 34.9263 5.22416C32.5834 5.35012 30.2658 5.77838 28.0237 6.45856C26.9908 6.78605 25.958 7.21431 24.9503 7.61738C23.7411 8.12122 22.5823 8.70063 21.4234 9.33043C20.8692 9.63273 20.3654 10.0106 19.8363 10.3129C18.2493 11.2954 16.3347 10.5648 15.8308 8.87698C15.5537 7.8693 15.9316 6.71048 16.7629 6.10587C18.9294 4.54398 21.2975 3.35996 23.7915 2.42786C25.8572 1.64692 27.9733 0.966737 30.1398 0.588859C31.475 0.362133 32.8353 0.18579 34.1957 0.0850225C35.3545 0.00944698 36.5133 -0.0157449 37.6722 0.00944693C40.9219 0.0598306 44.0961 0.563668 47.1947 1.49577C50.0414 2.35229 52.7117 3.5615 55.2813 5.04782C56.2386 5.60204 57.1959 6.18145 58.0272 6.83644C59.4379 7.97007 60.9746 8.97774 62.1083 10.4389C62.7129 11.2198 63.4938 11.8748 64.174 12.6054C64.9801 13.4871 65.7107 14.4192 66.3909 15.4017C66.6176 15.7292 66.8443 16.0567 67.1466 16.3338C67.4237 16.6109 67.4993 17.0643 67.7009 17.417C68.8093 19.3316 69.8925 21.2714 70.6231 23.3623C71.4544 25.7807 72.1598 28.2243 72.4873 30.7939C72.6385 31.9779 72.714 33.1619 72.7896 34.3459C72.7896 34.4467 72.7896 34.5475 72.8904 34.623C72.8904 35.6055 72.8904 36.588 72.8904 37.5705Z" fill="#D1CCE6"/>
<path d="M57.6493 26.7387C57.5989 27.5701 57.221 28.2502 56.6164 28.8549C54.324 31.0717 52.0567 33.2886 49.865 35.6315C49.5123 36.0093 49.1092 36.3116 48.7566 36.6895C44.1465 41.35 39.4104 45.9097 34.8759 50.6458C34.372 51.1748 33.8178 51.6787 33.0872 51.9054C32.1299 52.2329 31.2734 52.0062 30.5429 51.3512C30.039 50.8977 29.5856 50.3687 29.0817 49.89C25.2526 46.0609 21.4486 42.2569 17.6194 38.4529C16.8133 37.6468 16.5362 36.6895 16.9393 35.6063C17.3171 34.5734 18.0729 33.9688 19.1813 33.868C20.1386 33.7925 20.9196 34.2459 21.5746 34.9009C23.867 37.1934 26.1847 39.511 28.4771 41.8035C29.6108 42.9371 30.7948 44.0707 31.9032 45.2547C32.2811 45.6326 32.4574 45.5822 32.7849 45.2296C35.6568 42.3325 38.5287 39.4354 41.4005 36.5384C45.2549 32.684 49.1092 28.88 52.9636 25.0257C53.5934 24.3959 54.2988 23.9676 55.2561 24.0684C56.6416 24.1692 57.6997 25.3532 57.6493 26.7387Z" fill="#3A3285"/>
</svg>
