<svg width="68" height="67" viewBox="0 0 68 67" fill="none" xmlns="http://www.w3.org/2000/svg">
<path d="M0 43.1187C0.151782 42.9922 0.0758908 42.7898 0.101188 42.638C0.227673 38.7929 1.36604 35.2513 3.3139 31.9374C4.47756 29.9642 5.94479 28.2188 7.63968 26.6756C9.9417 24.576 12.5979 23.0582 15.507 21.9957C17.1007 21.4139 18.745 21.0344 20.4399 20.8067C20.7182 20.7815 20.8194 20.6803 20.87 20.3767C21.1988 18.7071 21.4012 17.0122 22.0084 15.3932C22.9443 12.8635 24.2092 10.5362 25.9041 8.46183C27.8772 6.05862 30.2299 4.18665 32.9619 2.71942C35.1628 1.53047 37.5154 0.74626 39.9692 0.341509C41.6894 0.0379454 43.4349 -0.0632424 45.1551 0.0379454C48.6713 0.240321 51.9852 1.15101 55.0715 2.8712C56.6652 3.7566 58.1577 4.81907 59.5237 6.05862C61.8511 8.13297 63.6218 10.6121 64.9373 13.42C65.8986 15.4944 66.5563 17.6699 66.8346 19.9466C66.9863 21.0091 67.0875 22.0969 67.0622 23.1594C67.0116 26.625 66.3033 29.9389 64.8361 33.1011C63.5207 35.9343 61.6993 38.3881 59.372 40.4372C56.9182 42.638 54.0596 44.2064 50.9481 45.2436C49.582 45.6989 48.1907 45.9772 46.7741 46.1796C46.4452 46.2302 46.2934 46.3314 46.2428 46.7108C46.0152 48.5828 45.5092 50.4042 44.8768 52.175C44.2191 54.0216 43.2072 55.6912 42.0941 57.285C41.3099 58.3727 40.4751 59.4352 39.4885 60.3459C37.9454 61.8131 36.2505 63.078 34.4039 64.1404C32.8354 65.0258 31.1153 65.5571 29.4204 66.1389C28.3326 66.493 27.2195 66.6195 26.1065 66.8219C25.0187 67.0243 23.9056 66.999 22.7926 66.999C20.8194 67.0243 18.8968 66.5689 16.9996 66.1136C15.7853 65.81 14.6469 65.3294 13.5086 64.8487C11.839 64.1404 10.3718 63.1033 8.95512 62.0408C7.74087 61.1554 6.6531 60.0676 5.66652 58.8787C4.27519 57.1838 3.08623 55.3877 2.15024 53.4398C1.59371 52.2762 1.26485 51.0113 0.860097 49.7718C0.328861 48.0263 0.151782 46.2049 0.101188 44.3835C0.101188 44.2823 0.126485 44.1558 0 44.0799C0 43.8017 0 43.4475 0 43.1187ZM23.5515 61.9649C24.0827 62.0408 24.6139 61.7878 25.1199 61.7878C26.1823 61.8131 27.1942 61.5095 28.1808 61.206C30.7864 60.4471 33.1137 59.1063 35.1628 57.3355C37.566 55.2359 39.2609 52.6303 40.3233 49.62C40.804 48.2286 41.0823 46.812 41.2087 45.3448C41.3352 43.827 41.2593 42.3598 41.0317 40.8672C40.8799 39.9059 40.5763 38.9953 40.3233 38.0593C40.2728 37.9075 40.1969 37.7557 40.3486 37.6292C41.6135 36.5667 42.6001 35.2513 43.8396 34.1635C44.1179 33.9106 44.2444 33.9359 44.3709 34.2647C44.3962 34.3659 44.4468 34.4671 44.4973 34.5683C45.3321 36.4403 45.8634 38.4134 46.1669 40.4372C46.2428 40.9684 46.4705 41.0949 46.9259 41.019C47.027 40.9937 47.1029 40.9937 47.2041 40.9937C49.2026 40.5637 51.0746 39.8301 52.8706 38.8435C55.2486 37.5027 57.1964 35.7066 58.7395 33.4805C60.1309 31.4568 61.1427 29.2306 61.5981 26.7768C61.7246 26.1191 61.7246 25.4108 61.8511 24.7531C62.104 23.2858 61.9016 21.8692 61.7499 20.4273C61.6487 19.2889 61.2692 18.2265 60.8898 17.1387C60.2574 15.2414 59.1443 13.5971 57.9806 11.9781C57.3735 11.118 56.6146 10.3591 55.7798 9.67609C54.7679 8.84129 53.756 8.05708 52.6177 7.44995C51.5046 6.86812 50.3409 6.36219 49.1267 5.98273C47.5836 5.50209 46.0152 5.29971 44.4215 5.14793C43.8649 5.09734 43.3337 5.14793 42.7771 5.22382C41.9424 5.35031 41.0823 5.27442 40.2728 5.50209C39.1344 5.80565 37.996 6.10921 36.9083 6.58986C34.6315 7.60174 32.5572 8.91718 30.8623 10.7639C29.4204 12.3323 28.2314 14.0272 27.3966 15.975C26.8401 17.2399 26.3594 18.5553 26.1571 19.9466C26.0306 20.7056 26.0812 20.7562 26.8148 20.9079C27.0171 20.9585 27.2448 21.0091 27.4472 21.0344C29.3192 21.3127 31.0394 21.9704 32.7849 22.6534C33.2402 22.8305 33.2655 22.9064 32.9113 23.2353C31.9248 24.2218 30.9129 25.1831 29.9769 26.2203C29.4963 26.7515 29.0156 26.8527 28.4085 26.5745C27.3713 26.1191 26.2582 25.9926 25.1705 25.8408C23.8044 25.6638 22.4384 25.7649 21.0977 25.9167C18.4668 26.195 16.0636 27.131 13.7868 28.4717C12.3702 29.3065 11.1813 30.4196 10.0176 31.558C9.23339 32.3422 8.65156 33.3034 8.04443 34.2394C6.80488 36.1873 5.86889 38.2616 5.46414 40.5637C5.36296 41.1708 5.43885 41.7779 5.33766 42.3851C5.05939 43.8776 5.23647 45.3448 5.48944 46.8373C5.64122 47.6974 5.8183 48.5322 6.12186 49.367C6.42543 50.2018 6.6784 51.0113 7.08315 51.7955C8.39859 54.3758 10.1947 56.526 12.4967 58.2968C14.3181 59.6882 16.3165 60.6494 18.4921 61.2819C20.0858 61.7625 21.8313 61.8637 23.5515 61.9649Z" fill="#DAE185"/>
<path d="M23.855 38.6914C24.5127 38.0336 25.1705 37.4012 25.8282 36.7435C28.1808 34.3909 30.5081 32.0383 32.8607 29.7109C36.2505 26.3212 39.615 22.9567 43.0048 19.5669C43.0554 19.5163 43.0807 19.4657 43.1313 19.4151C43.0301 19.2633 42.8783 19.3392 42.7519 19.3392C40.8546 19.3392 38.9826 19.3139 37.0853 19.3392C36.7059 19.3392 36.6047 19.1874 36.6047 18.8586C36.6047 17.4672 36.6047 16.0506 36.6047 14.6593C36.6047 14.2798 36.7312 14.1533 37.0853 14.1533C38.2743 14.1533 39.4632 14.1533 40.6775 14.1533C44.1938 14.1533 47.7101 14.1533 51.2263 14.1533C52.0864 14.1533 52.0864 14.1533 52.0864 15.0387C52.0864 17.9226 52.0864 20.8317 52.0864 23.7156C52.0864 25.4864 52.0864 27.2571 52.0864 29.0532C52.0864 29.4833 51.9852 29.6604 51.5299 29.6351C50.1386 29.6098 48.7219 29.6098 47.3306 29.6351C46.9764 29.6351 46.9258 29.5086 46.9258 29.205C46.9258 27.1813 46.9258 25.1575 46.9258 22.982C40.3739 29.5086 33.9232 35.9593 27.4725 42.41C27.6749 42.5871 27.8519 42.5365 28.0037 42.5365C29.8504 42.5365 31.6718 42.5618 33.5185 42.5365C33.9485 42.5365 34.0244 42.663 34.0244 43.0677C33.9991 44.4844 33.9991 45.901 34.0244 47.3176C34.0244 47.6212 33.9485 47.7224 33.6449 47.7224C28.7373 47.6971 23.855 47.6971 18.9474 47.6971C18.5933 47.6971 18.568 47.5453 18.568 47.267C18.568 42.3847 18.568 37.5277 18.5427 32.6454C18.5427 32.3165 18.6439 32.2659 18.9474 32.2659C20.3893 32.2659 21.806 32.2659 23.2479 32.2406C23.6021 32.2406 23.7032 32.3418 23.7032 32.696C23.7032 34.6945 23.7285 36.7182 23.7538 38.7167C23.7791 38.7926 23.8297 38.7673 23.855 38.6914Z" fill="#AFCA1F"/>
<path d="M23.855 38.6914C23.8044 38.7673 23.7791 38.7673 23.7285 38.6914C23.7791 38.6914 23.8044 38.6914 23.855 38.6914Z" fill="#DAE185"/>
</svg>
