<svg width="69" height="69" viewBox="0 0 69 69" fill="none" xmlns="http://www.w3.org/2000/svg">
<path d="M0.0255737 65.5295C0.0255737 44.6338 0.0255737 23.7381 0.0255737 2.84243C0.153611 2.71439 0.153611 2.50953 0.204826 2.35589C0.460901 1.51084 0.947442 0.870654 1.71567 0.40972C2.04856 0.20486 2.43268 0.153645 2.79118 0C23.7381 0 44.685 0 65.6575 0C66.0673 0.153645 66.477 0.20486 66.8611 0.435327C68.0646 1.15234 68.5 2.25346 68.5 3.58505C68.5 20.8445 68.5 38.1039 68.5 55.3634C68.5 58.5387 68.5 61.7396 68.5 64.9149C68.5 65.6064 68.3975 66.2721 68.0134 66.8611C67.322 67.911 66.3489 68.372 65.0942 68.372C46.1702 68.372 27.2463 68.372 8.348 68.372C6.6323 68.372 4.94221 68.3976 3.22651 68.372C2.02296 68.3464 1.1267 67.783 0.512116 66.7331C0.256041 66.349 0.204826 65.9392 0.0255737 65.5295ZM64.7357 34.2372C64.7357 24.2759 64.7357 14.3146 64.7357 4.37888C64.7357 3.73869 64.7357 3.73869 64.1211 3.73869C44.1985 3.73869 24.3015 3.73869 4.37884 3.73869C3.73866 3.73869 3.73866 3.73869 3.73866 4.35327C3.73866 24.2759 3.73866 44.1729 3.73866 64.0955C3.73866 64.7357 3.73866 64.7357 4.35324 64.7357C24.2759 64.7357 44.1729 64.7357 64.0955 64.7357C64.7357 64.7357 64.7357 64.7357 64.7357 64.1211C64.7357 54.1598 64.7357 44.1985 64.7357 34.2372Z" fill="#A2D8F6"/>
<path d="M2.76561 0.0253906C2.43271 0.179035 2.02299 0.23025 1.69009 0.43511C0.921869 0.870437 0.435327 1.53623 0.179252 2.38128C0.128037 2.53492 0.153645 2.73978 0 2.86782C0 1.92034 0 0.972867 0 0.0253906C0.947477 0.0253906 1.84374 0.0253906 2.76561 0.0253906Z" fill="#FEFEFE"/>
<path d="M57.5144 26.12C56.7718 26.8882 56.0291 27.682 55.2609 28.4502C49.8577 33.8278 44.4546 39.1798 39.077 44.5573C38.7697 44.8646 38.4368 45.1719 38.1039 45.4792C37.3357 46.1962 36.337 46.3243 35.3895 45.8121C34.8518 45.5048 34.4164 45.0951 33.9811 44.6598C31.0875 41.6637 28.2194 38.6676 25.3258 35.6459C25.0697 35.3643 24.9161 35.3643 24.6344 35.6203C20.6908 39.5127 16.7985 43.4562 12.8806 47.3742C12.0611 48.1936 11.2417 49.0386 10.3966 49.8581C9.70522 50.5239 8.91139 50.9848 7.88709 50.8056C6.12018 50.5239 5.27513 48.2704 6.40186 46.8876C6.50429 46.7596 6.60672 46.6315 6.73476 46.5291C12.1123 41.1259 17.5155 35.7228 22.8931 30.3196C23.3796 29.833 23.8662 29.4233 24.5832 29.3465C25.5562 29.2441 26.2989 29.6282 26.9647 30.3196C28.706 32.1377 30.4729 33.9558 32.2142 35.7484C33.5202 37.1056 34.8518 38.4372 36.1577 39.7943C36.4138 40.076 36.5675 40.0504 36.8235 39.7943C39.794 36.9007 42.7645 33.9558 45.6837 30.9854C48.014 28.6039 50.4467 26.2736 52.8282 23.9177C53.2379 23.508 53.6989 23.1239 54.1342 22.5861C53.7501 22.5605 53.4428 22.5349 53.1355 22.5349C49.4992 22.4837 45.8886 22.5605 42.2523 22.5861C41.6634 22.5861 41.0744 22.5861 40.4854 22.4325C39.4099 22.1252 38.5905 20.9985 38.7185 19.9742C38.8465 18.7706 39.8196 17.7975 40.972 17.7207C41.8938 17.6439 42.8413 17.6439 43.7632 17.6439C49.7041 17.6439 55.645 17.6439 61.586 17.6439C62.6359 17.6439 62.5847 17.4646 62.5847 18.617C62.5847 24.6347 62.5847 30.6525 62.5847 36.6702C62.5847 37.4897 62.5591 38.3347 62.5078 39.1542C62.4566 40.4601 61.586 41.4076 60.3312 41.4844C58.9484 41.5613 57.8985 40.7418 57.6936 39.4102C57.6168 38.8981 57.6168 38.3859 57.6168 37.8482C57.6168 34.1351 57.6168 30.4476 57.6168 26.7345C57.6168 26.5809 57.6168 26.4016 57.6168 26.248C57.5912 26.1968 57.5656 26.1456 57.5144 26.12Z" fill="#E41B4C"/>
</svg>
