<svg width="73" height="71" viewBox="0 0 73 71" fill="none" xmlns="http://www.w3.org/2000/svg">
<path d="M72.0099 65.2736H71.9573H71.9048C71.9048 65.1685 71.8785 65.0634 71.8785 64.9583C71.8785 57.5247 71.8785 50.0649 71.8785 42.6313C71.8785 42.4212 71.8785 42.1847 71.9048 41.9746C71.9311 41.9746 71.9573 41.9746 71.9836 41.9746C72.0099 49.7497 72.0099 57.5248 72.0099 65.2736Z" fill="#A8D3AF"/>
<path d="M28.9843 0C28.9843 0.0262671 28.9843 0.0525343 28.9843 0.0788014C28.8793 0.0788014 28.8005 0.105068 28.6954 0.105068C21.183 0.105068 13.6969 0.105068 6.18447 0.105068C6.0794 0.105068 5.97433 0.105069 5.86926 0.0788014C5.86926 0.0525343 5.86926 0.0262671 5.86926 0C13.5918 0 21.2881 0 28.9843 0Z" fill="#A8D3AF"/>
<path d="M34.7893 53.6118C34.7893 57.3417 34.7893 61.0716 34.7893 64.8016C34.7893 67.5596 32.9769 69.9499 30.3765 70.7379C29.7986 70.8955 29.2207 71.0006 28.6428 71.0006C21.1567 71.0006 13.6706 71.0006 6.18443 71.0006C3.08491 71.0006 0.484466 68.6628 0.0904592 65.5896C0.0379249 65.1956 0.0116577 64.8278 0.0116577 64.4338C0.0116577 57.1316 0.0116577 49.8293 0.0116577 42.5533C0.0116577 40.7671 0.642069 39.2436 1.92916 37.9828C3.11118 36.8533 4.5296 36.2492 6.1319 36.2492C13.618 36.2229 21.1042 36.2229 28.5903 36.2492C32.1889 36.2755 34.8156 39.1386 34.8156 42.5008C34.7893 46.1782 34.7893 49.8818 34.7893 53.6118ZM17.3742 67.0605C21.0779 67.0605 24.7553 67.0343 28.459 67.0868C29.7723 67.1131 30.9018 65.9836 30.8755 64.644C30.823 57.2892 30.8493 49.9344 30.8493 42.5796C30.8493 41.0823 29.9037 40.1367 28.4064 40.1367C21.0516 40.1367 13.6968 40.1367 6.34204 40.1367C4.87108 40.1367 3.89919 41.0823 3.89919 42.5533C3.89919 49.9344 3.92546 57.2892 3.87293 64.6702C3.87293 66.0099 5.02868 67.1393 6.31577 67.1131C10.0194 67.0343 13.6968 67.0605 17.3742 67.0605Z" fill="#A8D3AF"/>
<path d="M5.86925 0.0791016C5.97431 0.0791016 6.07938 0.105369 6.18445 0.105369C13.6969 0.105369 21.183 0.105369 28.6954 0.105369C28.8005 0.105369 28.8793 0.105369 28.9843 0.0791016C32.1364 0.262971 34.7631 2.94222 34.7631 6.09427C34.7894 13.6592 34.7894 21.2504 34.7631 28.8153C34.7631 32.1775 31.9525 34.8305 28.4327 34.8568C21.0779 34.883 13.7231 34.883 6.36832 34.8568C3.21626 34.8568 0.773421 32.8867 0.14301 29.8923C0.0642086 29.5246 0.0116743 29.1305 0.0116743 28.7365C0.0116743 21.2241 -0.0145929 13.7117 0.0116743 6.19934C0.0116743 2.91595 2.63839 0.236704 5.86925 0.0791016ZM30.8756 17.4942C30.8756 13.8168 30.8756 10.1394 30.8756 6.46201C30.8756 4.93852 29.9299 3.96664 28.4064 3.96664C21.0517 3.96664 13.7231 3.96664 6.36832 3.96664C4.84483 3.96664 3.89921 4.93852 3.89921 6.46201C3.89921 13.7905 3.89921 21.1191 3.89921 28.4476C3.89921 30.0236 4.84483 30.9692 6.44712 30.9692C13.7494 30.9692 21.0516 30.9692 28.3276 30.9692C29.9299 30.9692 30.8756 30.0499 30.8756 28.4476C30.8756 24.7702 30.8756 21.1191 30.8756 17.4942Z" fill="#4E897C"/>
<path d="M71.9574 41.975C71.9574 42.1852 71.9311 42.4216 71.9311 42.6317C71.9311 50.0653 71.9311 57.5252 71.9311 64.9588C71.9311 65.0638 71.9311 65.1689 71.9574 65.274C71.7472 68.3472 69.0942 70.9477 65.9947 70.9739C58.3773 71.0002 50.7861 71.0002 43.1686 70.9739C39.9377 70.9739 37.2585 68.2159 37.2059 64.9588C37.1797 61.5966 37.2059 58.2606 37.2059 54.8984C37.2059 50.7482 37.2059 46.598 37.2059 42.4478C37.2059 39.4008 39.2022 36.958 42.1704 36.3276C42.5644 36.2488 42.9847 36.1962 43.3787 36.1962C50.8386 36.1962 58.3247 36.17 65.7846 36.1962C69.0417 36.2225 71.7472 38.7442 71.9574 41.975ZM54.5423 67.0864C58.1934 67.0864 61.8445 67.0339 65.4957 67.1127C67.1242 67.1389 68.1224 65.9569 68.1224 64.5122C68.0961 57.2362 68.0961 49.9865 68.0961 42.7105C68.0961 41.0557 67.1767 40.1363 65.5219 40.1363C58.2459 40.1363 50.9699 40.1363 43.6677 40.1363C42.0128 40.1363 41.0935 41.0557 41.0935 42.7105C41.0935 49.9865 41.0935 57.2625 41.0935 64.5647C41.0935 66.1933 42.0128 67.1127 43.6414 67.1127C47.2663 67.0864 50.8911 67.0864 54.5423 67.0864Z" fill="#4E897C"/>
<path d="M71.9311 17.4419C71.9311 21.1718 71.9048 24.928 71.9311 28.6579C71.9574 31.5998 69.6721 34.3316 66.6251 34.7782C66.3362 34.8307 66.021 34.8044 65.7321 34.8044C58.2722 34.8044 50.8386 34.7782 43.3787 34.8307C39.9903 34.857 37.1534 31.9676 37.1797 28.6317C37.206 21.1718 37.206 13.7382 37.1797 6.27833C37.1534 2.88987 40.0165 0.0530154 43.3787 0.0792825C50.8386 0.10555 58.2985 0.0792825 65.7846 0.0792825C68.8578 0.0792825 71.4583 2.33826 71.9048 5.38524C71.9574 5.72672 71.9311 6.06819 71.9311 6.40966C71.9311 10.0871 71.9311 13.7645 71.9311 17.4419ZM68.0961 17.4419C68.0961 13.7907 68.0961 10.1133 68.0961 6.4622C68.0961 4.9387 67.0979 3.94055 65.5745 3.94055C58.2459 3.94055 50.9174 3.94055 43.5889 3.94055C42.0916 3.94055 41.0672 4.96497 41.0672 6.4622C41.0672 13.7645 41.0672 21.093 41.0672 28.3953C41.0672 29.9713 42.0654 30.9432 43.6414 30.9432C50.9437 30.9432 58.2197 30.9432 65.5219 30.9432C67.1242 30.9432 68.0698 29.9713 68.0698 28.369C68.0961 24.7441 68.0961 21.093 68.0961 17.4419Z" fill="#A8D3AF"/>
</svg>
