<svg width="72" height="72" viewBox="0 0 72 72" fill="none" xmlns="http://www.w3.org/2000/svg">
<path d="M31.1345 0C31.8168 0.252715 32.5244 0.202172 33.2067 0.303258C39.0697 1.16249 44.1998 3.51273 48.6223 7.45509C51.8318 10.3108 54.1568 13.773 55.9005 17.69C57.2146 20.6468 57.9475 23.7299 58.2002 26.9394C58.7562 34.3187 56.6839 40.9398 52.3372 46.8786C51.9834 47.3587 51.6044 47.7884 51.2253 48.218C51.0231 48.4707 50.9473 48.6476 51.2253 48.9003C51.7813 49.431 52.312 49.987 52.8427 50.5429C53.0448 50.7704 53.247 50.8462 53.5755 50.7451C55.2434 50.2902 56.6334 50.7704 57.8211 51.9834C61.7888 55.9763 65.7816 59.9439 69.7493 63.9368C70.9876 65.1751 71.2908 66.6409 70.7601 68.2835C69.7998 71.1139 66.1355 71.9984 64.0126 69.9009C61.0306 66.9694 58.0991 63.9874 55.1171 61.0306C54.081 59.9945 53.0196 58.9331 51.9582 57.8969C50.7198 56.6839 50.2144 55.2687 50.7198 53.5755C50.7957 53.2975 50.7199 53.1206 50.5429 52.9437C50.0122 52.4383 49.4563 51.9582 49.0014 51.4022C48.6729 51.0231 48.4454 51.0989 48.1169 51.3769C46.0194 53.1965 43.6944 54.6875 41.1672 55.7994C37.8567 57.2652 34.4197 58.1244 30.8059 58.3013C23.3761 58.6804 16.6792 56.5828 10.8667 51.9076C5.50918 47.5862 2.09753 42.0517 0.657058 35.3042C0.404343 34.167 0.227443 33.0045 0.101086 31.8421C0.101086 31.741 0.101086 31.6652 0 31.6146C0 30.2247 0 28.8348 0 27.4448C0.151629 27.3437 0.101086 27.1921 0.101086 27.0405C0.303258 24.6144 0.68233 22.2136 1.46575 19.9139C3.18421 14.9102 6.01461 10.6646 10.0075 7.20237C14.3289 3.43692 19.3327 1.13722 25.0188 0.328529C25.6758 0.227443 26.3581 0.277986 26.9899 0.0252716C27.2174 0.0252716 27.4195 0.0252716 27.647 0.0252716C28.3041 0.277986 28.9611 0.101086 29.6182 0.126357C29.972 0.151629 30.3763 0.252715 30.7301 0.0252716C30.8312 9.60265e-08 30.9828 0 31.1345 0ZM5.00375 29.0875C4.87739 42.9868 16.5275 53.4239 29.2138 53.3481C42.4055 53.2723 53.3228 42.4308 53.2975 29.0875C53.2723 16.3001 42.7088 4.72577 28.5568 5.02902C15.5925 5.28174 4.95321 16.0474 5.00375 29.0875Z" fill="#58A7B3"/>
<path d="M30.6796 0C30.3258 0.227443 29.9467 0.101086 29.5676 0.101086C28.9106 0.0758143 28.2535 0.252715 27.5964 0C28.6326 0 29.6687 0 30.6796 0Z" fill="#66C3CF"/>
<path d="M32.4485 16.907C32.3727 19.2067 32.12 21.4811 31.9431 23.7808C31.7662 25.7267 31.6398 27.6726 31.4629 29.6185C31.3618 30.7557 31.2608 31.9182 30.907 33.0049C30.5532 34.0663 29.9972 34.4454 28.9863 34.4706C28.2787 34.4706 27.7733 34.1674 27.4448 33.5356C26.9646 32.6258 26.8382 31.615 26.7624 30.6294C26.5855 28.355 26.4592 26.0805 26.2823 23.8061C26.0801 20.9504 25.8779 18.0947 25.8779 15.2138C25.8779 13.6217 26.8635 12.3581 28.3293 11.979C30.5784 11.3978 32.0694 12.4845 32.3474 14.8853C32.4232 15.5423 32.4485 16.2246 32.4485 16.907Z" fill="#66C3CF"/>
<path d="M29.138 38.1602C31.008 38.1854 32.4738 39.6764 32.4485 41.5718C32.4233 43.3914 31.008 44.756 29.1632 44.7307C27.091 44.7055 25.8274 43.3661 25.8527 41.218C25.8779 39.5501 27.369 38.1602 29.138 38.1602Z" fill="#66C3CF"/>
</svg>
