<svg width="72" height="80" viewBox="0 0 72 80" fill="none" xmlns="http://www.w3.org/2000/svg">
<path d="M37.2361 0.0289776C38.5401 0.376708 39.8441 0.69546 41.1481 1.04319C45.4657 2.20229 49.7254 3.50628 54.0141 4.78129C58.5925 6.17221 63.2 7.59211 67.8364 8.83814C68.7636 9.09894 69.6619 9.41769 70.3864 10.0842C71.2557 10.8376 71.5165 11.7938 71.4296 12.866C71.4006 13.3586 71.2847 13.8802 71.1688 14.3728C70.7341 16.1984 69.4591 16.807 67.6915 16.6331C65.75 16.4592 63.9244 15.7058 62.0698 15.1842C56.2743 13.5325 50.5368 11.7359 44.7703 9.93929C42.1333 9.12792 39.4674 8.40348 36.7145 7.99779C35.4105 7.79495 34.1645 8.02677 32.9184 8.3745C26.1377 10.345 19.357 12.2285 12.6052 14.3149C10.4319 14.9814 8.25859 15.7348 5.99834 16.1405C4.78129 16.3723 3.56423 16.5172 2.34718 16.2854C1.13012 16.0825 0.289776 15.445 0.0869334 14.17C0.0869334 14.141 0.0289775 14.112 0 14.0541C0 13.7064 0 13.3586 0 13.0109C0.11591 12.9529 0.086933 12.8081 0.11591 12.7211C0.289776 11.9098 0.405685 11.0984 0.927281 10.4029C1.62274 9.50462 2.60798 9.06996 3.65117 8.72223C5.158 8.20064 6.72278 7.96882 8.25859 7.50518C13.3007 6.02732 18.3138 4.46254 23.3849 3.04264C26.8042 2.08638 30.1946 1.13012 33.6719 0.46364C34.4543 0.318753 35.2367 0.173865 36.048 0C36.3958 0.0289775 36.8014 0.0289776 37.2361 0.0289776Z" fill="#BAC174"/>
<path d="M25.0075 49.5518C25.0075 40.7426 25.0075 31.9045 25.0075 23.0953C25.0075 22.4578 25.0075 22.4578 24.3989 22.5737C23.4427 22.7765 22.5154 22.9794 21.5591 23.1533C21.2694 23.2112 21.1824 23.3561 21.1824 23.6459C21.1824 24.8339 21.1824 25.993 21.1824 27.1811C21.0665 43.0318 21.0955 58.9115 21.0955 74.7622C21.0955 75.3707 21.0375 75.4287 20.429 75.3128C17.6472 74.7622 14.9233 73.9798 12.2574 73.0525C11.8517 72.9076 11.8227 72.6758 11.8227 72.3281C11.8227 63.9246 11.8227 55.5211 11.8227 47.1177C11.8227 40.4528 11.8227 33.788 11.8227 27.0942C11.8227 26.3698 11.8227 26.3987 11.1272 26.4567C10.3448 26.5436 9.53347 26.6016 8.75108 26.4567C7.50504 26.2538 6.49083 25.0078 6.37492 23.7328C6.28799 22.5447 6.86754 21.1248 8.25846 20.6322C10.5767 19.8208 12.9238 19.0674 15.271 18.343C19.5597 17.039 23.8773 15.793 28.224 14.5759C30.3973 13.9674 32.5706 13.3589 34.7729 12.8662C35.5843 12.6924 36.3956 12.8952 37.178 13.0691C40.9741 13.9094 44.7122 15.0106 48.4503 16.1407C52.5071 17.3577 56.564 18.4879 60.6498 19.618C61.7799 19.9367 62.939 20.2265 63.8953 20.951C64.7066 21.5305 65.2282 22.3419 65.2572 23.3561C65.3152 24.6601 64.6197 25.6163 63.3447 26.109C62.6492 26.3698 61.8958 26.5436 61.1424 26.4857C60.6788 26.4567 60.5339 26.5726 60.5629 27.0652C60.5918 29.1516 60.5629 31.238 60.5629 33.3244C60.5629 39.8733 60.6208 46.4222 60.5339 52.9711C60.4759 59.4331 60.5049 65.8951 60.4759 72.3571C60.4759 72.7338 60.36 72.8787 60.0123 72.9656C57.3174 73.69 54.6225 74.4145 51.9276 75.1679C51.5219 75.2838 51.406 75.2258 51.406 74.7912C51.4349 70.4445 51.377 66.0979 51.435 61.7513C51.4929 58.6217 51.4349 55.4922 51.5219 52.3336C51.6668 45.7557 51.6088 39.1778 51.5798 32.5999C51.5798 30.5715 51.4929 28.5431 51.377 26.4857C51.348 25.7033 51.319 24.9209 51.1452 24.1675C51.0872 23.8777 50.9423 23.6748 50.6815 23.5589C49.7832 23.0663 48.827 22.8635 47.8417 22.6896C47.465 22.6317 47.494 22.8635 47.494 23.1243C47.494 25.7902 47.523 28.4851 47.494 31.151C47.3491 46.1034 47.465 61.0848 47.4071 76.0372C47.4071 76.4429 47.2912 76.5878 46.9145 76.6747C44.1616 77.4571 41.4087 78.2685 38.6848 79.0509C38.424 79.1378 38.3371 79.1088 38.3371 78.819C38.3371 78.7031 38.3371 78.5583 38.3371 78.4423C38.3371 69.3434 38.3661 60.2445 38.3081 51.1745C38.2212 40.8875 38.2792 30.6005 38.2502 20.3135C38.2502 19.9367 38.1343 19.7919 37.7865 19.676C36.8303 19.3572 35.874 19.2123 34.8888 19.3572C34.5411 19.4152 34.4251 19.5311 34.4251 19.9078C34.4541 21.1248 34.4251 22.3419 34.4251 23.53C34.4251 28.3982 34.4541 33.2374 34.3962 38.1056C34.2803 47.6972 34.3962 57.3177 34.2803 66.9093C34.2513 70.8213 34.2513 74.7332 34.2223 78.6452C34.2223 79.1088 34.0484 79.1668 33.6717 79.1088C30.9479 78.5583 28.2819 77.8048 25.645 76.8776C25.1813 76.7327 25.0364 76.4719 25.0364 75.9793C25.0075 67.1701 25.0075 58.3609 25.0075 49.5518Z" fill="#B8C499"/>
</svg>
