<svg width="64" height="64" viewBox="0 0 64 64" fill="none" xmlns="http://www.w3.org/2000/svg">
<path d="M42.4007 0C42.7579 0.11909 43.1152 0.0952716 43.4725 0.11909C45.9495 0.309633 47.7835 1.52435 48.9982 3.66796C49.4984 4.57304 49.7128 5.54957 49.7604 6.57374C49.8795 8.57445 49.8319 10.5752 49.7842 12.552C49.7604 13.8144 49.808 15.0767 49.8557 16.3391C49.9033 18.2445 49.9748 20.1738 49.5222 22.0554C48.6886 25.6519 45.6161 27.1286 43.1628 27.1524C42.1387 27.1524 41.1145 27.1524 40.0903 27.1524C39.6378 27.1524 39.2805 27.2953 38.9471 27.6288C37.2084 29.3675 35.4935 31.1062 33.7548 32.8449C33.4451 33.1545 33.1593 33.4642 32.8021 33.6785C32.0637 34.1311 31.2063 34.0834 30.5155 33.5832C29.5152 32.8211 28.6339 31.916 27.7527 31.0109C26.7047 29.9629 25.6567 28.9149 24.6325 27.8193C24.0371 27.2001 23.3702 27.0571 22.5365 27.1286C21.1313 27.2477 19.726 27.2953 18.3446 26.8666C15.677 26.033 13.7954 23.6512 13.6286 20.8645C13.5334 19.2211 13.581 17.5538 13.581 15.9104C13.581 13.076 13.581 10.2655 13.581 7.43119C13.581 6.57374 13.6763 5.74012 13.9145 4.90649C14.6766 2.33415 16.4392 0.833627 19.0115 0.238179C19.7498 0.0714537 20.4882 0.0714539 21.2504 0.047636C21.7982 0.047636 22.346 0.047636 22.9176 0.047636C23.132 0.047636 23.3702 0.0952716 23.5607 0C25.49 0 27.4192 0 29.3485 0C29.4675 0.0952716 29.6343 0.047636 29.7534 0.047636C31.4921 0.047636 33.207 0.047636 34.9457 0.047636C35.9222 0.047636 36.8987 0.047636 37.8514 0.047636C38.2802 0.047636 38.7089 0.11909 39.1376 0C40.2332 0 41.305 0 42.4007 0ZM31.7064 4.54922C29.9201 4.54922 28.1337 4.54922 26.3474 4.54922C24.3705 4.54922 22.3936 4.54922 20.4167 4.66831C19.464 4.73976 18.7257 5.02558 18.3684 5.97829C18.2493 6.26411 18.1779 6.54992 18.154 6.85956C18.0349 7.76464 18.1302 8.66972 18.1302 9.55098C18.154 12.5997 18.1779 15.6245 18.0826 18.6732C18.0588 19.4592 18.0588 20.2452 18.2731 20.9836C18.5113 21.841 19.0353 22.3888 19.9404 22.5556C20.512 22.6508 21.0836 22.7223 21.6553 22.7223C22.5365 22.7223 23.394 22.7223 24.2752 22.6508C25.3709 22.5794 26.2521 22.9843 26.9905 23.7465C27.8241 24.6039 28.6577 25.4613 29.4914 26.3188C30.1344 26.9857 30.7775 27.6526 31.4921 28.2719C31.6588 28.4148 31.7779 28.4148 31.9208 28.2719C32.159 28.0337 32.421 27.8193 32.6591 27.5811C34.0644 26.1759 35.4935 24.7468 36.8749 23.3415C37.3036 22.889 37.8276 22.6746 38.4469 22.6508C38.8518 22.6508 39.2805 22.6508 39.6854 22.6508C40.7572 22.6508 41.8529 22.7699 42.9247 22.6746C44.2346 22.5556 44.9492 21.9601 45.1635 20.6978C45.235 20.3643 45.235 20.0309 45.235 19.6974C45.235 17.9111 45.235 16.1009 45.235 14.3146C45.235 12.1709 45.2112 10.0512 45.2826 7.90755C45.3065 7.19301 45.2588 6.47847 44.9492 5.83539C44.6395 5.1923 44.187 4.81122 43.4248 4.73976C42.4007 4.64449 41.3527 4.59686 40.3285 4.57304C37.4704 4.5254 34.5884 4.54922 31.7064 4.54922Z" fill="#CB6F3C"/>
<path d="M34.9219 0.047636C33.1832 0.047636 31.4683 0.047636 29.7296 0.047636C29.5867 0.047636 29.4438 0.0952716 29.3247 0C31.1825 0 33.0641 0 34.9219 0C34.9219 0.0238179 34.9219 0.0238181 34.9219 0.047636Z" fill="#FBD4A6"/>
<path d="M34.9219 0.047636C34.9219 0.0238181 34.9219 0.0238179 34.9219 0C35.8984 0 36.8749 0 37.8515 0C37.8515 0.0238179 37.8515 0.0238181 37.8515 0.047636C36.8749 0.047636 35.8984 0.047636 34.9219 0.047636Z" fill="#FEFEFE"/>
<path d="M23.5608 0C23.3465 0.0952716 23.1321 0.047636 22.9177 0.047636C22.3699 0.047636 21.8221 0.047636 21.2505 0.047636C21.2505 0.0238181 21.2505 0 21.2505 0C22.0127 0 22.7987 0 23.5608 0Z" fill="#FBD4A6"/>
<path d="M37.8516 0.047636C37.8516 0.0238181 37.8516 0.0238179 37.8516 0C38.2803 0 38.709 0 39.1377 0C38.709 0.11909 38.2803 0.047636 37.8516 0.047636Z" fill="#FBD4A6"/>
<path d="M24.8946 56.2817C24.8946 54.0904 24.9184 51.8754 24.8946 49.6841C24.8708 47.993 24.442 46.3734 23.4655 44.9682C22.9891 44.2775 22.3937 43.6582 21.7982 43.0389C19.3212 40.3951 16.725 37.8466 14.1765 35.2743C13.8669 34.9647 13.6049 34.655 13.2953 34.3454C12.7236 33.7976 11.89 33.869 11.5089 34.5359C11.2707 34.917 11.3184 35.3219 11.5804 35.703C12.0567 36.4414 12.6284 37.1083 13.1523 37.8228C14.5814 39.8235 16.1534 41.7051 17.5825 43.7058C18.2017 44.5633 18.4161 45.4683 17.8445 46.4211C17.1299 47.612 15.415 47.8978 14.4385 46.9451C13.5334 46.04 12.7713 45.0158 12.0091 43.9916C10.6991 42.2291 9.48439 40.3951 8.10295 38.6564C7.29314 37.6561 6.95969 36.489 6.91205 35.2267C6.76915 30.868 6.88824 26.5093 6.86442 22.1506C6.86442 21.8172 6.88824 21.5075 6.79296 21.1741C6.65006 20.6977 6.24515 20.3881 5.72116 20.3881C5.17335 20.3881 4.86371 20.6501 4.72081 21.1741C4.60172 21.6266 4.53026 22.0553 4.55408 22.5317C4.64935 26.8189 4.60172 31.1062 4.60172 35.3934C4.60172 36.6557 4.50644 37.8943 4.55408 39.1566C4.60172 40.4904 4.81608 41.8004 5.45916 43.0151C5.84025 43.7058 6.36424 44.2775 6.86442 44.8729C7.84095 46.0638 8.81749 47.2309 9.81784 48.4218C10.6753 49.4459 11.5565 50.4701 12.414 51.5181C13.1285 52.3755 13.8192 53.233 14.5338 54.0904C14.7958 54.4239 15.0816 54.7335 15.3436 55.067C15.7485 55.5433 15.9152 56.115 15.9152 56.7342C15.9152 58.8302 15.9152 60.9262 15.9152 63.0221C15.9152 63.2603 15.8676 63.3556 15.6056 63.3556C14.3194 63.3318 13.0094 63.3318 11.7233 63.3556C11.4375 63.3556 11.366 63.2603 11.366 62.9983C11.3898 61.8313 11.366 60.6404 11.366 59.4733C11.366 59.116 11.4136 58.7587 11.4136 58.4253C11.4375 57.7822 11.2231 57.2106 10.8182 56.7342C9.31766 54.9955 7.91241 53.1854 6.41188 51.4466C5.45916 50.351 4.55408 49.1839 3.60136 48.0645C2.91065 47.2547 2.19611 46.4449 1.67211 45.516C0.933759 44.2536 0.409765 42.896 0.24304 41.4193C0.12395 40.538 0.0524968 39.6568 0.0524968 38.7517C0.0524968 38.1086 -0.0189571 37.4894 0.00486079 36.8463C0.147768 31.8921 0.0286789 26.938 0.0524968 21.9839C0.0524968 20.2452 0.528855 18.697 1.81502 17.4585C2.76774 16.5296 3.93482 16.0294 5.26862 15.9341C6.95969 15.8151 8.46022 16.3152 9.67493 17.4585C10.5324 18.2683 11.104 19.2687 11.2469 20.4595C11.5327 22.7223 11.4136 25.0088 11.4136 27.2715C11.4136 27.9384 11.4136 28.5815 11.366 29.2484C11.366 29.4865 11.4375 29.558 11.6756 29.558C12.5331 29.5342 13.3905 29.5818 14.2242 29.7724C14.9625 29.9391 15.6056 30.3202 16.1534 30.7965C17.1061 31.6063 17.9397 32.5352 18.7734 33.4641C18.9877 33.6785 19.2021 33.8928 19.4165 34.1072C21.179 35.8936 22.9653 37.6799 24.7278 39.4901C25.6806 40.4666 26.5856 41.4908 27.3478 42.634C28.4196 44.2298 29.0627 45.9923 29.3009 47.8978C29.42 48.8267 29.4676 49.7556 29.4676 50.7083C29.4676 52.4946 29.4438 54.281 29.4914 56.0673C29.5391 57.4964 29.5391 58.9493 29.5152 60.3784C29.4914 61.2834 29.4676 62.1885 29.4676 63.1174C29.4676 63.308 29.42 63.3556 29.2294 63.3556C27.8718 63.3556 26.4904 63.3318 25.1328 63.308C24.9184 63.308 24.9184 63.1889 24.9184 63.046C24.9184 62.1409 24.9184 61.212 24.9184 60.3069C24.8946 58.9493 24.8946 57.6155 24.8946 56.2817Z" fill="#FBD4A6"/>
<path d="M63.3368 27.5336C63.3368 29.6058 63.2892 31.6779 63.3606 33.7263C63.4083 35.5126 63.4321 37.3228 63.3844 39.1091C63.3368 40.8002 63.1701 42.4913 62.5032 44.0871C62.0268 45.2065 61.3837 46.2068 60.6216 47.1596C59.0496 49.065 57.4776 50.9466 55.9056 52.852C54.7862 54.1858 53.6667 55.5196 52.5235 56.8535C52.2615 57.1631 52.0948 57.5204 52.0709 57.9253C52.0471 58.3778 52.0233 58.8542 52.0948 59.3305C52.0948 59.402 52.1186 59.4496 52.1186 59.5211C52.0948 60.7358 52.1662 61.9267 52.0709 63.1414C52.0471 63.3319 51.9995 63.4034 51.8089 63.4034C50.7848 63.4034 49.7606 63.4034 48.7364 63.3796C48.4506 63.3796 48.141 63.3319 47.8552 63.3319C47.617 63.3557 47.5455 63.2605 47.5455 63.0223C47.5694 62.3554 47.5455 61.7123 47.5455 61.0454C47.5455 59.6401 47.5694 58.2587 47.5455 56.8535C47.5217 56.1151 47.7599 55.5196 48.2363 54.9718C49.5939 53.3522 50.9515 51.7564 52.2853 50.1368C53.6191 48.5172 54.9767 46.9452 56.3343 45.3256C57.0489 44.492 57.7872 43.6583 58.2398 42.6342C58.5494 41.8958 58.74 41.1336 58.8352 40.3238C58.9305 39.4187 58.9781 38.5375 58.9543 37.6324C58.8352 33.2499 58.9305 28.8674 58.9067 24.4849C58.9067 23.8657 58.9781 23.2464 58.9543 22.6271C58.9305 22.1746 58.9067 21.7459 58.7876 21.3171C58.6209 20.6979 58.2874 20.4359 57.6443 20.4835C57.1442 20.5073 56.7393 20.9122 56.644 21.46C56.5725 21.9126 56.5487 22.3889 56.644 22.8415C56.6678 22.9368 56.644 23.032 56.644 23.1035C56.644 26.7238 56.644 30.3679 56.644 33.9883C56.644 34.7981 56.5725 35.6079 56.4534 36.3939C56.2629 37.4657 55.6674 38.3469 55.0244 39.2044C53.8573 40.7287 52.714 42.2769 51.5469 43.8012C50.8324 44.754 50.1417 45.7067 49.4033 46.6117C48.4506 47.8026 47.2121 47.8979 46.045 46.9452C45.2352 46.2783 45.0923 44.9921 45.7116 44.0632C46.5452 42.8485 47.4741 41.6814 48.3553 40.5144C49.5462 38.9186 50.761 37.3704 51.8804 35.727C52.2139 35.2268 52.0948 34.5599 51.7851 34.2741C51.3088 33.8692 50.6657 33.893 50.2131 34.3217C48.9984 35.5364 47.7599 36.7511 46.569 37.9897C46.0212 38.5613 45.4734 39.1091 44.9256 39.6807C43.7823 40.8716 42.5914 42.0149 41.472 43.2296C40.4478 44.3014 39.5427 45.4685 39.0664 46.8976C38.8044 47.7312 38.6853 48.5886 38.6376 49.4461C38.5424 51.2324 38.5186 53.0188 38.59 54.7813C38.6615 57.3536 38.6138 59.926 38.6376 62.4983C38.6376 62.6174 38.6138 62.7603 38.59 62.8794C38.5424 63.3319 38.5424 63.3319 38.066 63.3319C36.8513 63.3319 35.6128 63.3319 34.3981 63.3319C34.1599 63.3319 34.0884 63.2843 34.0884 63.0223C33.9932 60.3785 33.9932 57.7109 34.0646 55.0671C34.1122 53.1855 34.0408 51.3039 34.1122 49.4223C34.2313 46.5165 35.1126 43.8727 36.9466 41.5862C37.5658 40.824 38.2089 40.0856 38.8996 39.3949C40.7098 37.5609 42.5438 35.727 44.3539 33.893C45.1876 33.0355 45.9497 32.1543 46.7834 31.2968C47.5932 30.4632 48.5697 29.8678 49.7368 29.6772C50.4275 29.5581 51.142 29.5105 51.8566 29.5343C52.0948 29.5343 52.1662 29.4629 52.1662 29.2247C52.1662 26.8667 52.1186 24.5087 52.1662 22.1508C52.19 21.0551 52.2615 19.9357 52.8093 18.9115C53.6667 17.2919 55.0005 16.3154 56.7869 15.9819C58.859 15.6008 60.6454 16.1725 62.0506 17.7683C62.789 18.6019 63.313 19.5784 63.4321 20.7455C63.4797 21.1504 63.4797 21.5553 63.4797 21.9602C63.3368 23.818 63.3368 25.6758 63.3368 27.5336Z" fill="#FBD4A6"/>
<path d="M24.8946 15.8867C23.6323 15.8867 22.6558 14.8864 22.6558 13.5764C22.6558 12.314 23.6799 11.3613 25.0137 11.3613C26.2046 11.3613 27.1335 12.3855 27.1335 13.6955C27.1573 15.0055 26.2523 15.8867 24.8946 15.8867Z" fill="#CB6F3C"/>
<path d="M33.9692 13.6478C33.9692 14.9102 32.9451 15.9105 31.6589 15.8867C30.4204 15.8867 29.4438 14.8626 29.4438 13.5526C29.4438 12.314 30.4442 11.3613 31.7542 11.3613C32.9689 11.3613 33.9692 12.3855 33.9692 13.6478Z" fill="#CB6F3C"/>
<path d="M40.6621 13.6717C40.7098 14.9102 39.8047 15.9105 38.3994 15.8867C37.1609 15.8867 36.232 14.8626 36.2558 13.6002C36.2796 12.2664 37.2085 11.3851 38.5662 11.3613C39.8047 11.3613 40.6859 12.3855 40.6621 13.6717Z" fill="#FBD4A6"/>
</svg>
