<svg width="72" height="52" viewBox="0 0 72 52" fill="none" xmlns="http://www.w3.org/2000/svg">
<path d="M45.8233 11.6753C38.0396 11.6753 30.2309 11.6753 22.4472 11.6753C21.1667 11.6753 20.6394 11.148 20.6394 9.8675C20.6394 8.61207 20.6394 7.35664 20.6394 6.10122C20.6394 4.99644 21.242 4.41895 22.3217 4.41895C27.3434 4.41895 32.3902 4.41895 37.4119 4.41895C47.9826 4.41895 58.5784 4.41895 69.1491 4.41895C70.4798 4.41895 71.0322 4.97133 71.0322 6.30209C71.0322 7.5324 71.0322 8.76272 71.0322 9.99304C71.0322 11.0727 70.4296 11.7004 69.35 11.7004C61.5412 11.6753 53.6822 11.6753 45.8233 11.6753Z" fill="#5DA595"/>
<path d="M45.8733 23.1999C53.6569 23.1999 61.4657 23.225 69.2493 23.1748C70.555 23.1748 71.1074 24.0285 71.0822 25.0077C71.032 26.238 71.0822 27.4935 71.0822 28.7489C71.0822 29.8537 70.4796 30.4312 69.4 30.4312C53.7071 30.4312 38.0143 30.4312 22.3215 30.4312C21.2418 30.4312 20.6894 29.8537 20.6643 28.7991C20.6643 27.4684 20.6643 26.1376 20.6643 24.832C20.6643 23.7774 21.2418 23.1999 22.2964 23.1999C30.1553 23.1999 38.0143 23.1999 45.8733 23.1999Z" fill="#66C2CF"/>
<path d="M45.7983 48.7359C37.9393 48.7359 30.1054 48.7108 22.2465 48.761C21.3928 48.761 20.6144 48.0328 20.6395 47.154C20.7148 45.8484 20.6646 44.5176 20.6646 43.212C20.6646 42.0319 21.1919 41.5046 22.3469 41.5046C25.5106 41.5046 28.6742 41.5046 31.8379 41.5046C44.342 41.5046 56.846 41.5046 69.3501 41.4795C70.4799 41.4795 71.1077 42.283 71.0826 43.2371C71.0574 44.4925 71.0574 45.7479 71.0826 47.0034C71.1077 47.9575 70.4548 48.7359 69.3752 48.7359C61.5162 48.7359 53.6572 48.7359 45.7983 48.7359Z" fill="#D5E8D7"/>
<path d="M0.0253906 7.43213C0.0253906 3.31433 3.38993 0 7.50773 0C11.5753 0 14.965 3.41476 14.9148 7.45724C14.8896 11.6001 11.5502 14.9145 7.45752 14.9145C3.33972 14.9145 0.0253906 11.575 0.0253906 7.43213Z" fill="#5CA595"/>
<path d="M7.43213 18.807C11.2486 18.7317 14.8894 21.7949 14.8894 26.214C14.9145 30.5327 11.3742 33.6713 7.48234 33.6713C3.33944 33.6713 0 30.3821 0 26.2643C0.0251085 22.1213 3.31433 18.807 7.43213 18.807Z" fill="#66C2CF"/>
<path d="M14.8644 44.5677C15.015 48.5851 11.4747 52.025 7.40715 51.9998C3.46511 51.9747 -0.0249739 48.6604 0.00013465 44.5175C0.0252432 40.475 3.38979 37.0854 7.50759 37.1105C11.4747 37.1356 15.015 40.475 14.8644 44.5677Z" fill="#D5E8D7"/>
</svg>
