<svg width="58" height="65" viewBox="0 0 58 65" fill="none" xmlns="http://www.w3.org/2000/svg">
<path d="M14.8152 46.6157C14.8152 42.0972 14.8152 37.5787 14.8152 33.0195C14.8152 32.816 14.8152 32.5718 14.8152 32.3682C14.8152 31.5134 14.6116 31.3505 13.7568 31.3505C10.5002 31.3505 7.20293 31.3505 3.94635 31.3505C3.29504 31.3505 2.68443 31.3505 2.03311 31.1877C-0.0836662 30.6992 -0.368616 28.8267 0.364114 27.4834C0.56765 27.0763 0.852601 26.7506 1.17826 26.425C3.6614 23.7383 6.34808 21.2144 8.91263 18.6092C11.4365 16.0853 13.9603 13.6022 16.4435 10.9969C19.5779 7.74034 22.8345 4.60589 25.969 1.34931C26.2539 1.06436 26.5796 0.779408 26.9052 0.535165C28.045 -0.197565 29.3884 -0.197567 30.4875 0.657285C30.7724 0.860821 31.0167 1.10507 31.2609 1.34931C35.9422 6.03064 40.6236 10.6713 45.2642 15.434C48.8464 19.0977 52.5101 22.7206 56.0923 26.3843C56.5808 26.9135 56.9879 27.4833 57.1914 28.1754C57.5171 29.3966 56.9472 30.5364 55.8074 30.9842C55.1153 31.2691 54.4233 31.3098 53.6906 31.3098C52.3473 31.3098 51.0039 31.3098 49.6199 31.3098C47.6659 31.3098 45.6713 31.3098 43.7173 31.3098C43.5138 31.3098 43.3102 31.3098 43.1474 31.3098C42.6996 31.3912 42.5368 31.5541 42.4961 31.9611C42.4554 32.2461 42.4961 32.4903 42.4961 32.7753C42.4961 41.8123 42.4961 50.8086 42.4961 59.8456C42.4961 60.5783 42.4554 61.2704 42.2926 61.9624C41.9669 63.4278 40.9899 64.2827 39.4838 64.4048C39.2395 64.4048 38.9953 64.4048 38.751 64.4048C31.9936 64.4048 25.2769 64.4048 18.5195 64.4048C18.1125 64.4048 17.7054 64.4048 17.2576 64.2827C15.955 63.957 15.1815 63.1429 14.9373 61.8402C14.8559 61.2703 14.8152 60.6597 14.8152 60.0898C14.8152 55.6935 14.8152 51.1343 14.8152 46.6157ZM55.2782 29.0709C55.3596 28.9081 55.3189 28.8267 55.2375 28.7453C54.5861 28.0533 53.9755 27.3612 53.3242 26.7099C48.3986 21.6215 43.2695 16.7366 38.3847 11.6075C35.413 8.47307 32.2786 5.46074 29.2255 2.4077C29.1034 2.28558 29.022 2.20416 28.8999 2.08204C28.6963 1.91921 28.4928 1.91921 28.33 2.08204C28.2079 2.20416 28.0857 2.32628 27.9636 2.4484C26.2946 4.1174 24.6663 5.8271 23.038 7.4961C19.7001 10.9155 16.3214 14.2535 12.9426 17.6322C9.36041 21.2144 5.9003 24.9188 2.27736 28.4603C2.11453 28.6231 1.91099 28.7046 1.9517 29.0302C2.19594 29.1523 2.48089 29.1116 2.72513 29.1116C7.16222 29.1116 11.64 29.1116 16.0771 29.1116C17.1762 29.1116 17.0541 29.0302 17.0541 30.0886C17.0541 40.4282 17.0541 50.8086 17.0541 61.1482C17.0541 61.3518 17.0541 61.5553 17.0541 61.7181C17.0948 62.1659 17.1762 62.2473 17.624 62.288C17.7868 62.288 17.9496 62.288 18.1532 62.288C23.1602 62.288 28.1264 62.288 33.1334 62.288C35.2909 62.288 37.4484 62.288 39.6466 62.288C40.2165 62.288 40.2165 62.288 40.2572 61.7181C40.2572 61.5553 40.2572 61.3925 40.2572 61.1889C40.2572 50.7679 40.2572 40.3875 40.2572 29.9665C40.2572 28.9895 40.2165 29.0709 41.1935 29.0709C45.6713 29.0709 50.1491 29.0709 54.6269 29.0709C54.8304 29.1116 55.0746 29.1931 55.2782 29.0709Z" fill="#A7E060"/>
<path d="M55.2781 29.0706C55.0746 29.1927 54.7896 29.1113 54.5454 29.1113C50.0676 29.1113 45.5898 29.1113 41.112 29.1113C40.135 29.1113 40.1757 29.0299 40.1757 30.0068C40.1757 40.4279 40.1757 50.8082 40.1757 61.2293C40.1757 61.3921 40.1757 61.5549 40.1757 61.7585C40.1757 62.3284 40.135 62.3284 39.5651 62.3284C37.4077 62.3284 35.2502 62.3284 33.052 62.3284C28.045 62.3284 23.0787 62.3284 18.0717 62.3284C17.9089 62.3284 17.7461 62.3284 17.5425 62.3284C17.054 62.2877 16.9726 62.2063 16.9726 61.7585C16.9726 61.5549 16.9726 61.3514 16.9726 61.1886C16.9726 50.8489 16.9726 40.4686 16.9726 30.129C16.9726 29.0299 17.054 29.152 15.9957 29.152C11.5586 29.152 7.08077 29.152 2.64368 29.152C2.39944 29.152 2.11449 29.1927 1.87025 29.0706C1.82954 28.7449 2.07378 28.6635 2.1959 28.5007C5.81884 24.9591 9.27896 21.2548 12.8612 17.6725C16.2399 14.2938 19.6186 10.9558 22.9566 7.53644C24.5849 5.86745 26.2132 4.11703 27.8822 2.48874C28.0043 2.36662 28.1264 2.2445 28.2485 2.12238C28.4521 1.91884 28.6556 1.91884 28.8184 2.12238C28.9406 2.20379 29.022 2.32592 29.1441 2.44804C32.1971 5.50108 35.3316 8.51341 38.3032 11.6479C43.1881 16.777 48.3172 21.6618 53.2428 26.7503C53.8941 27.4016 54.5047 28.1343 55.156 28.7856C55.3188 28.8263 55.3595 28.9077 55.2781 29.0706ZM4.67904 27.8493C4.96399 28.0122 5.24895 27.9308 5.5339 27.9308C9.52321 27.9308 13.5125 27.9308 17.5018 27.9308C18.2346 27.9308 18.2346 27.9308 18.2346 28.6635C18.2346 28.8263 18.2346 28.9484 18.2346 29.1113C18.2346 39.4102 18.2346 49.7091 18.2346 60.0488C18.2346 60.2116 18.2346 60.3744 18.2346 60.578C18.2346 61.1479 18.2753 61.1479 18.8045 61.1886C18.9266 61.1886 19.0487 61.1886 19.1708 61.1886C25.4804 61.1886 31.8308 61.1886 38.1404 61.1886C39.1174 61.1886 39.0359 61.2293 39.0359 60.2523C39.0359 49.8313 39.0359 39.4102 39.0359 28.9485C39.0359 27.8494 38.9545 27.9715 40.0129 27.9715C43.9615 27.9715 47.9508 27.9715 51.8994 27.9715C52.103 27.9715 52.3879 28.0936 52.5508 27.8493C52.5508 27.6865 52.4286 27.6051 52.3472 27.5237C51.2074 26.3432 50.0676 25.1627 48.9278 23.9822C43.7173 18.6088 38.3032 13.4797 33.1741 8.02493C31.9529 6.7223 30.691 5.50108 29.429 4.27986C28.6556 3.50643 28.8184 3.46572 28.045 4.27986C21.0841 11.2001 14.2045 18.2017 7.32501 25.1627C6.63299 25.8954 5.90026 26.5874 5.20824 27.3202C4.96399 27.4016 4.71975 27.5237 4.67904 27.8493Z" fill="#A0DF50"/>
<path d="M4.67896 27.8501C4.71966 27.5245 4.96391 27.4023 5.12674 27.2395C5.81876 26.5068 6.55149 25.8148 7.24351 25.082C14.1637 18.1211 21.0433 11.1194 28.0042 4.19922C28.7776 3.42578 28.6148 3.42578 29.3882 4.19922C30.6502 5.46114 31.9121 6.68236 33.1333 7.94428C38.2624 13.3583 43.6765 18.5282 48.887 23.9015C50.0268 25.082 51.1666 26.2625 52.3064 27.443C52.3878 27.5245 52.4692 27.6059 52.51 27.7687C52.3471 28.0129 52.0622 27.8908 51.8586 27.8908C47.91 27.8908 43.9207 27.8908 39.9721 27.8908C38.873 27.8908 38.9952 27.8094 38.9952 28.8678C38.9952 39.2888 38.9952 49.7099 38.9952 60.1717C38.9952 61.1486 39.0766 61.1079 38.0996 61.1079C31.79 61.1079 25.4396 61.1079 19.13 61.1079C19.0079 61.1079 18.8858 61.1079 18.7637 61.1079C18.2345 61.1079 18.1938 61.0672 18.1938 60.4973C18.1938 60.3345 18.1938 60.1717 18.1938 59.9681C18.1938 49.6692 18.1938 39.3703 18.1938 29.0306C18.1938 28.8678 18.1938 28.7457 18.1938 28.5828C18.1938 27.8501 18.1938 27.8501 17.461 27.8501C13.4717 27.8501 9.48241 27.8501 5.4931 27.8501C5.24886 27.9315 4.96391 28.0129 4.67896 27.8501ZM36.797 43.441C36.797 39.0039 36.797 34.6075 36.797 30.1704C36.797 29.6819 36.797 29.1935 36.8377 28.705C36.9191 27.8094 37.2447 27.036 37.9368 26.4661C38.5067 25.9776 39.1987 25.8148 39.9314 25.7741C41.9261 25.6926 43.9207 25.774 45.9154 25.7333C46.2817 25.7333 46.7702 25.8555 46.8924 25.4484C47.0552 25.0413 46.6074 24.8378 46.3632 24.5935C44.9791 23.1281 43.5544 21.7033 42.1296 20.2786C38.0182 16.0857 33.866 11.9336 29.7139 7.78145C29.5511 7.61862 29.3475 7.41509 29.1847 7.29297C28.7776 6.96731 28.5334 6.96731 28.1263 7.29297C28.0042 7.37438 27.9228 7.4965 27.8007 7.57792C23.9742 11.4451 20.107 15.353 16.2805 19.2202C14.5301 21.0113 12.739 22.8024 10.9886 24.5528C10.785 24.7564 10.6222 24.9192 10.4594 25.1634C10.3373 25.4077 10.378 25.6112 10.6629 25.6519C10.8665 25.6926 11.1107 25.7333 11.3142 25.7333C11.9248 25.7333 12.5355 25.7333 13.1461 25.7333C14.5708 25.7333 15.9956 25.6926 17.4203 25.7741C18.9265 25.8555 19.9035 26.7103 20.3105 28.1758C20.4734 28.8271 20.4327 29.4784 20.4327 30.1704C20.4327 39.2889 20.4327 48.3666 20.4327 57.485C20.4327 57.7292 20.4327 57.9735 20.4327 58.2177C20.4734 58.7469 20.6769 58.9504 21.2061 58.9912C21.4096 58.9912 21.6132 58.9912 21.776 58.9912C25.4804 58.9912 29.144 58.9912 32.8484 58.9912C33.866 58.9912 34.8837 58.9912 35.8607 58.9912C36.512 58.9912 36.7155 58.7876 36.7155 58.1363C36.7155 57.9328 36.7155 57.6885 36.7155 57.485C36.797 52.7629 36.797 48.1223 36.797 43.441Z" fill="#A7E060"/>
</svg>
