<svg width="70" height="69" viewBox="0 0 70 69" fill="none" xmlns="http://www.w3.org/2000/svg">
<path d="M27.2905 13.5204C27.8883 13.1336 28.4509 12.7116 29.0136 12.2896C31.4048 10.5665 33.7609 8.84341 36.1169 7.12032C38.895 5.1159 41.673 3.07632 44.4511 1.07191C44.9434 0.72026 45.4708 0.368608 46.0687 0.157617C47.0884 -0.158869 48.0731 0.0169576 48.9874 0.544435C49.9368 1.10708 50.8159 1.81038 51.6951 2.44335C53.6995 3.88512 55.6687 5.32689 57.638 6.76866C60.9435 9.15989 64.2842 11.5863 67.5897 13.9775C68.082 14.3292 68.5392 14.6808 68.926 15.138C69.6996 16.0171 69.9106 17.0017 69.6645 18.127C69.4183 19.3226 68.9612 20.4479 68.5743 21.6083C67.7304 24.2457 66.8512 26.9183 65.9721 29.5557C65.2688 31.7007 64.5655 33.8458 63.8622 36.0261C63.3347 37.6437 62.8424 39.2612 62.2798 40.8788C61.9633 41.758 61.471 42.4964 60.627 42.9536C60.0292 43.2701 59.4314 43.3756 58.7633 43.3756C57.1808 43.3756 55.5984 43.3756 54.016 43.3756C53.6292 43.3756 53.2072 43.3756 52.8204 43.3756C46.9126 43.3756 41.0049 43.3756 35.062 43.3756C34.5697 43.3756 34.1125 43.2701 33.6905 43.0591C32.7059 42.5668 32.1433 41.758 31.8268 40.7382C31.2641 39.0151 30.7015 37.3272 30.1388 35.6041C29.1542 32.5447 28.1344 29.4853 27.1498 26.426C26.6223 24.8435 26.13 23.2611 25.6025 21.7138C25.2157 20.5534 24.8289 19.4281 24.5124 18.2677C24.4773 17.9863 24.4069 17.7402 24.4069 17.4589C24.3718 16.2984 24.8992 15.3841 25.8135 14.6808C26.3058 14.2588 26.7982 13.872 27.2905 13.5204ZM58.7984 38.2766C58.8688 38.2063 58.8688 38.1008 58.9039 38.0305C59.1149 37.3623 59.3259 36.6942 59.5369 36.0612C60.2754 33.8106 60.9787 31.5952 61.7171 29.3447C62.5259 26.8831 63.3347 24.4216 64.1084 21.9952C64.4952 20.7995 64.882 19.6039 65.2688 18.4083C65.4798 17.7402 65.4095 17.5644 64.882 17.1775C62.2798 15.2786 59.6776 13.3797 57.0753 11.516C53.9456 9.26539 50.8159 6.97965 47.6862 4.72908C47.2291 4.37743 46.9478 4.37743 46.4555 4.69392C46.35 4.76425 46.2796 4.79942 46.1742 4.86975C45.1895 5.60821 44.2049 6.31152 43.2203 7.04998C40.829 8.77308 38.4378 10.5313 36.0466 12.2544C35.4839 12.6412 34.9213 13.0281 34.3938 13.4852C33.7257 13.9072 33.0927 14.3995 32.4597 14.8918C31.3696 15.6654 30.2795 16.4742 29.1894 17.283C28.8026 17.5644 28.7322 17.8457 28.8729 18.2677C28.8729 18.338 28.9081 18.4083 28.9081 18.4787C29.2246 19.4984 29.541 20.5182 29.8927 21.5029C30.6663 23.8589 31.4048 26.1798 32.1784 28.5359C33.0576 31.2084 33.9367 33.9161 34.8158 36.5887C35.0268 37.2568 35.2378 37.9601 35.4839 38.6283C35.6598 39.1206 35.8708 39.2612 36.3982 39.2612C36.4686 39.2612 36.5389 39.2612 36.6444 39.2612C42.3411 39.2612 48.0379 39.2612 53.7347 39.2612C53.8401 39.2612 53.9456 39.2612 54.0511 39.2612C55.3522 39.2612 56.6534 39.2612 57.9545 39.2612C58.0248 39.2612 58.0951 39.2612 58.1655 39.2261C58.6226 39.0854 58.6929 38.6634 58.7984 38.2766Z" fill="#D86594"/>
<path d="M34.6399 58.6377C35.9762 60.9586 37.3476 63.3147 38.6839 65.6356C38.9652 66.1279 39.2114 66.6554 39.1059 67.2532C39.0356 67.7455 38.7191 68.0972 38.2619 68.2378C37.9806 68.3433 37.6641 68.3785 37.3476 68.3785C25.497 68.3785 13.6112 68.3785 1.76051 68.3785C1.54952 68.3785 1.33853 68.3433 1.12754 68.3082C0.318742 68.1675 -0.138404 67.429 0.0374213 66.6202C0.178082 66.0224 0.529732 65.4949 0.811053 64.9675C2.32315 62.3301 3.83525 59.6927 5.38252 57.0553C7.00012 54.2421 8.65288 51.3937 10.2705 48.5805C11.3958 46.6113 12.521 44.642 13.6815 42.6728C13.7167 42.6024 13.7518 42.5321 13.7518 42.4969C13.8222 42.4618 13.8573 42.3915 13.8925 42.3563C14.9123 40.598 15.9321 38.8398 16.9518 37.0815C17.4793 36.2024 17.9013 35.2881 18.5343 34.5145C18.7101 34.3386 18.9211 34.198 19.1673 34.1276C19.8706 33.9167 20.5387 34.2331 20.9607 34.9716C21.4178 35.7101 21.8398 36.4837 22.2969 37.2573C23.6684 39.6486 25.075 42.0398 26.4464 44.431C27.8179 46.7871 29.1542 49.108 30.5256 51.4641C31.0179 52.308 31.5102 53.1168 31.9674 53.9608C32.0025 54.0311 32.0025 54.1014 32.0377 54.1366C32.53 55.0157 33.0575 55.8949 33.5498 56.774C33.9014 57.3718 34.2531 58.0048 34.6399 58.6377ZM18.3585 40.9497C18.253 40.9848 18.2178 41.0552 18.1826 41.1607C17.7958 41.8288 17.409 42.5321 17.0222 43.2003C16.2134 44.5717 15.4397 45.9431 14.631 47.3146C14.3145 47.8772 13.9628 48.475 13.6463 49.0377C13.4002 49.4596 13.154 49.8816 12.9079 50.3388C11.4309 52.9058 9.95399 55.508 8.44189 58.0751C7.17594 60.2553 5.94516 62.4356 4.67922 64.6158C4.36273 65.1785 4.3979 65.284 5.06603 65.284C14.7716 65.284 24.442 65.284 34.1476 65.284C34.2531 65.284 34.3586 65.284 34.4641 65.284C34.6751 65.284 34.7454 65.1433 34.6751 64.9323C34.6399 64.862 34.6047 64.7916 34.5696 64.6861C33.4091 62.6466 32.2135 60.6422 31.0531 58.6026C31.0531 58.5674 31.0179 58.5322 31.0179 58.4971C30.3849 57.407 29.7871 56.352 29.1542 55.2619C28.8728 54.8047 28.6267 54.3124 28.3102 53.8904C28.3102 53.8553 28.275 53.8201 28.275 53.785C27.4662 52.3784 26.6574 50.9717 25.8135 49.5651C24.442 47.1739 23.0706 44.7827 21.6991 42.4266C21.1013 41.4068 20.5387 40.4222 19.9409 39.4024C19.6596 38.9453 19.4837 38.9453 19.2376 39.4376C19.0266 39.8244 18.7804 40.2112 18.5694 40.598C18.4288 40.7035 18.3585 40.809 18.3585 40.9497Z" fill="#D86594"/>
<path d="M34.6398 58.6367C34.2882 58.0037 33.9014 57.3707 33.5497 56.7377C33.0222 55.8586 32.5299 54.9795 32.0376 54.1004C32.0024 54.03 31.9673 53.9597 31.9673 53.9245C32.0376 53.9245 32.1431 53.9245 32.2134 53.9245C37.3476 53.9245 42.5168 53.9245 47.6509 53.9245C49.5147 53.9245 51.3784 53.9245 53.2774 53.9245C53.84 53.9245 54.0862 53.7135 54.0862 53.1509C54.0862 49.9157 54.0862 46.6453 54.0862 43.4102C55.6686 43.4102 57.251 43.4102 58.8335 43.4102C58.8335 47.419 58.8335 51.3926 58.8335 55.4015C58.8335 56.0696 58.728 56.7377 58.3763 57.3355C57.884 58.1092 57.1455 58.4608 56.2664 58.5663C55.7038 58.6367 55.1411 58.6015 54.6136 58.6015C48.1081 58.6015 41.6025 58.6015 35.0618 58.6015C34.886 58.6015 34.7453 58.6015 34.6398 58.6367Z" fill="#9EC2E3"/>
<path d="M18.4639 34.5141C17.8309 35.3229 17.4089 36.2372 16.8814 37.0812C15.8616 38.8394 14.8419 40.5977 13.8221 42.3559C13.7869 42.4263 13.7517 42.4614 13.6814 42.4966C13.6111 42.3911 13.6462 42.2856 13.6462 42.1801C13.6462 33.7756 13.6462 25.3712 13.6462 16.9667C13.6462 16.5096 13.6814 16.0524 13.7869 15.6304C14.0682 14.47 14.8067 13.8018 15.9671 13.5908C16.3188 13.5205 16.7056 13.4854 17.0573 13.4854C20.3628 13.4854 23.6331 13.4854 26.9387 13.4854C27.0442 13.4854 27.1497 13.4854 27.2552 13.4854C26.7628 13.8722 26.2705 14.2238 25.8134 14.6106C24.9343 15.3139 24.4068 16.2282 24.4068 17.3887C24.4068 17.67 24.4771 17.9162 24.5123 18.1975C23.4573 18.1975 22.4024 18.1975 21.3474 18.1975C20.6089 18.1975 19.8705 18.1975 19.0968 18.1975C18.6749 18.1975 18.4287 18.4085 18.3584 18.725C18.3232 18.9359 18.288 19.1821 18.288 19.3931C18.288 24.3162 18.288 29.2393 18.288 34.1625C18.288 34.2328 18.288 34.3031 18.288 34.4086C18.3584 34.4789 18.3935 34.5141 18.4639 34.5141Z" fill="#9EC2E3"/>
<path d="M54.0512 39.2262C54.0512 34.3734 54.0512 29.5558 54.0512 24.703C54.0512 22.8745 54.0512 21.0459 54.0512 19.2173C54.0512 19.1118 54.0512 19.0063 54.0512 18.9008C54.016 18.4436 53.805 18.2678 53.383 18.2327C53.2424 18.2327 53.1017 18.2327 52.961 18.2327C44.9434 18.2327 36.9257 18.2327 28.9433 18.2327C28.7674 17.8107 28.8729 17.5293 29.2597 17.248C30.3499 16.4392 31.44 15.6656 32.5301 14.8568C33.1631 14.3997 33.796 13.9073 34.4642 13.4502C34.6048 13.4502 34.7455 13.4502 34.8862 13.4502C41.673 13.4502 48.4247 13.4502 55.2116 13.4502C55.6688 13.4502 56.1259 13.4854 56.583 13.5557C57.5325 13.7315 58.2358 14.2238 58.6226 15.1381C58.8336 15.6304 58.904 16.1227 58.904 16.6502C58.904 18.3381 58.904 20.0261 58.904 21.714C58.904 27.2349 58.904 32.7207 58.904 38.2416C58.7985 38.6284 58.7281 39.0504 58.271 39.1559C58.2006 39.1911 58.1303 39.1911 58.06 39.1911C56.6534 39.2614 55.3523 39.2262 54.0512 39.2262Z" fill="#9EC2E3"/>
<path d="M31.0178 58.6021C30.8772 58.6021 30.7717 58.6021 30.631 58.6021C26.0947 58.6021 21.5936 58.6021 17.0573 58.6021C16.4946 58.6021 15.8968 58.5318 15.3693 58.3208C14.4199 57.934 13.9276 57.1955 13.7869 56.2109C13.7517 55.9296 13.7166 55.6131 13.7166 55.3318C13.7166 53.3273 13.7166 51.3229 13.7166 49.3185C13.7166 49.2482 13.8221 49.0724 13.6111 49.0372C13.9276 48.4746 14.2441 47.8767 14.5957 47.3141C15.4045 45.9427 16.1781 44.5712 16.9869 43.1998C17.3738 42.5316 17.7606 41.8283 18.1474 41.1602C18.1826 41.0899 18.2177 40.9844 18.3232 40.9492C18.3232 41.0547 18.3584 41.1954 18.3584 41.3009C18.3584 45.169 18.3584 49.0372 18.3584 52.9405C18.3584 53.7142 18.5342 53.9252 19.343 53.9252C22.2265 53.9252 25.1101 53.9252 27.9936 53.9252C28.0991 53.9252 28.1694 53.9252 28.2749 53.9252C28.5914 54.3471 28.8376 54.8394 29.1189 55.2966C29.7519 56.3867 30.3849 57.4417 30.9827 58.5318C30.9827 58.567 30.9827 58.6021 31.0178 58.6021Z" fill="#9EC2E3"/>
</svg>
