<svg width="61" height="53" viewBox="0 0 61 53" fill="none" xmlns="http://www.w3.org/2000/svg">
<path d="M50.9944 25.3741C50.8824 25.598 50.9198 25.8219 50.9198 26.0458C50.9198 27.9488 50.8824 29.8146 50.9198 31.7176C50.9571 33.3595 50.2108 34.6282 49.054 35.673C48.2331 36.4566 47.2256 36.7924 46.0688 36.7924C35.8446 36.7924 25.6203 36.7924 15.396 36.7924C13.8288 36.7924 12.6347 36.0835 11.7018 34.8521C11.0302 33.9192 10.6197 32.8744 10.657 31.6803C10.6943 29.7399 10.657 27.7622 10.657 25.8219C10.657 25.598 10.657 25.3741 10.657 25.1502C10.4331 24.9636 10.3212 25.1129 10.1719 25.1875C8.49277 26.0084 6.92555 27.0159 5.5449 28.2473C4.7986 28.919 4.16425 29.7026 3.67915 30.5609C2.37313 32.8371 2.67165 35.1879 4.31351 37.3522C5.58221 39.0313 7.26138 40.2254 9.08981 41.2329C12.2243 42.9494 15.6199 43.9942 19.1275 44.7405C19.7992 44.8898 20.4708 45.0017 21.1052 45.1136C21.2918 45.151 21.4783 45.2256 21.6649 45.0763C21.5903 44.7032 21.2918 44.4047 21.1052 44.0688C20.8067 43.5837 20.5082 43.136 20.2469 42.6509C19.7992 41.7926 20.2469 40.8598 21.1798 40.6359C21.7769 40.5239 22.2619 40.7478 22.5605 41.1956C23.6426 42.9121 24.7247 44.6286 25.7695 46.345C26.1427 46.9421 25.9934 47.5764 25.471 48.0615C25.3964 48.1362 25.2844 48.2108 25.2098 48.2854C23.4187 49.4795 21.5903 50.6736 19.7992 51.8676C19.2768 52.2035 18.7544 52.3154 18.2319 51.9423C17.7095 51.6064 17.523 51.1213 17.5976 50.487C17.6722 50.0765 17.8588 49.8153 18.1946 49.5914C18.829 49.181 19.4633 48.7332 20.0977 48.3227C20.2843 48.2108 20.4708 48.1362 20.5828 47.9496C20.5455 47.7257 20.3962 47.8003 20.2469 47.763C16.3662 47.0913 12.5601 46.0465 9.01518 44.2927C6.77629 43.2106 4.68666 41.8673 2.93286 40.0388C1.81341 38.8448 0.88054 37.5014 0.395447 35.8969C-0.388165 33.3968 0.0223006 31.0833 1.36564 28.8817C2.59702 26.8667 4.38814 25.3741 6.36582 24.1054C7.52258 23.3591 8.71666 22.6874 10.0227 22.2023C10.4705 22.0158 10.5824 21.7919 10.5824 21.3068C10.5451 17.3887 10.5824 13.4333 10.5824 9.51529C10.5824 8.24658 10.9182 7.08982 11.8138 6.11964C12.672 5.22408 13.7168 4.7763 14.9482 4.7763C16.5155 4.73899 18.0827 4.7763 19.6126 4.7763C20.0231 4.7763 20.2843 4.66436 20.4708 4.25389C20.732 3.65686 21.0306 3.09713 21.3291 2.50009C22.1873 0.85824 23.568 0 25.4337 0C28.8667 0 32.337 0 35.7699 0C37.561 0 38.9044 0.783613 39.7626 2.35084C40.0984 2.98519 40.4716 3.61954 40.7701 4.25389C40.9567 4.62704 41.1433 4.7763 41.5537 4.73898C43.1209 4.70167 44.7255 4.73898 46.2927 4.73898C47.4122 4.73898 48.3823 5.14945 49.2406 5.85843C50.1735 6.64204 50.6585 7.68686 50.7332 8.91825C50.7705 9.25408 50.7332 9.62723 50.7332 9.96306C50.7332 13.7692 50.7332 17.6126 50.7332 21.4187C50.7332 21.9784 50.8824 22.2396 51.4048 22.4635C53.793 23.583 56.0319 24.9636 57.8603 26.904C59.0171 28.0981 59.9873 29.4787 60.3977 31.1206C60.9948 33.4341 60.8082 35.673 59.5395 37.7999C58.3827 39.7776 56.7409 41.2702 54.8751 42.5016C52.3004 44.2554 49.4272 45.4495 46.4793 46.3824C43.3075 47.3899 40.0238 47.9496 36.7028 48.3227C36.2923 48.36 35.9192 48.3974 35.5087 48.4347C34.6878 48.5093 34.0161 47.9869 33.9415 47.2033C33.8669 46.5316 34.352 45.8226 35.1356 45.7107C36.255 45.5614 37.3371 45.4868 38.4566 45.3002C43.0836 44.6286 47.5614 43.4718 51.7407 41.2702C53.3079 40.412 54.7632 39.4045 55.9573 38.0985C56.4423 37.5761 56.8528 37.0163 57.1886 36.4193C58.3827 34.2923 58.2335 32.2027 56.9274 30.1504C56.3677 29.2922 55.696 28.5832 54.9497 27.9115C53.8676 27.016 52.7109 26.2323 51.4795 25.598C51.3302 25.5234 51.1436 25.4487 50.9571 25.3741C51.1063 25.3368 51.069 25.3741 50.9944 25.3741ZM30.7324 34.0311C35.3968 34.0311 40.0611 34.0311 44.6882 34.0311C45.1733 34.0311 45.6584 34.0311 46.1435 34.0311C46.6285 34.0311 47.0763 33.8446 47.4122 33.5087C47.8972 33.0236 48.1958 32.4266 48.1958 31.7176C48.1958 24.3666 48.1958 17.0529 48.1958 9.70186C48.1958 9.47797 48.1958 9.2914 48.1585 9.06751C48.0465 8.17195 47.4495 7.61223 46.5539 7.5376C46.33 7.5376 46.1061 7.5376 45.8449 7.5376C43.9046 7.5376 41.9642 7.5376 40.0611 7.5376C39.6133 7.5376 39.3895 7.38834 39.2029 7.01519C38.7178 6.00769 38.1954 5.03751 37.7103 4.03C37.2998 3.09713 36.5909 2.72398 35.6207 2.72398C34.1654 2.72398 32.6728 2.72398 31.2175 2.72398C29.4264 2.72398 27.6353 2.72398 25.8442 2.72398C24.9113 2.72398 24.2396 3.09713 23.8292 3.95537C23.3441 5.00019 22.7844 6.04501 22.2993 7.08982C22.15 7.42565 21.9261 7.57491 21.553 7.57491C20.844 7.5376 20.1723 7.57491 19.4633 7.57491C18.0454 7.57491 16.6274 7.57491 15.2094 7.57491C14.5751 7.57491 14.09 7.7988 13.7542 8.35853C13.5676 8.69436 13.5303 9.10482 13.5303 9.51529C13.5303 16.9783 13.5303 24.4785 13.5303 31.9415C13.5303 32.2027 13.5303 32.4639 13.6422 32.6878C14.0154 33.4714 14.5751 34.1058 15.7319 34.1058C20.6947 33.9938 25.7322 34.0311 30.7324 34.0311Z" fill="#AA78AB"/>
<path d="M40.4718 20.0382C40.5837 25.0757 36.3671 29.8147 30.6953 29.7774C25.1727 29.7401 20.9934 25.225 20.9934 20.0009C20.9934 14.8514 25.1727 10.2617 30.8072 10.2617C36.4418 10.299 40.5837 14.9634 40.4718 20.0382ZM30.7699 27.0161C34.4641 27.0907 37.7851 24.0682 37.7851 20.0382C37.7851 16.0082 34.5387 13.023 30.7699 13.023C27.3369 13.023 23.7547 15.6724 23.7547 20.0382C23.7547 24.2921 27.2623 27.0907 30.7699 27.0161Z" fill="#AA78AB"/>
</svg>
