<svg width="43" height="51" viewBox="0 0 43 51" fill="none" xmlns="http://www.w3.org/2000/svg">
<path d="M17.2061 7.08522C19.3716 7.11803 21.5044 7.31489 23.5715 8.03674C26.3276 8.98827 28.4276 10.7601 29.9369 13.2538C31.1837 15.2881 31.8728 17.552 32.4306 19.8488C32.8243 21.4238 33.054 23.0316 33.3165 24.6065C33.6446 26.5096 34.1039 28.3798 34.8914 30.1516C35.2523 30.9719 35.7117 31.6938 36.3351 32.35C37.0242 33.0718 37.8444 33.2031 38.7632 33.0062C39.0585 32.9406 39.3538 32.875 39.6491 32.8094C40.7647 32.514 42.0771 33.2687 42.4052 34.5812C42.6677 35.7296 42.0115 36.9764 40.7975 37.3373C39.8459 37.6326 38.8944 37.8295 37.9429 38.092C33.054 39.3388 28.1651 40.5528 23.2762 41.7997C22.7184 41.9309 22.7184 41.9309 22.784 42.5543C22.9153 43.7684 22.7184 44.9168 22.259 46.0323C21.1434 48.6573 19.1419 50.2322 16.353 50.6588C14.2202 50.9541 12.2516 50.4291 10.5454 49.051C9.52821 48.2307 8.77355 47.2136 8.31419 45.9995C8.21575 45.7042 8.08451 45.6386 7.75639 45.737C6.18145 46.1636 4.57369 46.5573 2.99874 46.9183C1.58785 47.2464 0.373829 46.4917 0.0457147 45.1136C-0.183965 44.0637 0.472262 42.8496 1.55504 42.4559C1.85034 42.3575 2.17846 42.259 2.50657 42.1934C3.06436 42.1278 3.55653 41.8653 3.98308 41.5044C4.14714 41.3731 4.31119 41.2091 4.44244 41.0122C4.80337 40.3888 5.00023 39.6997 5.03305 38.9779C5.1971 36.8123 4.77056 34.7452 4.17995 32.6781C3.65497 30.8407 2.96593 29.0689 2.50657 27.1986C2.08002 25.4596 1.75191 23.6878 1.65347 21.8832C1.55504 20.1442 1.75191 18.438 2.27689 16.7974C2.73625 15.3865 3.49091 14.1725 4.44244 13.0569C5.52522 11.8101 6.80486 10.7929 8.21575 9.907C8.31419 9.84137 8.41262 9.77575 8.51105 9.71013C8.67511 9.57888 8.70792 9.48045 8.51105 9.3492C8.15013 9.11952 7.85483 8.85703 7.55952 8.56173C5.95176 6.98678 5.59084 4.29625 6.96892 2.22913C8.47824 -0.00204771 11.6281 -0.756709 13.9577 0.883861C15.4343 1.93383 16.2217 3.41034 16.1561 5.24778C16.1561 5.73995 16.0249 6.23212 15.8608 6.69148C15.7624 6.98678 15.8608 7.0524 16.1561 7.0524C16.4842 7.0524 16.8451 7.08522 17.2061 7.08522ZM6.64081 40.9794C16.1233 38.617 25.4746 36.2546 34.9242 33.8921C34.3008 33.2031 33.8086 32.5469 33.4149 31.825C32.2993 29.7579 31.7415 27.5267 31.3478 25.2299C30.9869 23.1628 30.6916 21.0957 30.101 19.0942C29.5432 17.0927 28.7885 15.1568 27.6073 13.4506C26.2948 11.5804 24.4902 10.3992 22.3247 9.74294C20.4872 9.21796 18.617 9.11952 16.7139 9.11952C15.0077 9.11952 13.4 9.48045 11.8578 10.2351C11.3656 10.4648 10.9063 10.7273 10.4469 10.957C8.87198 11.7772 7.42828 12.7944 6.21426 14.1069C5.36116 14.9928 4.77056 16.0427 4.3112 17.1911C3.58935 19.0614 3.55653 21.0301 3.7534 22.9987C3.91746 24.7378 4.3112 26.4439 4.83618 28.0845C5.29554 29.6266 5.82052 31.1688 6.24707 32.7437C6.60799 34.0234 6.93611 35.3358 7.00173 36.6483C7.10016 38.0264 7.16579 39.4701 6.64081 40.9794ZM20.7497 43.4074C20.7497 43.2762 20.7497 43.1449 20.7497 43.0465C20.7497 42.4231 20.7497 42.3903 20.1591 42.5543C18.1248 43.0793 16.1233 43.5715 14.089 44.0965C12.9078 44.3918 11.6938 44.6871 10.5125 45.0152C10.086 45.1136 10.086 45.1464 10.2829 45.5402C10.3485 45.6386 10.3813 45.7699 10.4469 45.8683C11.5625 47.8698 13.9249 49.0182 16.2217 48.6244C18.6826 48.2307 20.7825 45.737 20.7497 43.4074ZM8.15013 5.05091C8.05169 6.82272 9.69226 8.06956 11.0703 8.03674C12.9078 8.00393 14.1218 6.52742 14.089 5.05091C14.089 3.50877 12.9734 1.99945 11.0375 2.03226C9.33134 2.03226 8.01888 3.47596 8.15013 5.05091ZM40.4037 35.0733C40.4037 34.8765 40.1741 34.7124 39.8787 34.778C39.4522 34.8765 38.9928 35.0077 38.5663 35.1062C31.5447 36.878 24.5558 38.6498 17.5342 40.4216C12.5797 41.6684 7.62515 42.9153 2.63781 44.1621C2.47376 44.1949 2.3097 44.2277 2.17846 44.2933C2.0144 44.359 1.94877 44.523 1.98159 44.6871C2.0144 44.8839 2.14564 44.9496 2.34251 44.9496C2.47376 44.9496 2.57219 44.8839 2.70344 44.8511C5.00024 44.2605 7.29703 43.6699 9.59383 43.1121C12.6125 42.3575 15.6311 41.6028 18.6498 40.8481C21.7669 40.0607 24.8839 39.2404 28.001 38.4529C31.9056 37.4686 35.8101 36.4842 39.7147 35.4999C39.8787 35.4671 40.0428 35.4015 40.1741 35.3358C40.3381 35.303 40.4037 35.2046 40.4037 35.0733Z" fill="#B5A6DC"/>
</svg>
