<svg width="38" height="48" viewBox="0 0 38 48" fill="none" xmlns="http://www.w3.org/2000/svg">
<path d="M32.9221 9.37646C32.102 9.37646 31.437 10.0488 31.437 10.8775V15.6906H6.56337V14.4633C6.56337 13.6346 5.89837 12.9626 5.07795 12.9626C4.25753 12.9626 3.59253 13.6346 3.59253 14.4633V36.5218C3.59253 37.3505 4.25753 38.0225 5.07795 38.0225C5.89799 38.0225 6.56337 37.3505 6.56337 36.5218V35.5745H31.437V36.5218C31.437 37.3505 32.102 38.0225 32.9221 38.0225C33.7421 38.0225 34.4075 37.3505 34.4075 36.5218V10.8775C34.4075 10.0488 33.7421 9.37646 32.9221 9.37646ZM17.7008 18.6923H20.2992V32.5731H17.7008V18.6923ZM14.7303 32.5731H12.1323V18.6923H14.7303V32.5731ZM23.2697 18.6923H25.8677V32.5731H23.2697V18.6923ZM6.56337 18.6923H9.16143V32.5731H6.56337V18.6923ZM28.8386 32.5731V18.6923H31.437V32.5731H28.8386Z" fill="black"/>
<path d="M24.6536 13.1315C25.2234 13.1315 25.6854 12.6647 25.6854 12.0889C25.6854 11.5132 25.2234 11.0464 24.6536 11.0464C24.0839 11.0464 23.6219 11.5132 23.6219 12.0889C23.6219 12.6647 24.0839 13.1315 24.6536 13.1315Z" fill="black"/>
<path d="M30.123 15.2359C29.8083 15.2359 29.553 14.9775 29.553 14.6592V5.452L29.5552 5.42551C29.556 5.41207 29.6738 3.85879 28.6607 2.74327C27.9292 1.9384 26.7725 1.53059 25.2229 1.53059C24.9075 1.53059 24.6521 1.27255 24.6521 0.953825C24.6521 0.635489 24.9075 0.377441 25.2229 0.377441C27.113 0.377441 28.5558 0.914658 29.5119 1.97527C30.7887 3.39107 30.7131 5.23082 30.6937 5.50154V14.6596C30.6937 14.9775 30.4387 15.2359 30.123 15.2359Z" fill="black"/>
<path d="M22.9186 8.76054C22.8194 8.76054 22.7392 8.67951 22.7392 8.57929V6.34018C22.7392 6.24034 22.8194 6.15894 22.9186 6.15894C23.0174 6.15894 23.0979 6.24034 23.0979 6.34018V8.57929C23.0979 8.6799 23.0174 8.76054 22.9186 8.76054Z" fill="black"/>
<path d="M24.6533 10.8465C24.5541 10.8465 24.4735 10.7655 24.4735 10.6653V6.34067C24.4735 6.24083 24.5541 6.15942 24.6533 6.15942C24.7528 6.15942 24.833 6.24083 24.833 6.34067V10.6657C24.833 10.7655 24.7528 10.8465 24.6533 10.8465Z" fill="black"/>
<path d="M26.516 9.35343C26.4164 9.35343 26.3362 9.27241 26.3362 9.17218V6.34018C26.3362 6.24034 26.4164 6.15894 26.516 6.15894C26.6144 6.15894 26.695 6.24034 26.695 6.34018V9.17218C26.695 9.27241 26.6144 9.35343 26.516 9.35343Z" fill="black"/>
<path d="M22.9185 10.557C23.3601 10.557 23.7181 10.1953 23.7181 9.7491C23.7181 9.30289 23.3601 8.94116 22.9185 8.94116C22.477 8.94116 22.119 9.30289 22.119 9.7491C22.119 10.1953 22.477 10.557 22.9185 10.557Z" fill="black"/>
<path d="M26.516 10.8465C26.8781 10.8465 27.1715 10.55 27.1715 10.1841C27.1715 9.8183 26.8781 9.52173 26.516 9.52173C26.154 9.52173 25.8605 9.8183 25.8605 10.1841C25.8605 10.55 26.154 10.8465 26.516 10.8465Z" fill="black"/>
<path d="M27.4873 4.37149H27.4159C27.3801 4.35536 27.3456 4.33693 27.3117 4.31927C27.034 4.18064 26.7725 4.02205 26.5282 3.8289C26.3093 3.65648 26.0973 3.47293 25.9073 3.26749C25.7469 3.09431 25.5903 2.91191 25.4478 2.72298C25.3392 2.57898 25.248 2.42385 25.1446 2.27562C25.1081 2.22301 25.077 2.17002 25.0496 2.11127C25.026 2.05866 25.0032 2.00529 24.9816 1.95153C24.955 1.88471 24.9352 1.79946 24.8965 1.73841C24.8292 1.63204 24.7266 1.56445 24.5982 1.56445C24.4697 1.56445 24.3679 1.63204 24.2999 1.73841C24.2611 1.79908 24.2425 1.88471 24.2144 1.95153C24.1927 2.00529 24.1707 2.05866 24.1467 2.11127C24.1201 2.16964 24.0882 2.22301 24.0517 2.27562C23.9487 2.42385 23.8568 2.57898 23.7489 2.72298C23.606 2.91191 23.4498 3.09431 23.2891 3.26749C23.0994 3.47293 22.887 3.65648 22.6681 3.8289C22.4238 4.02205 22.1627 4.18064 21.8846 4.31927C21.8496 4.33693 21.815 4.35536 21.7801 4.37149H21.7086C21.7086 4.37149 21.185 4.38877 21.185 5.05194C21.185 5.71511 21.7246 5.71549 21.7246 5.71549H27.4702C27.4702 5.71549 28.0102 5.71549 28.0102 5.05194C28.0106 4.38839 27.4873 4.37149 27.4873 4.37149Z" fill="black"/>
</svg>
