<svg width="51" height="34" viewBox="0 0 51 34" fill="none" xmlns="http://www.w3.org/2000/svg">
<path d="M0 26.762V33.7705H4.03185V32.3964V26.762H2.23955H0Z" fill="black"/>
<path d="M32.4357 32.3966V30.3354H24.3555H23.6189H13.6642H12.9308H4.83752V32.3966V33.7707H32.4357V32.3966Z" fill="black"/>
<path d="M37.2864 26.762H35.0469H33.2546V32.3964V33.7705H37.2864V26.762Z" fill="black"/>
<path d="M7.95188 25.3123C7.76443 25.3123 7.60986 25.4668 7.60986 25.6541C7.60986 25.8415 7.76443 25.996 7.95188 25.996C8.13933 25.996 8.2939 25.8415 8.2939 25.6541C8.2939 25.4668 8.13933 25.3123 7.95188 25.3123Z" fill="black"/>
<path d="M3.0354 21.7718V25.9632H4.8277V29.5365H12.8651V21.7686H3.0354V21.7718ZM8.91546 26.5746C8.87271 26.6174 8.82009 26.6404 8.76419 26.6404C8.71157 26.6404 8.65895 26.6206 8.61949 26.5812L8.33666 26.3116C8.22485 26.3774 8.09331 26.4168 7.95189 26.4168C7.82364 26.4168 7.70525 26.384 7.59672 26.3281L7.32706 26.6108C7.2843 26.6535 7.23169 26.6765 7.17578 26.6765C7.12316 26.6765 7.07054 26.6568 7.03108 26.6174C6.94558 26.5385 6.94558 26.4037 7.0245 26.3215L7.29417 26.0388C7.2284 25.927 7.18893 25.7955 7.18893 25.6542C7.18893 25.526 7.22182 25.4076 7.27773 25.2991L6.9949 25.0296C6.9094 24.9507 6.9094 24.8159 6.98833 24.7337C7.06726 24.6482 7.20209 24.6482 7.2843 24.7271L7.56713 24.9967C7.67894 24.931 7.81048 24.8915 7.95189 24.8915C8.08015 24.8915 8.19854 24.9244 8.30707 24.9803L8.57673 24.6976C8.65566 24.6121 8.79049 24.6121 8.87271 24.691C8.95821 24.7699 8.95821 24.9047 8.87929 24.9868L8.60962 25.2696C8.67539 25.3813 8.71486 25.5128 8.71486 25.6542C8.71486 25.7824 8.68197 25.9007 8.62606 26.0092L8.90888 26.2788C8.99439 26.3577 8.99768 26.4891 8.91546 26.5746Z" fill="black"/>
<path d="M13.7267 21.772V29.5399H23.5597V21.772H13.7267ZM19.6068 26.5747C19.5641 26.6175 19.5114 26.6405 19.4555 26.6405C19.4029 26.6405 19.3503 26.6208 19.3108 26.5813L19.028 26.3118C18.9162 26.3775 18.7846 26.417 18.6432 26.417C18.515 26.417 18.3966 26.3841 18.2881 26.3282L18.0184 26.6109C17.9756 26.6536 17.923 26.6767 17.8671 26.6767C17.8145 26.6767 17.7619 26.6569 17.7224 26.6175C17.6369 26.5386 17.6369 26.4038 17.7158 26.3216L17.9855 26.0389C17.9197 25.9271 17.8803 25.7957 17.8803 25.6543C17.8803 25.5261 17.9132 25.4078 17.9691 25.2993L17.6863 25.0297C17.6007 24.9508 17.6007 24.816 17.6797 24.7338C17.7586 24.6484 17.8934 24.6484 17.9756 24.7273L18.2585 24.9968C18.3703 24.9311 18.5018 24.8916 18.6432 24.8916C18.7715 24.8916 18.8899 24.9245 18.9984 24.9804L19.2681 24.6977C19.347 24.6122 19.4818 24.6122 19.5641 24.6911C19.6496 24.77 19.6496 24.9048 19.5706 24.987L19.301 25.2697C19.3667 25.3815 19.4062 25.5129 19.4062 25.6543C19.4062 25.7825 19.3733 25.9008 19.3174 26.0093L19.6002 26.2789C19.6824 26.3578 19.6857 26.4893 19.6068 26.5747Z" fill="black"/>
<path d="M18.6432 25.3123C18.4557 25.3123 18.3011 25.4668 18.3011 25.6541C18.3011 25.8415 18.4557 25.996 18.6432 25.996C18.8306 25.996 18.9852 25.8415 18.9852 25.6541C18.9852 25.4668 18.8306 25.3123 18.6432 25.3123Z" fill="black"/>
<path d="M29.3345 25.3123C29.1471 25.3123 28.9925 25.4668 28.9925 25.6541C28.9925 25.8415 29.1471 25.996 29.3345 25.996C29.522 25.996 29.6765 25.8415 29.6765 25.6541C29.6765 25.4668 29.522 25.3123 29.3345 25.3123Z" fill="black"/>
<path d="M24.418 21.7718V29.5398H32.4554V25.9632H34.2477V21.7686H24.418V21.7718ZM30.2981 26.5746C30.2553 26.6174 30.2027 26.6404 30.1468 26.6404C30.0942 26.6404 30.0416 26.6206 30.0021 26.5812L29.7193 26.3116C29.6075 26.3774 29.4759 26.4168 29.3345 26.4168C29.2063 26.4168 29.0879 26.384 28.9794 26.3281L28.7097 26.6108C28.6669 26.6535 28.6143 26.6765 28.5584 26.6765C28.5058 26.6765 28.4532 26.6568 28.4137 26.6174C28.3282 26.5385 28.3282 26.4037 28.4071 26.3215L28.6768 26.0388C28.611 25.927 28.5716 25.7955 28.5716 25.6542C28.5716 25.526 28.6045 25.4076 28.6604 25.2991L28.3775 25.0296C28.292 24.9507 28.292 24.8159 28.371 24.7337C28.4499 24.6482 28.5847 24.6482 28.6669 24.7271L28.9498 24.9967C29.0616 24.931 29.1931 24.8915 29.3345 24.8915C29.4628 24.8915 29.5812 24.9244 29.6897 24.9803L29.9594 24.6976C30.0383 24.6121 30.1731 24.6121 30.2553 24.691C30.3408 24.7699 30.3408 24.9047 30.2619 24.9868L29.9923 25.2696C30.058 25.3813 30.0975 25.5128 30.0975 25.6542C30.0975 25.7824 30.0646 25.9007 30.0087 26.0092L30.2915 26.2788C30.3737 26.3577 30.377 26.4891 30.2981 26.5746Z" fill="black"/>
<path d="M39.23 25.5096V30.2368V30.7299V33.7805H40.2166V30.7299H50.0134V33.7805H51V30.7299V30.2368V25.5063H39.23V25.5096ZM46.248 27.6267V28.6129H43.9854V27.6267H46.248Z" fill="black"/>
<path d="M11.1977 17.2651H7.81047L7.35992 13.3203H11.6516L11.1977 17.2651Z" fill="black"/>
<path d="M9.71131 9.84888H9.05359V13.8627H9.71131V9.84888Z" fill="black"/>
<path d="M11.3129 7.68583C11.234 7.29464 11.0991 7.00536 11.0926 6.99549L10.984 6.76538L10.7341 6.8114C10.7209 6.81469 10.4085 6.87058 10.0435 7.03494C9.54032 7.25848 9.16871 7.58064 8.97139 7.96197C8.77408 8.3433 8.72803 8.83311 8.83985 9.37223C8.91877 9.76342 9.05361 10.0527 9.06019 10.0626L9.16871 10.2927L9.41865 10.2467C9.4318 10.2434 9.74422 10.1875 10.1093 10.0231C10.6124 9.79958 10.984 9.47742 11.1813 9.09609C11.3754 8.71476 11.4214 8.22824 11.3129 7.68583Z" fill="black"/>
<path d="M12.944 10.8383C12.9341 10.8285 12.7204 10.5918 12.3915 10.365C11.9377 10.0527 11.4707 9.90473 11.0399 9.9376C10.6124 9.97047 10.1717 10.1874 9.7672 10.5622C9.47451 10.835 9.30022 11.1013 9.29364 11.1112L9.15552 11.3216L9.32324 11.5089C9.3331 11.5188 9.54686 11.7555 9.87573 11.9823C10.2901 12.2683 10.7143 12.4162 11.1123 12.4162C11.1517 12.4162 11.1912 12.4162 11.2274 12.413C11.6549 12.3801 12.0956 12.1631 12.5001 11.7884C12.7927 11.5155 12.967 11.2492 12.9736 11.2394L13.1117 11.029L12.944 10.8383Z" fill="black"/>
<path d="M9.46139 10.3417C9.4581 10.3286 9.37259 10.0229 9.18185 9.67114C8.91548 9.1879 8.56359 8.84602 8.16567 8.68165C7.76775 8.51728 7.27774 8.514 6.74827 8.6685C6.36679 8.78027 6.09055 8.93806 6.07739 8.94464L5.85706 9.06955L5.92283 9.31282C5.92612 9.32597 6.01162 9.63169 6.20236 9.98343C6.46874 10.4667 6.82062 10.8085 7.21855 10.9729C7.42244 11.0584 7.65264 11.0978 7.896 11.0978C8.1295 11.0978 8.37614 11.0617 8.63594 10.9828C9.01742 10.871 9.29367 10.7132 9.30682 10.7066L9.52716 10.5817L9.46139 10.3417Z" fill="black"/>
<path d="M21.8891 17.2651H18.5018L18.048 13.3203H22.3396L21.8891 17.2651Z" fill="black"/>
<path d="M20.3993 9.84888H19.7416V13.8627H20.3993V9.84888Z" fill="black"/>
<path d="M22.0009 7.68583C21.922 7.29464 21.7871 7.00536 21.7805 6.99549L21.672 6.76538L21.4221 6.8114C21.4089 6.81469 21.0965 6.87058 20.7315 7.03494C20.2283 7.25848 19.8567 7.58064 19.6594 7.96197C19.4621 8.3433 19.416 8.83311 19.5278 9.37223C19.6068 9.76342 19.7416 10.0527 19.7482 10.0626L19.8567 10.2927L20.1066 10.2467C20.1198 10.2434 20.4322 10.1875 20.7972 10.0231C21.3004 9.79958 21.672 9.47742 21.8693 9.09609C22.0667 8.71476 22.1127 8.22824 22.0009 7.68583Z" fill="black"/>
<path d="M23.6321 10.8383C23.6222 10.8285 23.4084 10.5918 23.0796 10.365C22.6257 10.0527 22.1588 9.90473 21.7279 9.9376C21.3004 9.97047 20.8598 10.1874 20.4553 10.5622C20.1626 10.835 19.9883 11.1013 19.9817 11.1112L19.8436 11.3216L20.0113 11.5089C20.0212 11.5188 20.2349 11.7555 20.5638 11.9823C20.9781 12.2683 21.4024 12.4162 21.8003 12.4162C21.8398 12.4162 21.8792 12.4162 21.9154 12.413C22.3429 12.3801 22.7836 12.1631 23.1881 11.7884C23.4808 11.5155 23.6551 11.2492 23.6617 11.2394L23.7998 11.029L23.6321 10.8383Z" fill="black"/>
<path d="M20.1494 10.3417C20.1461 10.3286 20.0606 10.0229 19.8699 9.67114C19.6035 9.1879 19.2516 8.84602 18.8537 8.68165C18.4558 8.51728 17.9658 8.514 17.4363 8.6685C17.0548 8.78027 16.7786 8.93806 16.7654 8.94464L16.5451 9.06955L16.6109 9.31282C16.6142 9.32597 16.6997 9.63169 16.8904 9.98343C17.1568 10.4667 17.5087 10.8085 17.9066 10.9729C18.1105 11.0584 18.3407 11.0978 18.5841 11.0978C18.8175 11.0978 19.0642 11.0617 19.324 10.9828C19.7055 10.871 19.9817 10.7132 19.9949 10.7066L20.2152 10.5817L20.1494 10.3417Z" fill="black"/>
<path d="M45.6099 17.8369H44.6234V26.0388H45.6099V17.8369Z" fill="black"/>
<path d="M49.0959 9.5332H41.1374L40.5225 16.2492H49.7109L49.0959 9.5332Z" fill="black"/>
<path d="M45.1166 17.9455C44.0972 17.9455 43.2717 17.1204 43.2717 16.1013H46.9616C46.9616 17.1204 46.1361 17.9455 45.1166 17.9455Z" fill="black"/>
<path d="M28.052 18.228H1.60815V19.9243H28.052V18.228Z" fill="black"/>
<path d="M33.2546 11.1112C30.1896 11.1112 27.6968 8.61936 27.6968 5.55558C27.6968 2.49179 30.1896 0 33.2546 0C36.3196 0 38.8123 2.49179 38.8123 5.55558C38.8123 8.61936 36.3163 11.1112 33.2546 11.1112ZM33.2546 0.986197C30.7355 0.986197 28.6834 3.03749 28.6834 5.55558C28.6834 8.07366 30.7355 10.125 33.2546 10.125C35.7736 10.125 37.8257 8.07366 37.8257 5.55558C37.8257 3.03749 35.7736 0.986197 33.2546 0.986197Z" fill="black"/>
<path d="M33.2545 1.80811C31.1827 1.80811 29.5055 3.48464 29.5055 5.55565C29.5055 7.62667 31.1827 9.3032 33.2545 9.3032C35.3264 9.3032 37.0036 7.62667 37.0036 5.55565C37.0036 3.48464 35.3231 1.80811 33.2545 1.80811ZM32.9257 5.88439V3.12303H33.5834V5.22692H36.017V5.88439H32.9257Z" fill="black"/>
</svg>
