<svg width="45" height="32" viewBox="0 0 45 32" fill="none" xmlns="http://www.w3.org/2000/svg">
<path d="M14.9983 15.1423L28.9559 2.91024L42.9136 15.1423C43.0798 15.2905 43.2809 15.3602 43.4908 15.3602C43.7356 15.3602 43.9718 15.2644 44.1466 15.0638C44.4615 14.7064 44.4265 14.1571 44.068 13.8346L29.5331 1.09684C29.2008 0.800403 28.7111 0.800403 28.3787 1.09684L13.8439 13.8346C13.4853 14.1571 13.4504 14.7064 13.7652 15.0638C14.0888 15.43 14.6398 15.4649 14.9983 15.1423Z" fill="black"/>
<path d="M1.51286 31.9255H17.0185H23.9798V22.8844C23.9798 22.4049 24.3733 22.0126 24.8543 22.0126H33.0575C33.5385 22.0126 33.9321 22.4049 33.9321 22.8844V31.9255H40.8934C41.3744 31.9255 41.7679 31.5419 41.7679 31.0536V16.4589C41.7592 16.4502 41.7592 16.4502 41.7505 16.4415L28.9559 5.22949L16.1527 16.4502L16.1439 16.4589V30.1818H9.33125V24.0614C10.4332 23.4076 12.8819 21.5505 12.8819 17.9236C12.8819 13.6342 9.32253 8.53383 9.17388 8.32454C8.84156 7.86252 8.0719 7.86252 7.73958 8.32454C7.59094 8.53383 4.03156 13.6342 4.03156 17.9236C4.03156 21.5505 6.48023 23.4076 7.58221 24.0614V30.1818H1.51286C1.02316 30.1818 0.638336 30.5742 0.638336 31.0536C0.638336 31.5419 1.02316 31.9255 1.51286 31.9255Z" fill="black"/>
</svg>
