<svg width="33" height="37" viewBox="0 0 33 37" fill="none" xmlns="http://www.w3.org/2000/svg">
<path d="M23.789 12.5961L25.121 12.7465C25.38 12.7841 25.639 12.5961 25.676 12.2953L26.12 8.64807L26.749 9.09927C27.341 9.51287 27.711 10.2273 27.711 10.9417V14.8145H26.231C25.972 14.8145 25.713 15.0401 25.713 15.3409V16.3937H31.3V15.3409C31.3 15.0401 31.078 14.8145 30.782 14.8145H29.45V10.9417C29.45 9.62567 28.821 8.38487 27.748 7.63287L26.342 6.61767L26.86 1.65447C26.897 1.39127 26.712 1.12807 26.416 1.09047L25.084 0.94007C24.825 0.90247 24.566 1.09047 24.529 1.39127L23.345 12.0697C23.345 12.3329 23.53 12.5961 23.789 12.5961Z" fill="black"/>
<path d="M7.69401 8.94897C9.8192 8.94897 11.542 7.19823 11.542 5.03857C11.542 2.87892 9.8192 1.12817 7.69401 1.12817C5.56882 1.12817 3.84601 2.87892 3.84601 5.03857C3.84601 7.19823 5.56882 8.94897 7.69401 8.94897Z" fill="black"/>
<path d="M18.202 23.0865C18.091 22.1841 17.351 21.5073 16.463 21.5073H11.949L11.505 15.1905C12.763 15.9425 14.206 16.3937 15.686 16.3937H18.868C19.682 16.3937 20.348 15.7169 20.348 14.8897C20.348 14.0625 19.682 13.3857 18.868 13.3857H15.686C14.687 13.3857 13.688 13.0849 12.837 12.5209L9.91403 10.5657C9.35903 10.1897 8.69303 9.96411 7.99003 9.96411H7.43503C6.39903 9.96411 5.43703 10.4153 4.77103 11.2049C4.10503 11.9945 3.80903 13.0473 3.95703 14.1001L5.40003 23.5753C5.54803 24.4401 6.25103 25.0793 7.13903 25.0793H14.872L15.908 34.8553C16.019 35.7577 16.759 36.4345 17.647 36.4345C17.721 36.4345 17.758 36.4345 17.832 36.4345C18.794 36.3217 19.497 35.4569 19.386 34.4793L18.202 23.0865Z" fill="black"/>
<path d="M12.541 26.5457H6.62101C5.28901 26.5457 4.17901 25.5681 3.95701 24.2521L2.44001 14.2129C2.32901 13.5737 1.73701 13.1225 1.10801 13.2353C0.479007 13.3481 0.0350071 13.9497 0.146007 14.5889L1.66301 24.5905C2.03301 27.0721 4.14201 28.9145 6.62101 28.9145H12.541C13.17 28.9145 13.725 28.3881 13.725 27.7113C13.725 27.0345 13.17 26.5457 12.541 26.5457Z" fill="black"/>
<path d="M31.707 17.7849H15.538C14.909 17.7849 14.354 18.3113 14.354 18.9881C14.354 19.6273 14.872 20.1913 15.538 20.1913H25.676V34.3289H23.308C22.679 34.3289 22.124 34.8553 22.124 35.5321C22.124 36.1713 22.642 36.7353 23.308 36.7353H31.707C32.336 36.7353 32.891 36.2089 32.891 35.5321V18.9881C32.891 18.3113 32.373 17.7849 31.707 17.7849Z" fill="black"/>
</svg>
