<svg width="30" height="38" viewBox="0 0 30 38" fill="none" xmlns="http://www.w3.org/2000/svg">
<path d="M2.83436 0.49585C2.61376 0.495854 2.4022 0.583521 2.24621 0.739549C2.09022 0.895577 2.00258 1.10719 2.00256 1.32785V7.71816C2.00258 7.93883 2.09022 8.15046 2.24621 8.30649C2.4022 8.46252 2.61376 8.55016 2.83436 8.55016H27.1656C27.3862 8.55016 27.5978 8.46252 27.7538 8.30649C27.9098 8.15046 27.9974 7.93883 27.9974 7.71816V1.32785C27.9974 1.10719 27.9098 0.895577 27.7538 0.739549C27.5978 0.583521 27.3862 0.495854 27.1656 0.49585H2.83436ZM3.66616 2.15985H26.333V6.88616H3.66616V2.15985Z" fill="black"/>
<path d="M2.83458 8.89111C2.72535 8.8911 2.61718 8.91261 2.51625 8.95441C2.41533 8.99622 2.32363 9.0575 2.24638 9.13476C2.16913 9.21202 2.10785 9.30374 2.06604 9.40469C2.02423 9.50564 2.0027 9.61384 2.00269 9.72311V9.59149L0.761423 13.4029C0.720809 13.5277 0.710294 13.6604 0.730737 13.7901C0.75118 13.9197 0.802002 14.0427 0.879049 14.149C0.956096 14.2552 1.05718 14.3418 1.17405 14.4015C1.29092 14.4612 1.42025 14.4924 1.55147 14.4925L28.446 14.5333C28.5771 14.5334 28.7064 14.5025 28.8234 14.4431C28.9403 14.3837 29.0415 14.2975 29.1188 14.1915C29.1961 14.0855 29.2472 13.9627 29.268 13.8332C29.2888 13.7036 29.2787 13.571 29.2385 13.4461L27.957 9.46814C27.903 9.30057 27.7973 9.15445 27.655 9.05079C27.5128 8.94714 27.3413 8.89127 27.1653 8.89127H2.83458L2.83458 8.89111Z" fill="black"/>
<path d="M4.45121 16.5581C4.34191 16.558 4.23366 16.5794 4.13266 16.6212C4.03165 16.663 3.93986 16.7242 3.86253 16.8015C3.78521 16.8788 3.72386 16.9705 3.682 17.0715C3.64015 17.1725 3.6186 17.2808 3.61859 17.3901V19.7911C3.6186 19.9004 3.64015 20.0086 3.682 20.1096C3.72386 20.2106 3.78521 20.3024 3.86253 20.3797C3.93986 20.4569 4.03165 20.5182 4.13266 20.56C4.23366 20.6017 4.34191 20.6232 4.45121 20.6231H8.80625C9.02684 20.6231 9.2384 20.5354 9.39439 20.3794C9.55038 20.2234 9.63803 20.0117 9.63804 19.7911V17.3901C9.63803 17.1694 9.55038 16.9578 9.39439 16.8018C9.2384 16.6458 9.02684 16.5581 8.80625 16.5581H4.45121ZM5.28301 18.2221H7.97445V18.9591H5.28301V18.2221Z" fill="black"/>
<path d="M25.5467 18.9483L22.028 18.9595C21.9165 18.9561 21.8054 18.9752 21.7014 19.0155C21.5974 19.0559 21.5026 19.1168 21.4226 19.1946C21.3427 19.2724 21.2791 19.3655 21.2358 19.4683C21.1925 19.5712 21.1704 19.6817 21.1707 19.7933C21.1709 19.9049 21.1936 20.0152 21.2374 20.1179C21.2812 20.2205 21.3452 20.3133 21.4256 20.3907C21.506 20.4681 21.6011 20.5285 21.7053 20.5684C21.8095 20.6082 21.9206 20.6267 22.0321 20.6227L25.5516 20.6123C25.6617 20.6133 25.7709 20.5925 25.8729 20.551C25.9748 20.5095 26.0675 20.4481 26.1456 20.3705C26.2237 20.2929 26.2856 20.2005 26.3277 20.0988C26.3699 19.9971 26.3914 19.888 26.3911 19.7778C26.3907 19.6677 26.3686 19.5588 26.3258 19.4573C26.2831 19.3558 26.2206 19.2638 26.1421 19.1867C26.0636 19.1095 25.9705 19.0487 25.8683 19.0078C25.7661 18.9669 25.6568 18.9467 25.5467 18.9483L25.5467 18.9483Z" fill="black"/>
<path d="M1.56216 20.7974C1.45206 20.7961 1.34278 20.8166 1.24067 20.8578C1.13855 20.899 1.04563 20.96 0.967284 21.0374C0.888941 21.1148 0.826739 21.207 0.784285 21.3086C0.741831 21.4102 0.719971 21.5193 0.719971 21.6294C0.719971 21.7396 0.741831 21.8486 0.784285 21.9502C0.826739 22.0519 0.888941 22.144 0.967284 22.2214C1.04563 22.2988 1.13855 22.3599 1.24067 22.4011C1.34278 22.4423 1.45206 22.4628 1.56216 22.4614H28.4378C28.5479 22.4628 28.6572 22.4423 28.7593 22.4011C28.8614 22.3599 28.9543 22.2988 29.0327 22.2214C29.111 22.144 29.1732 22.0519 29.2157 21.9502C29.2581 21.8486 29.28 21.7396 29.28 21.6294C29.28 21.5193 29.2581 21.4102 29.2157 21.3086C29.1732 21.207 29.111 21.1148 29.0327 21.0374C28.9543 20.96 28.8614 20.899 28.7593 20.8578C28.6572 20.8166 28.5479 20.7961 28.4378 20.7974H1.56216Z" fill="black"/>
<path d="M1.57356 22.8818C1.35296 22.8818 1.1414 22.9695 0.98541 23.1255C0.82942 23.2816 0.741777 23.4932 0.74176 23.7138V36.2718C0.741777 36.4925 0.82942 36.7041 0.98541 36.8601C1.1414 37.0162 1.35296 37.1038 1.57356 37.1038H28.4265C28.6471 37.1038 28.8586 37.0162 29.0146 36.8601C29.1706 36.7041 29.2583 36.4925 29.2583 36.2718V23.7138C29.2583 23.4932 29.1706 23.2816 29.0146 23.1255C28.8586 22.9695 28.6471 22.8818 28.4265 22.8818H1.57356ZM17.0545 25.5891H25.5989C25.7082 25.589 25.8164 25.6104 25.9174 25.6522C26.0184 25.6939 26.1102 25.7552 26.1875 25.8325C26.2649 25.9097 26.3262 26.0015 26.3681 26.1025C26.4099 26.2035 26.4315 26.3118 26.4315 26.4211V32.5668C26.4315 32.6762 26.4099 32.7844 26.3681 32.8854C26.3262 32.9864 26.2649 33.0782 26.1875 33.1554C26.1102 33.2327 26.0184 33.294 25.9174 33.3357C25.8164 33.3775 25.7082 33.3989 25.5989 33.3988H17.0545C16.8339 33.3988 16.6223 33.3112 16.4663 33.1551C16.3104 32.9991 16.2227 32.7875 16.2227 32.5668V26.4211C16.2227 26.2004 16.3104 25.9888 16.4663 25.8328C16.6223 25.6768 16.8339 25.5891 17.0545 25.5891ZM4.40117 26.586H12.9455C13.1661 26.586 13.3777 26.6737 13.5337 26.8297C13.6897 26.9858 13.7773 27.1974 13.7773 27.418V33.5646C13.7773 33.7852 13.6897 33.9969 13.5337 34.1529C13.3777 34.3089 13.1661 34.3966 12.9455 34.3966H4.40117C4.29188 34.3967 4.18363 34.3753 4.08262 34.3335C3.98161 34.2918 3.88982 34.2305 3.8125 34.1532C3.73517 34.0759 3.67383 33.9842 3.63197 33.8832C3.59011 33.7822 3.56857 33.6739 3.56856 33.5646V27.418C3.56857 27.3087 3.59011 27.2004 3.63197 27.0994C3.67383 26.9985 3.73517 26.9067 3.8125 26.8294C3.88982 26.7522 3.98161 26.6909 4.08262 26.6491C4.18363 26.6074 4.29188 26.5859 4.40117 26.586Z" fill="black"/>
</svg>
