<svg width="41" height="40" viewBox="0 0 41 40" fill="none" xmlns="http://www.w3.org/2000/svg">
<path d="M10.0204 26.6292H7.51703C7.17184 26.6292 6.89203 26.909 6.89203 27.2541C6.89203 27.5993 7.17184 27.8791 7.51703 27.8791H10.0204C10.3655 27.8791 10.6454 27.5993 10.6454 27.2541C10.6454 26.909 10.3656 26.6292 10.0204 26.6292Z" fill="black"/>
<path d="M22.9728 26.6292H20.4694C20.1242 26.6292 19.8444 26.909 19.8444 27.2541C19.8444 27.5993 20.1242 27.8791 20.4694 27.8791H22.9728C23.318 27.8791 23.5978 27.5993 23.5978 27.2541C23.5978 26.909 23.318 26.6292 22.9728 26.6292Z" fill="black"/>
<path d="M10.0204 32.8604H7.51703C7.17184 32.8604 6.89203 33.1402 6.89203 33.4853C6.89203 33.8305 7.17184 34.1103 7.51703 34.1103H10.0204C10.3655 34.1103 10.6454 33.8305 10.6454 33.4853C10.6454 33.1402 10.3656 32.8604 10.0204 32.8604Z" fill="black"/>
<path d="M22.9728 32.8604H20.4694C20.1242 32.8604 19.8444 33.1402 19.8444 33.4853C19.8444 33.8305 20.1242 34.1103 20.4694 34.1103H22.9728C23.318 34.1103 23.5978 33.8305 23.5978 33.4853C23.5978 33.1402 23.318 32.8604 22.9728 32.8604Z" fill="black"/>
<path d="M29.4361 20.791H1.37295C1.01639 20.791 0.727264 21.0801 0.727264 21.4368V22.4707C0.727264 22.8273 1.01639 23.1164 1.37295 23.1164H1.68826V36.6126C1.68826 37.3001 2.24451 37.8626 2.93826 37.8626H4.58826V38.8563C4.58826 39.4876 5.09451 40.0001 5.72576 40.0001C6.14451 40.0001 6.52576 39.7751 6.72576 39.4064L7.57576 37.8626H23.232L24.082 39.4064C24.282 39.775 24.6633 40.0001 25.082 40.0001C25.7133 40.0001 26.2258 39.4876 26.2258 38.8563V37.8626H27.8695C28.5633 37.8626 29.1195 37.3001 29.1195 36.6126V23.1164H29.4361C29.7927 23.1164 30.0818 22.8273 30.0818 22.4707V21.4368C30.0818 21.0801 29.7927 20.791 29.4361 20.791ZM14.7795 35.1612C14.7795 35.5099 14.4969 35.7925 14.1483 35.7925H4.02776C3.67914 35.7925 3.39651 35.5099 3.39651 35.1612V31.565C3.39651 31.2163 3.67914 30.9338 4.02776 30.9338H14.1483C14.4969 30.9338 14.7795 31.2163 14.7795 31.565V35.1612ZM14.7795 29.0525C14.7795 29.4012 14.4969 29.6838 14.1483 29.6838H4.02776C3.67914 29.6838 3.39651 29.4012 3.39651 29.0525V25.4564C3.39651 25.1077 3.67914 24.8251 4.02776 24.8251H14.1483C14.4969 24.8251 14.7795 25.1077 14.7795 25.4564V29.0525ZM27.4126 35.1612C27.4126 35.5099 27.13 35.7925 26.7813 35.7925H16.6608C16.3122 35.7925 16.0296 35.5099 16.0296 35.1612V31.565C16.0296 31.2163 16.3122 30.9338 16.6608 30.9338H26.7813C27.13 30.9338 27.4126 31.2163 27.4126 31.565V35.1612ZM27.4126 29.0525C27.4126 29.4012 27.13 29.6838 26.7813 29.6838H16.6608C16.3122 29.6838 16.0296 29.4012 16.0296 29.0525V25.4564C16.0296 25.1077 16.3122 24.8251 16.6608 24.8251H26.7813C27.13 24.8251 27.4126 25.1077 27.4126 25.4564V29.0525Z" fill="black"/>
<path d="M6.28205 18.5311H18.0945C19.057 18.5311 19.8383 17.7499 19.8383 16.7874V1.74374C19.8383 0.781247 19.057 0 18.0945 0H6.28205C5.31955 0 4.5383 0.781247 4.5383 1.74374V16.7874C4.53836 17.7499 5.31961 18.5311 6.28205 18.5311ZM6.41336 1.87499H10.9608L6.41336 6.42241V1.87499ZM6.41336 7.71972L12.2608 1.87499H13.4579L6.41336 8.91946V7.71972ZM6.41336 9.87227L14.4107 1.87499H17.9634V16.6561H6.41336V9.87227Z" fill="black"/>
<path d="M40.7273 7.12931C40.7273 6.35037 40.0931 5.71613 39.3073 5.71613C38.5283 5.71613 37.8941 6.35037 37.8941 7.12931C37.8941 7.78712 38.3409 8.3333 38.9427 8.49549V10.5586C38.9427 11.0362 38.5542 11.4247 38.0767 11.4247H35.9503V8.39893C35.9503 8.37862 35.9416 8.36093 35.9406 8.34087C35.936 8.25087 35.9209 8.16418 35.8972 8.08055C35.8869 8.04412 35.8776 8.00862 35.864 7.97368C35.8284 7.88206 35.7826 7.79631 35.7266 7.71743C35.7071 7.69012 35.6852 7.66649 35.6636 7.64099C35.6051 7.57181 35.5404 7.50899 35.4677 7.45468C35.4538 7.44443 35.4425 7.43174 35.4281 7.42206C35.3357 7.35912 35.232 7.31387 35.1234 7.27887C35.1141 7.276 35.1068 7.26925 35.0974 7.26656C35.098 7.26806 35.0982 7.26968 35.0988 7.27112C34.9914 7.23918 34.8799 7.21662 34.7621 7.21662C34.1078 7.21662 33.5774 7.74699 33.5774 8.4013V11.4247H31.4473C30.9697 11.4247 30.5812 11.0362 30.5812 10.5586V8.49424C31.1849 8.33068 31.6299 7.78562 31.6299 7.12925C31.6299 6.35031 30.9957 5.71606 30.2099 5.71606C29.431 5.71606 28.7968 6.35031 28.7968 7.12925C28.7968 7.78731 29.2439 8.33355 29.8459 8.49562V10.5586C29.8459 11.4419 30.564 12.16 31.4473 12.16H33.5773V35.1771C33.5766 35.1771 33.5759 35.1772 33.5752 35.1772H33.5751V35.8579H32.9824C32.4274 35.8579 31.9776 36.3077 31.9776 36.8627V37.5072H31.9754V37.8982H31.3686C30.8137 37.8982 30.3638 38.348 30.3638 38.903V39.9386H30.3644V39.9389H39.1596V39.9386H39.1602V38.903C39.1602 38.3481 38.7103 37.8982 38.1554 37.8982H37.5485V36.8611C37.5485 36.3071 37.0994 35.8579 36.5452 35.8579H36.5416H36.4263H35.9503V12.16H38.0767C38.9599 12.16 39.678 11.442 39.678 10.5586V8.49443C40.2821 8.33099 40.7273 7.78581 40.7273 7.12931Z" fill="black"/>
</svg>
