<svg width="33" height="43" viewBox="0 0 33 43" fill="none" xmlns="http://www.w3.org/2000/svg">
<path d="M30.7464 0.280029H2.26953C1.81449 0.309672 1.38806 0.511587 1.07765 0.844387C0.767235 1.17719 0.596356 1.61567 0.600034 2.06995V42.52H32.4V2.06995C32.4065 1.6175 32.2387 1.17978 31.9311 0.846841C31.6235 0.513897 31.1996 0.31105 30.7464 0.280029ZM21.8 20.4549V17.5931C21.8 17.2025 21.9558 16.8278 22.2331 16.5515C22.5104 16.2752 22.8866 16.12 23.2787 16.12H26.1513C26.3455 16.12 26.5378 16.1581 26.7172 16.2322C26.8966 16.3062 27.0596 16.4147 27.1969 16.5515C27.3342 16.6883 27.4432 16.8507 27.5175 17.0294C27.5918 17.2081 27.63 17.3997 27.63 17.5931V20.4549C27.63 20.6484 27.5918 20.8399 27.5175 21.0186C27.4432 21.1974 27.3342 21.3598 27.1969 21.4966C27.0596 21.6334 26.8966 21.7419 26.7172 21.8159C26.5378 21.8899 26.3455 21.928 26.1513 21.928H23.2787C22.8866 21.928 22.5104 21.7728 22.2331 21.4966C21.9558 21.2203 21.8 20.8456 21.8 20.4549ZM27.63 25.5131V28.3749C27.63 28.5684 27.5918 28.7599 27.5175 28.9386C27.4432 29.1174 27.3342 29.2798 27.1969 29.4166C27.0596 29.5534 26.8966 29.6619 26.7172 29.7359C26.5378 29.8099 26.3455 29.848 26.1513 29.848H23.2787C22.8866 29.848 22.5104 29.6928 22.2331 29.4166C21.9558 29.1403 21.8 28.7656 21.8 28.3749V25.5131C21.8 25.1225 21.9558 24.7478 22.2331 24.4715C22.5104 24.1952 22.8866 24.04 23.2787 24.04H26.1513C26.3455 24.04 26.5378 24.0781 26.7172 24.1522C26.8966 24.2262 27.0596 24.3347 27.1969 24.4715C27.3342 24.6083 27.4432 24.7707 27.5175 24.9494C27.5918 25.1281 27.63 25.3197 27.63 25.5131ZM13.85 20.4549V17.5931C13.85 17.2025 14.0058 16.8278 14.2831 16.5515C14.5604 16.2752 14.9366 16.12 15.3287 16.12H18.2013C18.5935 16.12 18.9696 16.2752 19.2469 16.5515C19.5242 16.8278 19.68 17.2025 19.68 17.5931V20.4549C19.68 20.8456 19.5242 21.2203 19.2469 21.4966C18.9696 21.7728 18.5935 21.928 18.2013 21.928H15.3287C14.9366 21.928 14.5604 21.7728 14.2831 21.4966C14.0058 21.2203 13.85 20.8456 13.85 20.4549ZM19.68 25.5131V28.3749C19.68 28.7656 19.5242 29.1403 19.2469 29.4166C18.9696 29.6928 18.5935 29.848 18.2013 29.848H15.3287C14.9366 29.848 14.5604 29.6928 14.2831 29.4166C14.0058 29.1403 13.85 28.7656 13.85 28.3749V25.5131C13.85 25.1225 14.0058 24.7478 14.2831 24.4715C14.5604 24.1952 14.9366 24.04 15.3287 24.04H18.2013C18.5935 24.04 18.9696 24.1952 19.2469 24.4715C19.5242 24.7478 19.68 25.1225 19.68 25.5131ZM9.72133 37.768H7.37873C6.98656 37.768 6.61045 37.6128 6.33314 37.3366C6.05583 37.0603 5.90003 36.6856 5.90003 36.2949V33.4332C5.90003 33.0425 6.05583 32.6678 6.33314 32.3915C6.61045 32.1152 6.98656 31.96 7.37873 31.96H9.72133C10.1135 31.96 10.4896 32.1152 10.7669 32.3915C11.0442 32.6678 11.2 33.0425 11.2 33.4332V36.2949C11.2 36.6856 11.0442 37.0603 10.7669 37.3366C10.4896 37.6128 10.1135 37.768 9.72133 37.768ZM9.72133 29.848H7.37873C6.98656 29.848 6.61045 29.6928 6.33314 29.4166C6.05583 29.1403 5.90003 28.7656 5.90003 28.3749V25.5131C5.90003 25.1225 6.05583 24.7478 6.33314 24.4715C6.61045 24.1952 6.98656 24.04 7.37873 24.04H9.72133C10.1135 24.04 10.4896 24.1952 10.7669 24.4715C11.0442 24.7478 11.2 25.1225 11.2 25.5131V28.3749C11.2 28.7656 11.0442 29.1403 10.7669 29.4166C10.4896 29.6928 10.1135 29.848 9.72133 29.848ZM9.72133 21.928H7.37873C6.98656 21.928 6.61045 21.7728 6.33314 21.4966C6.05583 21.2203 5.90003 20.8456 5.90003 20.4549V17.5931C5.90003 17.2025 6.05583 16.8278 6.33314 16.5515C6.61045 16.2752 6.98656 16.12 7.37873 16.12H9.72133C10.1135 16.12 10.4896 16.2752 10.7669 16.5515C11.0442 16.8278 11.2 17.2025 11.2 17.5931V20.4549C11.2 20.8456 11.0442 21.2203 10.7669 21.4966C10.4896 21.7728 10.1135 21.928 9.72133 21.928ZM12.0056 11.801L10.3732 10.9456L8.74083 11.801L9.08003 9.99523L7.73913 8.72803L9.56234 8.46403L10.3785 6.81667L11.2 8.44819L13.0232 8.71219L11.6982 9.99523L12.0056 11.801ZM15.6838 8.44819L16.5 6.80083L17.3162 8.44819L19.15 8.72803L17.8197 9.99523L18.1324 11.8063L16.5 10.9509L14.8676 11.8063L15.1803 9.99523L13.85 8.72803L15.6838 8.44819ZM19.68 40.936H13.85V31.96H19.68V40.936ZM20.4591 8.72803L22.2823 8.46403L23.0985 6.81667L23.92 8.44819L25.7432 8.71219L24.4182 9.99523L24.7309 11.8063L23.0985 10.9509L21.4661 11.8063L21.8 9.99523L20.4591 8.72803ZM26.1513 37.768H23.2787C22.8866 37.768 22.5104 37.6128 22.2331 37.3366C21.9558 37.0603 21.8 36.6856 21.8 36.2949V33.4332C21.8 33.0425 21.9558 32.6678 22.2331 32.3915C22.5104 32.1152 22.8866 31.96 23.2787 31.96H26.1513C26.3455 31.96 26.5378 31.9981 26.7172 32.0722C26.8966 32.1462 27.0596 32.2547 27.1969 32.3915C27.3342 32.5283 27.4432 32.6907 27.5175 32.8694C27.5918 33.0481 27.63 33.2397 27.63 33.4332V36.2949C27.63 36.4884 27.5918 36.6799 27.5175 36.8586C27.4432 37.0374 27.3342 37.1998 27.1969 37.3366C27.0596 37.4734 26.8966 37.5819 26.7172 37.6559C26.5378 37.7299 26.3455 37.768 26.1513 37.768Z" fill="black"/>
</svg>
