<svg width="35" height="27" viewBox="0 0 35 27" fill="none" xmlns="http://www.w3.org/2000/svg">
<path d="M7.74202 6.75849C7.74202 6.25929 8.15202 5.84329 8.64402 5.84329H14.958C15.45 5.84329 15.86 6.25929 15.86 6.75849V8.08969H19.099V6.75849C19.099 6.25929 19.509 5.84329 20.001 5.84329H26.356C26.848 5.84329 27.258 6.25929 27.258 6.75849V8.08969H30.497V0.518487C30.497 0.227287 30.292 0.0192871 30.005 0.0192871H28.488C28.201 0.0192871 27.996 0.227287 27.996 0.518487V1.51689H7.00402V0.518487C7.00402 0.227287 6.79902 0.0192871 6.51202 0.0192871H4.99502C4.70802 0.0192871 4.50302 0.227287 4.50302 0.518487V8.08969H7.74202V6.75849Z" fill="black"/>
<path d="M34.351 16.7841L30.62 9.62891H27.258V10.9601C27.258 11.4593 26.848 11.8753 26.356 11.8753H20.001C19.509 11.8753 19.099 11.4593 19.099 10.9601V9.62891H15.86V10.9601C15.86 11.4593 15.45 11.8753 14.958 11.8753H8.64401C8.15201 11.8753 7.74202 11.4593 7.74202 10.9601V9.62891H4.38002L0.690015 16.7841C0.526015 17.1169 0.403015 17.4913 0.403015 17.8657V25.9361C0.403015 26.2689 0.690015 26.5601 1.01802 26.5601H2.90401C3.23201 26.5601 3.51901 26.2689 3.51901 25.9361V23.3985H31.44V25.9361C31.44 26.2689 31.727 26.5601 32.055 26.5601H33.941C34.269 26.5601 34.556 26.2689 34.556 25.9361V17.8657C34.597 17.4913 34.515 17.1169 34.351 16.7841Z" fill="black"/>
</svg>
