<svg width="42" height="35" viewBox="0 0 42 35" fill="none" xmlns="http://www.w3.org/2000/svg">
<path d="M13.136 17.4208V19.9768H28.412V17.4208C28.412 14.3536 30.92 11.8544 33.998 11.8544H34.226V8.27598C34.226 6.62878 33.485 5.03839 32.231 3.95919C30.293 2.36879 26.816 0.494385 20.831 0.494385C14.846 0.494385 11.312 2.31199 9.43097 3.95919C8.11997 5.03839 7.43597 6.62878 7.43597 8.27598V11.8544H7.54997C10.628 11.8544 13.136 14.3536 13.136 17.4208Z" fill="black"/>
<path d="M36.62 14.5808H33.998C32.402 14.5808 31.148 15.8304 31.148 17.4208V21.5672C31.148 22.192 30.635 22.7032 30.008 22.7032H11.54C10.913 22.7032 10.4 22.192 10.4 21.5672V17.4208C10.4 15.8304 9.14599 14.5808 7.54999 14.5808H4.92799C2.41999 14.5808 0.424988 16.5688 0.424988 19.068C0.424988 21.5672 2.41999 23.5552 4.92799 23.5552V28.0992C4.92799 29.9168 6.35299 31.3936 8.11999 31.4504V33.3248C8.11999 34.0632 8.74699 34.688 9.48799 34.688H12.623C13.364 34.688 13.991 34.0632 13.991 33.3248V31.5072H27.557V33.3248C27.557 34.0632 28.184 34.688 28.925 34.688H32.06C32.801 34.688 33.428 34.0632 33.428 33.3248V31.4504C35.195 31.3368 36.62 29.86 36.62 28.0992V23.5552C39.128 23.5552 41.123 21.5672 41.123 19.068C41.123 16.5688 39.128 14.5808 36.62 14.5808Z" fill="black"/>
</svg>
