<svg width="70" height="79" viewBox="0 0 70 79" fill="none" xmlns="http://www.w3.org/2000/svg">
<path d="M29.2345 39.8154C17.7193 36.315 13.303 25.2579 14.7751 16.8832C16.4762 7.20006 24.6219 0.133959 34.4359 0.00310508C43.8901 -0.160462 52.1339 6.15323 54.4238 15.3784C55.7324 20.6453 55.0127 25.7159 52.2647 30.4266C49.5168 35.1046 45.4931 38.1797 40.3243 39.8154C40.4552 39.8154 40.6188 39.8154 40.7496 39.8154C42.7778 39.8154 44.8061 39.8154 46.8343 39.8154C51.8395 39.8481 56.3212 41.3856 60.3123 44.3625C64.2052 47.274 66.9204 51.0361 68.4579 55.6814C69.0795 57.6115 69.472 59.607 69.5375 61.6352C69.701 67.262 69.5702 72.8887 69.6029 78.4827C69.6029 78.7444 69.5374 78.9079 69.243 78.8752C69.1449 78.8752 69.014 78.8752 68.9159 78.8752C46.18 78.8752 23.4442 78.8752 0.708347 78.8752C0.577493 78.8752 0.446638 78.8752 0.348498 78.8752C0.119504 78.9079 -0.01135 78.8098 0.0213634 78.5481C0.0213634 78.5154 0.0213634 78.4827 0.0213634 78.45C0.0213634 72.9214 -0.0440627 67.3601 0.0540776 61.8315C0.119505 57.7096 1.39533 53.9149 3.65256 50.4145C6.59677 45.8674 10.6532 42.6942 15.7892 40.9603C17.9811 40.2079 20.2056 39.8154 22.5282 39.8154C24.72 39.8154 26.9772 39.8154 29.2345 39.8154ZM34.7631 75.0478C44.9042 75.0478 55.0127 75.0478 65.1538 75.0478C65.6118 75.0478 65.71 74.9169 65.71 74.4916C65.6773 70.4352 65.71 66.4114 65.71 62.3549C65.71 61.5371 65.6118 60.7193 65.5137 59.9014C64.9576 56.4011 63.5836 53.2279 61.2609 50.5127C57.4662 46.0636 52.5919 43.7083 46.7689 43.6428C38.8195 43.5447 30.8374 43.6101 22.8881 43.6428C21.8085 43.6428 20.7617 43.741 19.7149 43.9373C15.3313 44.7551 11.6346 46.8161 8.69043 50.1528C5.61536 53.6859 3.97969 57.7751 3.94698 62.4531C3.91426 66.4441 3.94698 70.4352 3.91426 74.4262C3.91426 74.9169 4.04512 75.0151 4.50311 75.0151C14.5461 75.0478 24.6546 75.0478 34.7631 75.0478ZM51.1198 20.2854C51.2506 11.3874 43.9882 3.92872 34.8939 3.86329C25.7341 3.79787 18.439 11.1257 18.4063 20.1873C18.3736 29.4779 25.9631 36.5767 34.7303 36.6095C43.7593 36.6422 51.2179 29.1835 51.1198 20.2854Z" fill="#A79ECC"/>
<path d="M35.8099 63.1401C34.9593 63.1401 34.1415 63.1401 33.2909 63.1401C33.0292 63.1401 32.8984 63.0747 32.7675 62.813C31.4263 60.0323 31.6226 57.4152 33.5199 54.9617C34.0761 54.242 34.6649 53.5223 35.221 52.8354C35.6136 52.3774 35.9735 51.8867 36.2352 51.3305C36.4969 50.7744 36.4314 50.6763 35.8426 50.6108C34.9593 50.5127 34.1415 50.709 33.3891 51.167C33.3237 51.1997 33.2255 51.2651 33.1601 51.3305C31.917 52.2138 30.7393 52.083 29.7252 50.9707C28.7438 49.8584 28.5802 48.5499 28.9401 47.1432C29.0055 46.8815 29.2018 46.6525 29.4308 46.489C31.1646 45.4094 32.9965 44.6243 35.0248 44.4607C36.5296 44.3299 38.0017 44.5589 39.3429 45.2786C42.4507 46.8815 43.5957 50.4146 42.0581 53.6859C41.502 54.8636 40.7169 55.8123 39.8336 56.761C39.4738 57.1208 39.1467 57.5134 38.8195 57.9059C38.1652 58.6584 37.9363 59.5089 38.2634 60.4903C38.4924 61.21 38.7214 61.9624 38.7541 62.7475C38.7868 63.042 38.6887 63.1401 38.3942 63.1401C37.5764 63.1401 36.6931 63.1401 35.8099 63.1401ZM35.2865 61.1773C35.5482 61.1773 35.7772 61.1773 36.0389 61.1773C36.3333 61.21 36.4641 61.1446 36.366 60.7847C35.9407 59.3453 36.3006 58.0368 37.1838 56.8591C37.6418 56.2376 38.2307 55.6814 38.7541 55.0926C39.4084 54.4056 39.9645 53.6532 40.357 52.7699C41.5674 50.0874 40.2916 47.4049 37.4456 46.6852C35.0902 46.0964 32.9965 46.7507 30.9683 47.9283C30.8374 47.9938 30.8047 48.0919 30.772 48.2228C30.7066 48.7789 30.8047 49.3023 31.2627 49.6949C31.4917 49.8912 31.688 49.9566 31.9824 49.7603C33.1274 48.9752 34.4359 48.5826 35.8426 48.6153C37.1184 48.648 38.0671 49.335 38.2961 50.3491C38.4924 51.1015 38.2634 51.7885 37.9035 52.4428C37.3474 53.4242 36.595 54.2748 35.8753 55.1253C35.1883 55.9104 34.6649 56.761 34.2396 57.677C33.8798 58.4294 33.7816 59.2145 33.9779 60.0323C34.1742 61.1773 34.1742 61.1773 35.2865 61.1773Z" fill="#038ED2"/>
<path d="M31.7534 68.9637C31.7534 66.6737 33.5854 64.8418 35.8753 64.8418C38.1653 64.8418 40.0299 66.6737 40.0299 68.9637C40.0299 71.2536 38.198 73.0856 35.8753 73.0856C33.5854 73.0856 31.7534 71.2536 31.7534 68.9637ZM35.9407 66.87C34.7303 66.87 33.7817 67.7533 33.7817 68.931C33.7817 70.1087 34.6976 71.0574 35.908 71.0574C37.0857 71.0574 38.0017 70.1414 38.0017 68.9964C38.0017 67.8187 37.0857 66.87 35.9407 66.87Z" fill="#038ED2"/>
</svg>
