<svg width="92" height="67" viewBox="0 0 92 67" fill="none" xmlns="http://www.w3.org/2000/svg">
<path d="M45.3086 15.3355C49.5622 15.3355 53.8473 15.304 58.1009 15.3355C60.464 15.367 62.5751 16.0917 64.2135 17.8876C65.4423 19.2425 66.1985 20.7864 66.356 22.6454C66.4821 24.3153 66.3875 25.9537 66.419 27.5921C66.419 27.9702 66.5451 28.1278 66.8917 28.0963C68.5301 28.0017 70.2315 29.3881 70.263 31.6567C70.2945 34.4609 70.263 37.2336 70.263 40.0378C70.263 42.1489 69.5068 43.8818 67.7739 45.1736C66.7026 45.9614 65.5053 46.1819 64.245 46.2134C63.6463 46.2134 63.6463 46.2134 63.6463 46.8121C63.6148 47.8833 63.7409 48.9231 63.5833 49.9944C63.4573 50.7821 63.0162 51.1602 62.26 51.1602C61.1257 51.1602 59.9914 51.1602 58.8571 51.1602C57.9119 51.1602 57.4392 50.6876 57.4077 49.7108C57.4077 48.7026 57.3762 47.6943 57.4077 46.6545C57.4077 46.3394 57.3447 46.2134 56.9981 46.2134C49.1526 46.2134 41.3071 46.2134 33.4616 46.2134C33.1465 46.2134 33.0835 46.3079 33.052 46.623C33.0205 47.6313 33.1465 48.608 33.0835 49.6163C32.9889 50.6561 32.5478 51.1287 31.5081 51.1287C30.4683 51.1287 29.4285 51.1287 28.3888 51.1287C27.3175 51.1287 26.8449 50.6561 26.8449 49.5533C26.8449 48.6395 26.8449 47.7258 26.8449 46.8121C26.8449 46.0874 26.9079 46.1504 26.1832 46.1819C24.8284 46.2134 23.5995 45.8668 22.5598 45.0161C21.2364 43.9763 20.3857 42.653 20.2912 40.9201C20.1336 37.7692 20.1967 34.5869 20.2282 31.4361C20.2597 29.5456 21.6775 28.1593 23.5365 28.0647C24.0722 28.0332 24.1667 27.9387 24.1037 27.1195C24.0091 25.8592 24.0406 24.5989 24.0406 23.307C24.0722 19.274 27.1284 15.9026 30.9409 15.43C32.1382 15.2725 33.304 15.2725 34.5013 15.2725C38.0933 15.304 41.7167 15.304 45.3086 15.3355C45.3086 15.304 45.3086 15.3355 45.3086 15.3355ZM30.3108 32.1608C31.4766 31.3101 32.7684 31.2471 34.0602 31.2471C39.07 31.2471 44.0798 31.2471 49.0896 31.2471C51.7363 31.2471 54.3829 31.2471 56.9981 31.2471C57.9118 31.2471 58.7626 31.4361 59.5818 31.8142C60.1489 32.0663 60.1174 32.0663 60.1804 31.4361C60.3065 30.2388 60.7476 29.199 61.8504 28.5374C62.4175 28.2223 63.0162 28.1908 63.6148 28.1278C63.9614 28.0963 64.0244 27.9702 64.0244 27.6551C63.9929 26.3948 64.0244 25.103 63.9929 23.8427C63.9614 23.307 63.9614 22.7399 63.8354 22.2042C63.4258 20.1877 61.6613 18.3603 59.6448 17.9506C58.7626 17.7616 57.8803 17.7301 56.9666 17.7301C55.6118 17.7301 54.2569 17.7931 52.9021 17.7931C47.7978 17.7931 42.6934 17.7931 37.5891 17.7931C37.2425 17.7931 36.8644 17.7931 36.5179 17.7931C34.7534 17.6986 32.9889 17.6986 31.2245 17.8876C28.7669 18.1712 26.6873 20.4083 26.4983 22.8659C26.3722 24.4728 26.4668 26.0482 26.4038 27.6551C26.4038 27.9387 26.4983 28.0332 26.7819 28.0332C28.0422 28.1278 29.0819 28.6004 29.7436 29.7347C30.2162 30.4594 30.2793 31.2471 30.3108 32.1608ZM45.2456 43.7873C51.5472 43.7873 57.8488 43.7873 64.1189 43.7873C64.497 43.7873 64.9066 43.7558 65.2532 43.6613C66.7026 43.3147 67.7739 42.0228 67.7739 40.5104C67.8054 37.6117 67.7739 34.713 67.7739 31.8142C67.7739 31.6252 67.7109 31.4676 67.7109 31.2786C67.6479 30.869 67.3958 30.6484 67.0177 30.5854C65.9779 30.3963 64.9066 30.4594 63.8669 30.4909C63.0162 30.5224 62.7956 30.7114 62.6381 31.5306C62.6066 31.6882 62.6066 31.8457 62.6066 32.0348C62.6066 33.6732 62.6066 35.3116 62.6066 36.95C62.6066 38.1158 62.1339 38.5569 60.9681 38.5569C50.6335 38.5569 40.3303 38.5569 29.9957 38.5569C29.6491 38.5569 29.271 38.5254 28.9244 38.4939C28.3888 38.4309 28.1052 38.1158 27.9477 37.6432C27.8531 37.3911 27.8846 37.1391 27.8846 36.887C27.8846 35.2171 27.9161 33.5472 27.8846 31.8772C27.8846 30.9005 27.5696 30.6169 26.6243 30.4909C25.7421 30.3333 24.8284 30.5224 23.9461 30.5224C23.0009 30.5224 22.6858 30.8375 22.6858 31.7827C22.6543 32.917 22.6858 34.0828 22.6228 35.2171C22.5598 36.7295 22.5913 38.2419 22.6228 39.7227C22.6228 40.1639 22.6543 40.6365 22.7488 41.0461C23.1269 42.716 24.4503 43.7243 26.2777 43.7243C32.5793 43.7873 38.9125 43.7873 45.2456 43.7873ZM45.1826 36.0993C46.4744 36.0993 47.7662 36.0993 49.0896 36.0993C52.6185 36.0993 56.1159 36.0993 59.6448 36.0993C60.1489 36.0993 60.1804 36.0678 59.9914 35.5952C59.6448 34.7445 59.0461 34.1143 58.1324 33.8622C57.5338 33.7047 56.9351 33.6732 56.3049 33.6732C50.4444 33.6732 44.5839 33.6732 38.7234 33.6732C37.022 33.6732 35.289 33.6732 33.5876 33.6732C32.2012 33.6732 31.0985 34.2088 30.4998 35.5322C30.2792 36.0363 30.3108 36.0678 30.8779 36.0678C35.6356 36.0993 40.4249 36.0993 45.1826 36.0993ZM30.6258 47.4107C30.6258 47.3477 30.6258 47.2532 30.6258 47.1902C30.6258 46.1504 30.6258 46.1504 29.6176 46.2134C29.3655 46.2134 29.3025 46.3079 29.3025 46.56C29.3025 47.1272 29.334 47.6943 29.3025 48.2614C29.3025 48.545 29.397 48.6395 29.6806 48.6395C30.6573 48.6395 30.6573 48.671 30.6573 47.6943C30.6258 47.5998 30.6258 47.5052 30.6258 47.4107ZM61.1887 47.4422C61.1887 47.1271 61.1887 46.8121 61.1887 46.497C61.1887 46.4025 61.2202 46.2449 61.0942 46.2449C60.7161 46.2134 60.338 46.2134 59.9914 46.2449C59.8654 46.2449 59.8654 46.4025 59.8654 46.497C59.8654 47.1271 59.8654 47.7573 59.8654 48.3875C59.8654 48.5135 59.8654 48.6395 60.0229 48.6395C60.401 48.6395 60.8106 48.7656 61.1257 48.5765C61.3462 48.4505 61.1887 48.0409 61.2202 47.7573C61.1887 47.6313 61.1887 47.5368 61.1887 47.4422Z" fill="#A79ECD"/>
<path d="M81.9525 27.308C82.3936 28.2217 82.7717 29.0725 83.2759 29.8286C83.5594 30.2698 83.8745 30.6794 84.1896 31.1205C84.3786 31.4041 84.5047 31.3725 84.5992 31.0575C85.1978 29.5766 85.639 28.0642 85.891 26.4573C86.8048 20.4707 85.4814 15.0198 81.7635 10.2306C78.6126 6.16607 74.4851 3.5824 69.4438 2.63716C62.9531 1.40834 57.1241 2.88922 51.9883 7.0798C51.6732 7.33187 51.4842 7.36337 51.2321 7.01678C50.9801 6.67019 50.6965 6.35511 50.3814 6.04003C50.1608 5.81948 50.1608 5.69344 50.4129 5.47289C51.4842 4.59066 52.6185 3.77145 53.8158 3.07827C56.1474 1.75493 58.605 0.809689 61.2517 0.368575C64.9381 -0.261587 68.5616 -0.104046 72.122 0.998737C76.0605 2.19604 79.4319 4.30709 82.2361 7.33186C85.4499 10.7978 87.4349 14.8938 88.1596 19.5885C88.7268 23.338 88.4117 26.9929 87.1829 30.5533C86.9308 31.278 86.6472 32.0027 86.3321 32.6959C86.2061 32.9795 86.2061 33.1055 86.4582 33.326C87.9706 34.4918 89.6405 35.2795 91.468 35.8152C91.5625 35.8467 91.6255 35.8467 91.72 35.8782C91.7515 35.8782 91.8145 35.9097 91.9091 35.9727C86.8993 38.3988 81.9525 40.7935 76.8797 43.2826C78.5811 37.9262 80.2511 32.6644 81.9525 27.308Z" fill="#67C3D0"/>
<path d="M0 30.3018C5.00979 27.8757 9.95656 25.4811 14.9979 23.0234C13.2964 28.3483 11.6265 33.5787 9.95656 38.809C9.76751 38.809 9.79902 38.6515 9.76751 38.5884C9.20036 37.3596 8.53869 36.1938 7.68798 35.1541C7.62496 35.091 7.59345 34.9335 7.46742 34.965C7.34139 34.9965 7.30988 35.1225 7.27837 35.2486C6.58519 36.887 6.11257 38.6199 5.89201 40.3844C5.67146 42.0858 5.63995 43.8188 5.829 45.5517C6.14408 48.2929 6.96329 50.9081 8.28663 53.3342C9.07433 54.8151 10.0511 56.1385 11.1854 57.3673C13.1389 59.4783 15.439 61.1482 18.0541 62.314C20.0076 63.1963 22.0242 63.7319 24.1352 63.984C25.5531 64.1415 26.9709 64.2045 28.4203 64.047C30.3423 63.8264 32.2328 63.4483 34.0287 62.7236C36.2343 61.8414 38.2508 60.6441 40.0468 59.1317C40.2358 58.9742 40.3304 58.9427 40.4879 59.1632C40.803 59.5728 41.1811 59.9509 41.5277 60.329C41.6852 60.5181 41.6852 60.6441 41.4962 60.8017C39.7632 62.2195 37.9357 63.4168 35.8877 64.3306C33.9972 65.1813 32.0437 65.7484 29.9957 66.0635C28.1367 66.3471 26.2777 66.3471 24.3873 66.1895C21.9296 66.0005 19.5665 65.3703 17.2979 64.3936C14.9033 63.3538 12.7293 61.9044 10.8073 60.1085C8.79076 58.218 7.15234 56.0124 5.89201 53.5233C4.82074 51.4122 4.12756 49.1752 3.74946 46.8436C3.43438 44.9531 3.46589 43.0311 3.59192 41.1091C3.74946 38.9035 4.34812 36.824 5.0728 34.7445C5.19884 34.3348 5.38788 33.9567 5.60844 33.5787C5.73447 33.3266 5.73447 33.169 5.51392 33.0115C4.41113 32.1608 3.24533 31.4991 1.9535 30.995C1.32334 30.7429 0.693178 30.5224 0 30.3018Z" fill="#A79ECD"/>
<path d="M45.2771 21.0373C41.1811 21.0373 37.085 21.0373 32.9575 21.0373C32.5164 21.0373 32.0753 21.0688 31.6341 21.1319C30.6889 21.2579 29.7752 22.1716 29.6491 23.0854C29.6176 23.3689 29.5546 23.684 29.4601 23.9676C29.3025 24.5662 28.7984 24.9128 28.1998 24.8813C27.6641 24.8498 27.223 24.5032 27.1285 23.9046C26.9394 22.7388 27.3175 21.7305 27.9477 20.7853C28.9875 19.3359 30.4368 18.6112 32.2013 18.6112C39.9838 18.5797 47.7663 18.6112 55.5488 18.5797C56.8721 18.5797 58.164 18.4852 59.4558 18.8003C61.5353 19.2729 62.7326 20.6592 63.2368 22.6757C63.3628 23.2429 63.4258 23.8415 63.1107 24.3772C62.8587 24.8183 62.4491 24.9758 61.9134 24.8813C61.4408 24.7868 61.0312 24.4402 60.9367 23.9991C60.8737 23.7155 60.8737 23.4004 60.8106 23.1169C60.4956 21.8565 59.4873 21.0688 58.1325 21.0373C55.8639 21.0058 53.5953 21.0373 51.3267 21.0373C49.3417 21.0688 47.3252 21.0688 45.2771 21.0373C45.2771 21.0688 45.2771 21.0688 45.2771 21.0373Z" fill="#A79ECD"/>
</svg>
