<svg width="71" height="95" viewBox="0 0 71 95" fill="none" xmlns="http://www.w3.org/2000/svg">
<path d="M53.295 12.9179C56.727 12.7199 60.06 13.1159 63.129 14.7659C66.825 16.7459 69.366 19.6829 70.389 23.8409C70.62 24.7649 70.719 25.7219 70.719 26.6789C70.719 44.6309 70.752 62.5499 70.719 80.5019C70.719 84.5279 69.036 87.8279 66.033 90.4679C64.053 92.1839 61.776 93.2729 59.235 93.8999C58.113 94.1639 56.958 94.2959 55.803 94.2959C42.141 94.2959 28.479 94.3619 14.85 94.2629C9.372 94.2299 4.95 91.8869 1.881 87.2339C0.858 85.6829 0.264 83.9339 0.0660003 82.0859C2.50787e-07 81.5249 0 80.9969 0 80.4689C0 62.5829 0 44.6969 0 26.8109C0 23.3459 1.221 20.3759 3.564 17.8679C6.105 15.1619 9.273 13.6439 12.936 13.1159C14.322 12.9179 15.708 12.8849 17.094 12.9839C16.5 13.8749 16.005 14.8319 15.576 15.8219C12.87 15.7559 10.329 16.3829 8.052 17.8679C4.851 19.8809 2.871 22.6859 2.871 26.6129C2.871 44.5979 2.871 62.6159 2.871 80.6009C2.871 83.2739 3.861 85.5509 5.676 87.4319C8.217 90.0719 11.385 91.3259 14.982 91.3589C28.545 91.3919 42.108 91.3919 55.671 91.3589C58.311 91.3589 60.72 90.6329 62.898 89.1809C66.099 87.0029 67.848 84.0659 67.848 80.1059C67.815 62.3849 67.848 44.6639 67.848 26.9759C67.848 26.5139 67.815 26.0849 67.782 25.6229C67.485 22.7849 66.099 20.5079 63.921 18.7589C61.281 16.6139 58.212 15.7229 54.813 15.8219C54.45 14.7659 53.955 13.8089 53.295 12.9179Z" fill="#A79ECD"/>
<path d="M15.543 15.7885C15.972 14.7985 16.467 13.8415 17.061 12.9505C17.655 12.3235 18.216 11.6635 18.975 11.1685C20.097 10.4095 21.318 9.98052 22.704 9.98052C23.628 9.98052 24.585 9.98052 25.509 9.98052C25.806 9.98052 25.938 9.91452 25.872 9.58452C25.278 4.96452 28.842 0.97152 33.528 0.17952C37.092 -0.41448 40.227 0.44352 42.768 3.08352C44.451 4.83252 45.243 6.94452 45.012 9.41952C44.946 10.0135 44.979 10.0135 45.54 10.0135C46.629 10.0465 47.685 9.91452 48.774 10.0795C50.589 10.3765 52.008 11.3665 53.13 12.7525C53.196 12.8185 53.262 12.8845 53.328 12.9505C53.955 13.8415 54.483 14.7985 54.846 15.8215C55.44 17.5705 55.605 19.3855 55.572 21.2335C55.572 21.8275 55.572 21.8275 54.978 21.8275C41.811 21.8275 28.677 21.8275 15.51 21.8275C15.411 21.8275 15.279 21.8275 15.18 21.8275C14.982 21.8275 14.916 21.7285 14.916 21.5635C14.949 20.6725 14.883 19.7815 14.949 18.8905C15.015 17.8015 15.279 16.8115 15.543 15.7885ZM35.178 18.9235C40.755 18.9235 46.332 18.9235 51.909 18.9235C52.041 18.9235 52.173 18.9235 52.272 18.9235C52.503 18.9565 52.569 18.8575 52.536 18.6265C52.272 17.1085 51.81 15.6565 50.787 14.4685C50.028 13.5775 49.104 12.9175 47.883 12.8845C46.629 12.8515 45.375 12.8845 44.121 12.8845C43.857 12.8845 43.725 12.9835 43.593 13.1815C43.263 13.6765 42.9 14.1385 42.438 14.5345C40.161 16.6465 37.455 17.5375 34.386 17.2405C31.383 16.9435 28.908 15.6235 27.159 13.1155C27.027 12.9175 26.862 12.8845 26.631 12.8845C25.278 12.8845 23.925 12.8845 22.539 12.8845C21.681 12.8845 20.955 13.1815 20.295 13.7425C18.81 14.9965 18.15 16.6795 17.787 18.5275C17.688 18.9895 17.985 18.9565 18.282 18.9565C23.958 18.9235 29.568 18.9235 35.178 18.9235ZM35.244 14.4025C37.026 14.3695 38.511 13.9405 39.831 12.9835C42.405 11.1025 42.9 7.83552 40.986 5.39352C38.379 2.06052 32.571 2.02752 29.931 5.32752C28.446 7.14252 28.281 9.51852 29.535 11.3995C30.921 13.4785 33 14.3035 35.244 14.4025Z" fill="#7F72B1"/>
<path d="M35.376 34.7959C42.57 34.7959 49.797 34.7959 56.991 34.7959C57.519 34.7959 58.047 34.8289 58.575 34.7959C58.839 34.7959 58.938 34.8949 58.905 35.1589C58.905 35.2579 58.905 35.3569 58.905 35.4559C58.905 47.1379 58.839 58.8199 58.938 70.5019C58.971 75.7489 55.308 79.4119 50.754 80.3689C49.995 80.5339 49.236 80.5999 48.477 80.5999C39.699 80.5999 30.921 80.5999 22.143 80.5999C18.975 80.5999 16.236 79.4779 14.091 77.1019C12.573 75.4519 11.781 73.5049 11.781 71.2279C11.781 59.2489 11.781 47.2699 11.781 35.2909C11.781 34.8289 11.979 34.8289 12.309 34.8289C19.998 34.8289 27.687 34.8289 35.376 34.7959C35.376 34.8289 35.376 34.8289 35.376 34.7959ZM35.376 37.7329C28.644 37.7329 21.912 37.7329 15.18 37.7329C14.784 37.7329 14.685 37.8319 14.685 38.2279C14.685 49.2169 14.685 60.2059 14.685 71.1949C14.685 72.5149 15.081 73.7359 15.906 74.7589C17.49 76.7719 19.602 77.7289 22.143 77.7289C30.954 77.7619 39.732 77.7289 48.543 77.7289C49.599 77.7289 50.622 77.5309 51.612 77.1349C54.054 76.1779 56.1 73.9669 56.067 70.7329C56.001 59.9089 56.034 49.1179 56.067 38.2939C56.067 37.8649 55.968 37.7329 55.506 37.7329C48.774 37.7329 42.075 37.7329 35.376 37.7329Z" fill="#7F72B1"/>
<path d="M52.437 51.3628C52.437 51.5278 52.272 51.5938 52.173 51.6598C50.589 52.8478 49.005 54.0358 47.388 55.1908C43.461 58.0948 39.534 60.9988 35.64 63.9028C34.155 64.9918 32.67 66.1138 31.152 67.2358C30.954 67.4008 30.789 67.4998 30.525 67.2688C27.555 64.5298 24.552 61.7908 21.549 59.0518C21.087 58.6228 21.087 58.6228 21.516 58.1608C21.945 57.6988 22.374 57.2368 22.77 56.7748C22.935 56.5768 23.067 56.5438 23.298 56.7418C24.618 57.9628 25.938 59.1508 27.258 60.3718C28.413 61.4278 29.535 62.4508 30.657 63.5068C30.855 63.7048 31.02 63.7048 31.251 63.5398C32.769 62.3848 34.287 61.2628 35.838 60.1408C38.181 58.4248 40.524 56.7088 42.834 54.9598C45.309 53.1448 47.751 51.2968 50.226 49.4488C50.721 49.0858 50.721 49.0528 51.117 49.5808C51.513 50.1088 51.876 50.6368 52.272 51.1648C52.338 51.2638 52.404 51.2968 52.437 51.3628Z" fill="#A79ECD"/>
</svg>
