<svg width="75" height="81" viewBox="0 0 75 81" fill="none" xmlns="http://www.w3.org/2000/svg">
<path d="M42.6168 61.1921C37.5398 61.1921 32.4927 61.1921 27.4157 61.1921C26.6094 61.1921 26.2808 60.9532 25.9822 60.2066C24.8772 57.6382 23.7424 55.0698 22.6075 52.4716C21.7713 50.5603 20.9649 48.6788 20.1287 46.7675C19.2925 44.8263 18.4563 42.8552 17.5902 40.914C16.4554 38.3158 15.3205 35.7176 14.1857 33.1193C12.8119 29.9836 11.4083 26.8478 10.0345 23.712C9.85532 23.2939 9.6164 23.1147 9.13857 23.1446C8.00371 23.1744 6.83899 23.1147 5.70414 23.1744C4.24077 23.264 2.80727 23.2043 1.34391 23.2342C0.537563 23.264 0 22.7265 0 21.9799C0 21.2332 0.567427 20.6957 1.37377 20.6658C3.28511 20.6359 5.19644 20.6359 7.13764 20.5464C8.30236 20.4866 9.46708 20.5165 10.6019 20.4866C11.1694 20.4568 11.5576 20.7255 11.7965 21.2332C12.0354 21.7111 12.2445 22.1889 12.4237 22.6667C12.573 22.9953 12.7522 23.1446 13.1404 23.1446C18.5459 23.1147 23.9514 23.1446 29.3569 23.1446C30.0736 23.1446 30.6411 23.4731 30.8203 24.0106C31.1189 24.8767 30.5216 25.7428 29.5958 25.7428C28.9985 25.7727 28.3714 25.7428 27.7741 25.7428C23.3242 25.7428 18.8744 25.7428 14.4246 25.7428C13.9169 25.7428 13.9169 25.7428 14.0961 26.2206C15.4997 29.446 16.9332 32.6714 18.3369 35.8968C19.6509 38.9131 20.9649 41.9294 22.3089 44.9159C23.5034 47.5738 24.698 50.2318 25.8627 52.9196C26.6691 54.7115 27.4456 56.5332 28.222 58.3549C28.2818 58.5341 28.3714 58.5939 28.5506 58.5939C28.6401 58.5939 28.7297 58.5939 28.8193 58.5939C38.0774 58.5939 47.3354 58.5939 56.5934 58.5939C56.9816 58.5939 57.1907 58.4744 57.3699 58.116C58.5047 55.4581 59.6396 52.8001 60.8043 50.1422C61.8794 47.6933 62.9546 45.2145 64.0297 42.7656C65.1048 40.3167 66.1799 37.8678 67.2252 35.4488C68.3899 32.7311 69.5546 30.0433 70.7194 27.3256C70.8985 26.9075 71.0777 26.4595 71.2868 26.0713C71.4062 25.8025 71.3465 25.7428 71.0777 25.7727C70.9881 25.7727 70.8687 25.7727 70.7791 25.7727C66.0605 25.7727 61.3717 25.7727 56.6531 25.7727C56.1156 25.7727 55.6377 25.6532 55.3391 25.1455C54.8015 24.2496 55.369 23.2342 56.4739 23.1446C56.5635 23.1446 56.6531 23.1446 56.7427 23.1446C62.208 23.1446 67.6732 23.1446 73.1683 23.1446C74.0045 23.1446 74.5122 23.5328 74.6913 24.2794C74.7511 24.5482 74.6914 24.7871 74.5719 25.026C73.6461 27.1763 72.6904 29.3564 71.7646 31.5067C70.6298 34.1646 69.465 36.8226 68.3302 39.4805C67.2551 41.9294 66.1799 44.3783 65.1048 46.8571C64.0297 49.306 62.9546 51.7549 61.8794 54.2336C61.0134 56.2346 60.1473 58.2056 59.3111 60.2066C58.9826 60.9532 58.6541 61.1921 57.8477 61.1921C52.7707 61.1921 47.6938 61.1921 42.6168 61.1921Z" fill="#A2D9F6"/>
<path d="M52.4721 18.0681C49.396 24.1007 46.3797 30.0737 43.2738 36.1063C40.1977 30.0737 37.1516 24.1007 34.0755 18.0681C34.7923 18.0681 35.4493 18.0681 36.1063 18.0681C36.823 18.0681 37.5398 18.0382 38.2565 18.0681C38.5851 18.0681 38.6448 17.9785 38.6448 17.65C38.6448 15.1115 38.6448 12.6029 38.6448 10.0644C38.6448 6.86886 38.6448 3.64348 38.6448 0.447969C38.6448 0.0895938 38.7344 0 39.0928 0C41.8702 0.0298646 44.6476 0.0298646 47.3951 0C47.7535 0 47.8431 0.0895938 47.8431 0.447969C47.8431 6.15211 47.8431 11.8861 47.8132 17.5903C47.8132 17.9486 47.8729 18.0979 48.291 18.0979C49.6947 18.0382 51.0386 18.0681 52.4721 18.0681ZM43.2738 30.432C43.3933 30.1931 43.4829 30.0139 43.6023 29.8347C45.0955 26.8781 46.5888 23.9514 48.1119 20.9948C48.2612 20.6962 48.2313 20.6066 47.9028 20.6364C47.2458 20.6663 46.5589 20.6364 45.9019 20.6364C45.2449 20.6364 45.3345 20.726 45.3345 20.0989C45.3345 14.4246 45.3345 8.72046 45.3345 3.04619C45.3345 2.68781 45.2449 2.59822 44.8865 2.59822C43.8711 2.62809 42.8557 2.59822 41.8403 2.59822C41.1833 2.59822 41.2729 2.53849 41.2729 3.16565C41.2729 8.83992 41.2729 14.5441 41.2729 20.2183C41.2729 20.5468 41.1833 20.6663 40.8548 20.6364C40.1679 20.6066 39.481 20.6364 38.7642 20.6364C38.2864 20.6364 38.2864 20.6364 38.4955 21.0545C39.4213 22.8763 40.3471 24.6682 41.2729 26.4899C41.9299 27.7741 42.5869 29.0881 43.2738 30.432Z" fill="#028DD2"/>
<path d="M29.2972 80.2761C26.4302 80.2761 24.2202 79.3801 22.4881 77.4688C21.4129 76.3041 20.7858 74.9004 20.6365 73.2877C20.4274 70.8687 21.2636 68.8678 22.9659 67.2252C24.3695 65.8813 26.1017 65.1646 28.0429 64.9555C30.3126 64.7166 32.3732 65.2542 34.195 66.5682C35.9869 67.8823 37.0919 69.6144 37.3009 71.8841C37.5996 75.0498 36.1362 77.3195 33.5977 78.9919C32.4628 79.7385 30.5216 80.3657 29.2972 80.2761ZM29.2375 67.5239C27.0573 67.5537 25.4447 68.2108 24.1903 69.7339C23.0256 71.1375 22.8464 73.3773 23.8021 74.9303C24.9668 76.8118 26.699 77.648 28.8194 77.7376C30.6411 77.7973 32.2239 77.1701 33.4782 75.8262C34.852 74.3927 35.1507 72.0932 34.1353 70.3909C32.9705 68.39 31.1787 67.6135 29.2375 67.5239Z" fill="#A2D9F6"/>
<path d="M57.9075 80.2762C55.5481 80.2762 53.4576 79.4997 51.7852 77.8273C48.7689 74.8707 48.8585 70.4209 51.6359 67.524C53.0993 66.0009 54.921 65.1647 57.0115 64.9557C59.9681 64.657 62.4767 65.6127 64.4777 67.8227C66.7772 70.391 66.8967 74.363 64.7464 77.021C63.3129 78.8129 61.4315 79.8581 59.1319 80.1568C58.7437 80.2464 58.3256 80.2464 57.9075 80.2762ZM57.8776 77.7079C58.1464 77.7377 58.4152 77.678 58.6839 77.6481C60.2369 77.4689 61.5808 76.8418 62.5962 75.6173C64.3582 73.5268 63.9998 70.4806 61.8197 68.8082C59.4604 67.0462 56.3545 67.0462 54.0549 68.8381C52.054 70.391 51.5164 73.049 52.9798 75.1992C54.1445 76.9314 55.8767 77.6183 57.8776 77.7079Z" fill="#A2D9F6"/>
</svg>
