<svg width="66" height="69" viewBox="0 0 66 69" fill="none" xmlns="http://www.w3.org/2000/svg">
<path d="M2.50665 41.7296C-0.535171 43.3166 -0.733551 43.8787 1.61394 46.4907C4.29206 49.4333 7.1355 52.2437 10.012 54.9879C11.7643 56.6411 13.3514 56.1782 13.8143 53.7976C14.4755 50.4252 15.0376 47.0197 15.3682 43.6142C15.7981 38.6878 15.5997 38.5886 10.8055 39.316C9.84668 34.7202 10.1112 30.1905 12.1611 25.9254C13.5167 23.0819 15.3682 20.503 16.9553 17.7587C18.377 15.3121 18.0464 12.5678 16.2609 11.2783C14.4425 9.95581 12.3595 10.3856 10.3096 12.7662C3.13485 21.1973 0.357536 30.8187 2.50665 41.7296ZM49.4895 54.1283C44.001 58.4596 37.9835 60.1458 31.2717 59.4515C29.7177 59.2861 28.0976 59.1539 26.5767 59.4184C24.3614 59.7821 22.8405 61.1046 22.9067 63.5182C22.9728 65.9649 24.6921 67.0891 26.8742 67.4528C36.694 69.1059 45.8525 67.7173 53.92 61.5014C54.5812 60.9724 55.3086 60.5425 55.9699 60.1127C58.7472 62.6255 59.8713 62.8239 60.5987 60.7409C62.0866 56.4427 63.376 52.0453 64.3679 47.6148C64.8969 45.2673 63.8059 44.4738 61.4584 45.3004C57.6561 46.6229 53.8869 48.0777 50.1838 49.7309C47.5057 50.855 47.5057 51.6155 49.4895 54.1283ZM44.4308 13.0968C49.5887 15.8411 51.7378 17.8249 54.4159 22.8174C55.8376 25.4294 56.7965 28.3059 58.119 30.984C59.2431 33.2323 61.789 34.1581 63.6736 33.2654C65.5582 32.3727 66.3848 30.1905 65.6574 27.843C64.9961 25.76 64.3679 23.644 63.4752 21.6271C60.4665 14.6508 55.507 9.4268 48.8613 5.72372C48.2 5.36003 47.5057 4.13669 47.6049 3.47542C48.1008 0.532796 47.7371 -0.227658 44.7945 0.102974C40.6947 0.565859 36.5948 1.26019 32.5281 2.08677C29.9161 2.61578 29.5193 3.97137 31.4039 5.9221C34.1151 8.73248 36.9585 11.4106 39.835 13.9895C42.3148 16.1056 42.8107 15.9403 44.4308 13.0968Z" fill="#39B54A"/>
<path d="M38.8106 34.4561C38.5461 34.2577 38.3477 33.9932 38.2485 34.0263C38.0832 34.0924 37.951 34.2908 37.7856 34.4561C37.9179 34.5883 38.0502 34.8198 38.2155 34.8198C38.3808 34.8528 38.5461 34.6214 38.8106 34.4561Z" fill="black"/>
<path d="M2.50716 41.7305C0.391112 30.8196 3.16842 21.1982 10.3431 12.8001C12.3931 10.3865 14.476 9.98976 16.2945 11.3123C18.0469 12.6018 18.3775 15.346 16.9888 17.7927C15.4018 20.5369 13.5833 23.1159 12.1947 25.9593C10.1448 30.1914 9.88026 34.7211 10.8391 39.3499C15.6333 38.6225 15.8316 38.7217 15.4018 43.6481C15.1042 47.0536 14.5422 50.4591 13.8478 53.8316C13.385 56.1791 11.7979 56.675 10.0456 55.0219C7.16907 52.2776 4.32564 49.4673 1.64751 46.5246C-0.766101 43.8796 -0.567722 43.3175 2.50716 41.7305Z" fill="#39B54A"/>
<path d="M49.4899 54.1295C47.5061 51.6167 47.5392 50.8893 50.1842 49.699C53.8542 48.0459 57.6565 46.5911 61.4588 45.2686C63.8063 44.442 64.8974 45.2355 64.3683 47.583C63.3434 52.0135 62.087 56.4109 60.5991 60.7091C59.8717 62.7921 58.7476 62.5937 55.9703 60.0809C55.309 60.5107 54.5816 60.9736 53.9204 61.4696C45.8199 67.6854 36.6614 69.0741 26.8746 67.4209C24.6925 67.0572 23.0063 65.9331 22.9071 63.4864C22.8409 61.0728 24.3949 59.7172 26.5771 59.3866C28.098 59.1551 29.7181 59.2543 31.2721 59.4196C37.9839 60.147 43.9683 58.4277 49.4899 54.1295Z" fill="#39B54A"/>
<path d="M44.4312 13.097C42.7781 15.9735 42.3152 16.1057 39.9016 13.9566C36.992 11.3446 34.1486 8.69955 31.4704 5.88918C29.5858 3.93845 29.9826 2.58286 32.5946 2.05384C36.6614 1.22726 40.7281 0.499873 44.861 0.0700513C47.8037 -0.260581 48.1343 0.532937 47.6714 3.4425C47.5722 4.13683 48.2666 5.3271 48.9278 5.6908C55.5735 9.36082 60.533 14.5848 63.5418 21.5942C64.4014 23.6111 65.0627 25.7271 65.7239 27.8101C66.4844 30.1906 65.6247 32.3728 63.7401 33.2325C61.8555 34.1252 59.3097 33.1994 58.1855 30.9511C56.8299 28.273 55.8711 25.4295 54.4824 22.7845C51.7382 17.825 49.5891 15.8412 44.4312 13.097Z" fill="#39B54A"/>
<path d="M38.8106 34.4564C38.5461 34.6548 38.3808 34.8532 38.2155 34.8201C38.0502 34.7871 37.9179 34.5887 37.7856 34.4564C37.951 34.2911 38.0832 34.0927 38.2485 34.0266C38.3477 33.9935 38.5461 34.225 38.8106 34.4564Z" fill="white"/>
</svg>
