<svg width="44" height="77" viewBox="0 0 44 77" fill="none" xmlns="http://www.w3.org/2000/svg">
<path d="M29.5633 11.4545C29.6446 10.9393 29.7531 10.4783 29.8345 10.0174C30.187 7.98368 30.5666 5.97711 30.892 3.94342C31.1089 2.61474 31.7326 1.53011 32.8714 0.797983C33.712 0.255667 34.634 0.0658565 35.6101 0.0116248C37.21 -0.0697226 38.7284 0.282783 40.2198 0.852215C40.9248 1.12337 41.3587 1.66569 41.7112 2.28935C42.3348 3.42822 42.5789 4.67555 42.7687 5.94999C43.1212 8.2006 43.0941 10.4783 43.0941 12.7289C43.0941 14.4915 43.0399 16.2269 42.9856 17.9894C42.9314 19.4808 42.9043 20.9993 42.8229 22.4906C42.7687 23.7922 42.7416 25.1209 42.7958 26.4224C42.85 28.4832 42.8772 30.544 42.9585 32.6048C43.0399 34.2047 43.0127 35.7774 42.9856 37.3772C42.9585 38.489 42.85 39.6007 42.3891 40.6582C41.9281 41.6886 41.1418 42.3665 40.0842 42.7462C39.1081 43.0987 38.1048 43.2614 37.0744 43.3698C35.2305 43.5596 33.3866 43.5867 31.5428 43.641C30.1598 43.6952 28.8041 43.6952 27.4211 43.6952C27.0686 43.6952 26.9873 43.8308 27.0144 44.1291C27.1771 45.3222 27.3398 46.5424 27.5025 47.7355C27.8008 49.742 28.099 51.7215 28.3973 53.7281C28.6414 55.4635 28.9125 57.1989 29.1294 58.9343C29.2921 60.263 29.4277 61.5916 29.5633 62.8932C29.7531 64.9269 29.8345 66.9877 29.7531 69.0485C29.726 70.106 29.5904 71.1364 29.265 72.1397C28.8583 73.4141 27.9635 74.3361 26.9331 75.1224C25.279 76.3969 23.3538 77.0748 21.2659 76.9934C17.6323 76.8579 14.9208 75.1767 13.2938 71.8685C12.7244 70.7026 12.5888 69.401 12.6973 68.0723C12.86 65.6319 13.3752 63.2728 13.7005 60.8595C14.0802 58.1208 14.4869 55.355 14.8394 52.6163C15.1377 50.3928 15.436 48.1422 15.6529 45.9187C15.7071 45.3222 15.7885 44.7256 15.8698 44.1291C15.924 43.7494 15.8427 43.7223 15.4631 43.6952C14.1344 43.641 12.8057 43.7223 11.477 43.6139C11.0974 43.5867 10.7449 43.6139 10.3653 43.5867C8.30449 43.5325 6.24369 43.5054 4.21001 43.1258C3.28807 42.936 2.39325 42.6919 1.634 42.0954C0.87476 41.4988 0.495138 40.6582 0.278212 39.7363C0.0612852 38.7872 0.0341694 37.8111 0.00705359 36.8349C-0.0200622 34.8012 0.0341698 32.7947 0.115517 30.761C0.169749 29.3238 0.169747 27.8596 0.223979 26.4224C0.278211 24.5514 0.278211 22.6533 0.223979 20.7823C0.169747 19.1554 0.22398 17.5556 0.142633 15.9286C0.0341694 13.1628 0.0341698 10.397 0.115517 7.65829C0.142633 6.1398 0.278212 4.62131 0.793413 3.15706C1.41708 1.39453 2.69152 0.472594 4.50828 0.255667C6.40639 0.0116247 8.33161 0.201435 10.2297 0.445478C10.2568 0.445478 10.3111 0.472594 10.3382 0.472594C11.2601 0.36413 11.6126 0.933562 11.9109 1.69281C12.5888 3.45533 13.0226 5.24498 13.2938 7.11597C13.2938 7.1702 13.2938 7.22443 13.3209 7.27866C13.348 7.38713 13.3752 7.49559 13.4294 7.65829C13.7277 6.35673 14.0259 5.1094 14.3242 3.86207C14.5411 2.96725 14.8123 2.09954 15.1648 1.23184C15.3275 0.770868 15.5986 0.553941 16.0867 0.499709C18.256 0.282783 20.4524 0.0387405 22.6488 0.120088C23.7876 0.17432 24.9536 0.282783 26.0654 0.662404C26.689 0.852215 27.1229 1.23184 27.394 1.80127C27.9363 2.91302 28.2889 4.10611 28.5871 5.32633C28.9125 6.70923 29.1566 8.11926 29.3193 9.52928C29.3735 10.0716 29.4548 10.5868 29.4548 11.1291C29.4548 11.1562 29.4006 11.2918 29.5633 11.4545ZM22.1064 32.6048C22.1064 32.6048 22.1064 32.632 22.1064 32.6048C25.9027 32.6048 29.6989 32.6048 33.4951 32.6048C35.339 32.6048 37.1828 32.6048 39.0538 32.6048C39.3792 32.6048 39.4606 32.4964 39.4606 32.1981C39.4606 31.6016 39.4877 31.0321 39.5148 30.4356C39.5961 27.8596 39.6504 25.3107 39.6775 22.7347C39.7046 17.4471 39.786 12.1595 39.4606 6.87193C39.4063 6.03134 39.325 5.21786 39.1623 4.40439C39.1352 4.21458 39.0809 4.10611 38.864 4.10611C37.5625 4.05188 36.288 4.02477 34.9865 3.94342C34.7424 3.94342 34.634 4.02477 34.5797 4.24169C34.4441 4.83824 34.2814 5.40767 34.1459 6.00422C33.8476 7.57694 33.5764 9.14966 33.3324 10.7224C33.1155 12.1866 32.8985 13.6509 32.6816 15.1151C32.4647 16.4438 32.2749 17.7996 32.1122 19.1283C31.8953 20.8366 31.4343 22.4906 31.136 24.1718C31.1089 24.2803 31.1089 24.443 30.9462 24.4159C30.5666 24.3616 30.2683 24.4972 29.97 24.6599C29.8616 24.7141 29.7802 24.687 29.6718 24.6328C28.7769 24.2261 28.099 23.5753 27.8008 22.6262C27.4211 21.4331 27.3398 20.1858 27.1771 18.9656C27.0144 17.664 26.8517 16.3896 26.6348 15.088C26.3636 13.434 26.0654 11.7528 25.8484 10.0987C25.5773 8.11925 25.2248 6.19403 24.7638 4.26881C24.7096 3.99765 24.6011 3.88919 24.3028 3.88919C22.3505 3.86207 20.3981 3.86207 18.4458 3.80784C18.0662 3.80784 17.8764 3.94342 17.7679 4.29592C17.1714 5.94999 16.9273 7.6854 16.6833 9.42081C16.4392 11.102 16.2223 12.7832 15.7613 14.4372C15.436 15.5761 15.0021 16.6607 14.1073 17.5284C13.8904 17.7454 13.6734 17.7725 13.3752 17.664C12.2634 17.2302 11.5855 16.4438 11.3686 15.2778C10.989 13.2441 10.6907 11.1833 10.2839 9.14966C9.95856 7.54982 9.63317 5.9771 9.06374 4.4315C8.98239 4.18746 8.87393 4.079 8.60277 4.10611C8.19603 4.13323 7.81641 4.10611 7.40967 4.079C6.40639 4.05188 5.4031 3.99765 4.42693 3.94342C4.23712 3.94342 4.18289 4.02477 4.10154 4.18746C3.83038 5.00094 3.74904 5.84153 3.66769 6.68212C3.45076 8.82427 3.39653 10.9935 3.36942 13.1628C3.3423 15.6846 3.31518 18.1792 3.39653 20.701C3.45076 22.2466 3.39653 23.7922 3.47788 25.3649C3.55922 27.0461 3.53211 28.7544 3.58634 30.4356C3.61346 31.0321 3.64057 31.6016 3.64057 32.1981C3.64057 32.415 3.6948 32.5235 3.93885 32.5235C4.5354 32.5235 5.13194 32.5506 5.75561 32.5506C11.2059 32.6048 16.6562 32.6048 22.1064 32.6048ZM21.0489 43.641C20.588 43.641 20.1541 43.641 19.6931 43.641C19.5033 43.641 19.422 43.6952 19.3949 43.885C19.3677 44.1291 19.3135 44.4002 19.2864 44.6443C19.0424 46.2441 18.7983 47.8439 18.5814 49.4709C18.3645 51.0978 18.1475 52.7519 17.9306 54.3788C17.6866 56.277 17.4425 58.1751 17.1985 60.0732C16.9816 61.7001 16.7917 63.3271 16.5477 64.9269C16.3037 66.6623 16.1681 68.4248 16.5748 70.1602C16.9002 71.5703 17.6595 72.6549 19.0966 73.1701C20.5066 73.6853 21.9709 73.6853 23.408 73.3328C24.818 73.0074 25.7671 72.1397 26.2281 70.7568C26.5263 69.9433 26.6077 69.0756 26.6348 68.235C26.6619 66.6623 26.445 65.1167 26.2009 63.5711C25.984 62.134 25.8213 60.6968 25.6044 59.2868C25.3875 57.6327 25.1434 56.0058 24.9536 54.3517C24.7638 52.8332 24.6011 51.3148 24.3842 49.7963C24.113 47.871 23.8147 45.9458 23.5707 44.0206C23.5436 43.8037 23.4622 43.7494 23.2453 43.7494C22.5403 43.6952 21.8082 43.6139 21.0489 43.641Z" fill="#A79ECC"/>
</svg>
