<svg width="94" height="94" viewBox="0 0 94 94" fill="none" xmlns="http://www.w3.org/2000/svg">
<path d="M67.492 77.4868C67.492 79.0535 67.2727 80.5261 66.3327 81.8421C66.082 82.1868 65.8627 82.2808 65.424 82.1868C64.5467 81.9361 63.826 81.4035 63.168 80.8081C61.852 79.6175 60.7554 78.2388 59.502 76.9855C58.9694 76.4528 58.4367 75.9201 57.7787 75.5128C57.528 75.3561 57.34 75.3561 57.1207 75.5755C55.648 77.1108 54.144 78.6461 52.64 80.1501C52.4207 80.3695 52.452 80.5261 52.6087 80.7768C53.204 81.6855 54.0187 82.4061 54.802 83.1581C55.9927 84.2861 57.246 85.3201 58.2487 86.6361C58.7187 87.2628 59.0947 87.9208 59.22 88.7041C59.2514 89.0175 59.1887 89.2055 58.9067 89.3308C57.246 90.1141 55.4914 90.3961 53.674 90.2708C51.418 90.1455 49.35 89.4561 47.4387 88.2655C44.1487 86.1975 42.2374 83.2208 41.5794 79.3981C41.3914 78.2701 41.3914 77.1421 41.642 76.0455C41.9867 74.6041 41.4227 73.5075 40.514 72.4735C39.0727 70.8755 37.5374 69.4341 36.0334 67.8988C32.43 64.2641 28.8267 60.6608 25.2234 57.0575C24.3774 55.6788 23.0927 55.6475 21.6514 55.8041C18.142 56.2115 14.852 55.5535 12.032 53.2661C9.6507 51.3548 8.20937 48.8168 7.4887 45.8715C7.0187 43.9288 6.89337 41.9861 7.4887 40.0435C7.6767 39.4168 7.99004 38.8841 8.39737 38.3828C8.6167 38.1008 8.86737 38.1321 9.14937 38.2261C10.1207 38.5081 10.904 39.1348 11.656 39.7928C12.8467 40.9208 13.8807 42.2055 15.04 43.3648C15.604 43.9288 16.168 44.4615 16.826 44.9001C17.0454 45.0568 17.202 45.0568 17.39 44.8375C18.8 43.3648 20.2414 41.8921 21.6514 40.4195C22.1527 39.8868 22.1527 39.8868 21.6827 39.2915C20.8367 38.1635 19.7714 37.2861 18.7687 36.3461C17.86 35.5001 16.92 34.6228 16.168 33.6201C15.7607 33.0875 15.4787 32.4921 15.322 31.8341C15.228 31.3955 15.322 31.1761 15.7607 30.9881C18.236 29.8915 20.8054 29.8288 23.3747 30.5181C26.4767 31.3328 29.046 32.9935 30.8634 35.6881C32.336 37.8501 33.1507 40.2628 33.088 42.9261C33.0567 43.5528 32.9 44.1795 32.7747 44.8061C32.618 45.5581 32.806 46.2161 33.182 46.8428C33.746 47.7515 34.5294 48.5035 35.2814 49.2555C36.0334 50.0075 36.7854 50.7281 37.5374 51.4488C40.9527 54.8328 44.368 58.2481 47.7834 61.6321C48.5354 62.3841 49.2874 63.1675 50.008 63.9195C50.4154 64.3268 50.854 64.5148 51.418 64.5148C52.7027 64.5461 53.956 64.3268 55.2407 64.3895C59.8467 64.6088 63.2934 66.7395 65.5807 70.7188C66.8654 72.8495 67.492 75.1055 67.492 77.4868ZM55.1467 87.5761C55.1467 87.5135 55.178 87.4821 55.1467 87.4508C55.084 87.3568 55.0214 87.2315 54.9587 87.1375C54.332 86.1348 53.58 85.2575 52.7027 84.4428C51.888 83.6595 50.948 83.0328 50.0707 82.3121C49.2874 81.6541 49.162 80.9648 49.632 80.0561C49.7887 79.7428 50.008 79.3981 50.2274 79.1161C51.794 77.1108 53.674 75.3561 55.5227 73.6015C55.9614 73.1941 56.4314 72.7868 56.9327 72.4421C57.904 71.7841 58.5307 71.8781 59.314 72.7241C59.3767 72.7868 59.4394 72.8495 59.502 72.9121C60.16 73.6955 60.818 74.4788 61.476 75.2621C62.416 76.3275 63.4814 77.2675 64.7034 78.1448C64.86 77.2675 64.766 76.4528 64.6407 75.6695C64.3587 73.6641 63.4814 71.9408 62.1654 70.4368C60.348 68.4315 58.2174 67.1155 55.366 67.2408C53.7994 67.3035 52.264 67.4288 50.6974 67.5228C50.478 67.5228 50.3214 67.4915 50.1334 67.3348C49.3187 66.5201 48.504 65.7368 47.6894 64.9535C45.7154 63.0108 43.7727 61.0681 41.7987 59.1568C37.882 55.2715 33.934 51.4175 29.986 47.5635C29.798 47.4068 29.7354 47.2188 29.7667 46.9681C29.892 46.0281 29.986 45.1195 30.08 44.1795C30.2054 42.8635 30.362 41.5475 29.986 40.2628C29.046 37.0668 27.0094 34.8108 23.9074 33.5888C22.5914 33.0875 21.2127 32.9308 19.8027 32.8995C19.4894 32.8995 19.364 32.9621 19.552 33.2755C19.7087 33.5888 19.834 33.9335 20.116 34.1841C20.868 34.9048 21.62 35.6568 22.372 36.3775C23.1867 37.1608 24.0954 37.8815 24.7534 38.8215C25.4114 39.7615 25.4114 40.6388 24.6907 41.5161C22.842 43.7721 20.68 45.7461 18.424 47.5948C17.1394 48.6288 16.826 48.6288 15.5414 47.5635C14.4134 46.6235 13.5047 45.4955 12.502 44.4615C11.8127 43.7408 11.1547 43.0201 10.246 42.6128C9.96404 42.4875 9.8387 42.4561 9.8387 42.8321C9.87004 43.4275 9.90137 44.0541 9.96404 44.6495C10.2774 47.2501 11.5307 49.3495 13.5047 51.0728C15.228 52.5455 17.1707 53.4228 19.458 53.2975C20.774 53.2035 22.1214 53.1095 23.4374 52.9841C23.9074 52.9528 24.252 53.0155 24.5967 53.3601C26.79 55.3028 28.8894 57.3708 31.02 59.3761C33.746 61.9768 36.4094 64.6088 39.0414 67.2721C40.796 69.0581 42.5507 70.8128 44.1487 72.7241C44.462 73.1001 44.7127 73.5075 44.6187 74.0401C44.368 75.6695 44.3367 77.2988 44.556 78.9281C44.7754 80.7141 45.2767 82.4061 46.342 83.8788C47.7207 85.7588 49.632 86.7928 51.888 87.2941C53.016 87.4821 54.0814 87.5448 55.1467 87.5761Z" fill="#67C3D0"/>
<path d="M90.1147 52.4827C90.1147 53.924 89.4567 54.8327 88.736 55.6787C86.9814 57.7467 84.9447 59.564 83.0647 61.5067C81.78 62.8227 80.558 64.1387 79.1794 65.3607C78.678 65.8307 78.1454 66.238 77.55 66.5827C76.2654 67.3973 74.9807 67.272 73.7587 66.4573C72.8187 65.862 72.004 65.1413 71.2207 64.3893C62.51 55.8353 53.9247 47.156 45.2767 38.5393C43.0207 36.3147 40.7647 34.09 38.4774 31.8653C36.5347 29.9853 34.5607 28.1053 32.712 26.1313C31.866 25.254 31.0827 24.314 30.5187 23.2487C29.798 21.9327 29.892 20.6793 30.6754 19.426C31.3334 18.4233 32.148 17.5773 32.9627 16.7C35.1247 14.4753 37.318 12.282 39.5114 10.0887C40.2947 9.30532 41.1407 8.61599 41.9867 7.92666C43.334 6.86132 44.744 6.76732 46.248 7.55066C47.094 7.98932 47.8147 8.58466 48.5354 9.21132C49.6947 10.214 50.666 11.436 51.7627 12.5327C56.2434 17.0447 60.7867 21.5567 65.2987 26.0687C69.6227 30.3927 73.978 34.748 78.302 39.0407C80.276 41.0147 82.3127 42.9573 84.318 44.9C85.916 46.4353 87.4827 47.9707 88.83 49.7253C89.5507 50.634 90.1147 51.574 90.1147 52.4827ZM69.8107 54.7387C69.9987 54.7387 70.1554 54.7387 70.3434 54.7387C70.5 54.7387 70.594 54.8013 70.594 54.958C70.594 55.8667 70.6567 56.7753 69.8107 57.4333C69.654 57.5587 69.56 57.7467 69.4347 57.872C69.1527 58.1227 69.2467 58.3107 69.466 58.5613C69.8107 58.9373 70.1554 59.282 70.4687 59.6893C70.7194 60.034 70.9387 60.0027 71.1894 59.7207C71.9727 58.906 72.7874 58.1227 73.5707 57.3393C74.0094 56.9007 74.5107 56.4933 75.0747 56.274C75.576 56.086 76.14 55.9293 76.5474 56.3053C76.9234 56.6813 76.8294 57.2453 76.6414 57.7467C76.328 58.5613 75.7014 59.188 75.106 59.7833C74.448 60.4413 73.696 61.0367 73.1007 61.7573C72.9127 61.9767 72.944 62.0707 73.132 62.2587C73.79 62.9167 74.448 63.5747 75.0747 64.2953C75.3567 64.64 75.6387 64.6713 75.9834 64.452C76.1087 64.358 76.2654 64.2953 76.3907 64.2013C77.6127 63.3867 78.678 62.3527 79.6807 61.2873C80.8087 60.0653 81.968 58.8433 83.19 57.684C84.506 56.4307 85.8534 55.1773 87.0127 53.7673C87.608 53.0467 87.608 53.0153 86.9814 52.2947C85.2894 50.3207 83.472 48.472 81.686 46.592C79.5867 44.3987 77.4874 42.2367 75.3567 40.106C69.9987 34.6853 64.6094 29.296 59.1574 23.938C56.2434 21.0867 53.3607 18.204 50.4154 15.384C48.598 13.6293 46.7807 11.8747 44.9007 10.214C44.6187 9.96332 44.3994 9.96332 44.086 10.1827C43.3027 10.7153 42.582 11.342 41.8927 11.9687C39.762 13.88 37.7567 15.9167 35.7827 17.9847C34.8114 19.0187 33.8714 20.0527 33.0254 21.1807C32.7747 21.494 32.806 21.776 32.994 22.0893C33.6207 23.092 34.404 23.9693 35.1874 24.8153C36.6914 26.4133 38.3207 27.886 39.9187 29.39C40.3887 29.8287 40.3887 29.8287 40.8274 29.4213C41.2034 29.0767 41.548 28.7633 41.8614 28.3873C42.2687 27.9173 42.676 27.4787 43.1147 27.0713C43.8667 26.3507 44.744 25.8807 45.778 25.7553C46.4047 25.6613 46.436 25.6927 46.436 26.3193C46.436 26.6013 46.3734 26.8833 46.3107 27.134C45.966 28.356 45.12 29.2333 44.2114 30.0793C43.6787 30.5807 43.146 31.1133 42.6134 31.6147C42.488 31.74 42.394 31.834 42.582 32.022C43.0207 32.4607 43.428 32.8993 43.8354 33.338C44.0234 33.526 44.18 33.526 44.368 33.3693C44.5874 33.1813 44.8067 32.9933 44.9947 32.8367C45.214 32.6487 45.402 32.4607 45.6527 32.304C46.154 31.9593 47.188 31.9907 47.4074 32.398C47.6894 32.868 47.8774 33.6827 47.4074 34.278C47.094 34.654 46.7494 34.9987 46.4047 35.3433C46.2167 35.5313 46.1854 35.6567 46.4047 35.8447C46.812 36.252 47.2194 36.6593 47.5954 37.098C47.7834 37.3173 47.94 37.3173 48.1594 37.1607C48.598 36.816 49.068 36.4713 49.444 36.064C49.9767 35.4687 50.478 34.9047 51.0734 34.372C51.6374 33.8707 52.264 33.4633 53.016 33.3693C54.05 33.244 54.0814 33.244 53.9247 34.2467C53.8934 34.372 53.8934 34.466 53.862 34.5913C53.5487 35.9387 52.64 36.91 51.6687 37.8187C51.23 38.226 50.7914 38.6333 50.29 39.0093C49.9767 39.26 50.008 39.448 50.29 39.6987C50.6034 40.012 50.8854 40.3567 51.1987 40.67C51.606 41.14 51.6374 41.14 52.1387 40.764C52.5774 40.4507 52.9534 40.0747 53.392 39.7927C53.8307 39.4793 54.802 39.5733 54.99 39.918C55.4287 40.6073 55.366 41.4847 54.802 42.1113C54.5514 42.3933 54.2694 42.644 53.9874 42.8947C53.768 43.0513 53.7994 43.1767 53.9874 43.3647C54.4574 43.8347 54.9274 44.3047 55.366 44.806C55.5854 45.0253 55.7107 44.994 55.8987 44.806C56.964 43.7407 58.0607 42.6753 59.0947 41.5787C59.5334 41.14 60.0347 40.952 60.5987 40.764C60.7867 40.7013 60.9747 40.67 61.1314 40.8267C61.6327 41.3593 61.7267 42.2053 61.3507 42.8633C61.006 43.4587 60.5674 43.9287 60.0974 44.3987C59.3454 45.182 58.4994 45.8713 57.8414 46.7173C57.6847 46.9053 57.6847 47.0307 57.8414 47.2187C58.186 47.5633 58.4994 47.9393 58.8127 48.3153C59.032 48.5973 59.2827 48.66 59.5647 48.4093C60.0034 48.0333 60.442 47.6573 60.912 47.344C61.5387 46.9053 62.1027 46.9993 62.6667 47.532C63.1054 47.9707 63.1054 48.4407 62.7294 49.0673C62.416 49.5373 62.0714 49.976 61.6954 50.3833C61.5387 50.5713 61.4134 50.7593 61.6327 51.01C62.0087 51.386 62.3534 51.7933 62.698 52.2007C62.8547 52.3887 63.0114 52.42 63.2307 52.2947C63.6694 52.0753 64.108 51.8247 64.4527 51.48C65.2674 50.6653 66.0507 49.8193 66.8654 48.9733C67.116 48.7227 67.398 48.5033 67.774 48.4093C68.1814 48.284 68.5887 48.3153 68.9334 48.66C69.2467 48.9733 69.2467 49.3493 69.1527 49.7253C69.09 50.0073 68.9647 50.2893 68.7767 50.5087C68.15 51.386 67.2727 52.044 66.5207 52.8273C66.1447 53.2033 65.8314 53.5793 65.518 54.018C65.2987 54.3 65.33 54.5507 65.5807 54.8013C65.8314 55.052 66.082 55.334 66.3014 55.5847C66.7714 56.1173 66.8654 56.1173 67.4607 55.7413C67.5547 55.6787 67.68 55.616 67.7427 55.522C68.338 54.8953 69.0274 54.7073 69.8107 54.7387Z" fill="#A79ECD"/>
<path d="M39.4174 18.7361C39.386 16.6681 41.3287 15.3834 43.1147 15.3207C44.9947 15.2894 46.4047 16.9814 46.436 19.0494C46.4674 20.8667 44.9007 22.3394 42.958 22.3394C41.0467 22.3394 39.4487 20.7101 39.4174 18.7361Z" fill="#A79ECD"/>
</svg>
