<svg width="95" height="45" viewBox="0 0 95 45" fill="none" xmlns="http://www.w3.org/2000/svg">
<path d="M70.0519 39.3268C69.7079 39.4644 69.6391 39.7397 69.6391 40.1182C69.6735 41.0815 69.6391 42.0793 69.6391 43.0427C69.6391 43.3524 69.6046 43.49 69.2606 43.49C66.8177 43.49 64.3748 43.49 61.932 43.49C61.6223 43.49 61.5535 43.3868 61.5535 43.0771C61.5535 42.0449 61.5535 40.9783 61.5535 39.9461C61.5535 39.5676 61.4847 39.43 61.0718 39.43C48.0661 39.43 35.026 39.43 22.0203 39.43C21.6074 39.43 21.5386 39.5676 21.5386 39.9461C21.573 40.9783 21.5386 42.0105 21.5386 43.0083C21.5386 43.3524 21.4697 43.4556 21.0913 43.4556C18.6828 43.4556 16.3088 43.4556 13.9003 43.4556C13.5562 43.4556 13.4186 43.3524 13.4186 43.0083C13.4186 41.9417 13.4186 40.8751 13.453 39.7741C13.453 39.4644 13.4186 39.3956 13.1433 39.3956C12.4552 39.3956 11.7671 39.3956 11.0789 39.3956C7.56946 39.3956 4.02558 39.3956 0.5161 39.3956C0.10322 39.3956 0 39.2924 0 38.8795C0 30.966 0 23.0869 0 15.1733C0 14.726 0.137626 14.6228 0.550506 14.6572C1.85796 14.6916 3.16541 14.6572 4.47286 14.6572C4.88574 14.6572 4.98896 14.5196 4.98896 14.1067C4.98896 11.4574 5.02337 8.8081 4.95456 6.15879C4.88574 3.16541 7.2254 0.447288 10.1844 0.0688149C10.494 0.0344082 10.8381 0 11.1478 0C31.138 0 51.1627 0 71.1529 0C74.1463 0 76.6924 2.0644 77.2429 4.98896C77.3117 5.40184 77.3806 5.81473 77.3806 6.26201C77.3806 7.87913 77.3806 9.49624 77.3806 11.1133C76.6236 11.2854 75.9011 11.5262 75.2817 12.0079C75.2817 11.8015 75.2473 11.6294 75.2473 11.423C75.2473 9.70268 75.2129 7.98234 75.2473 6.2276C75.2817 3.88795 73.2862 2.16762 71.2218 2.16762C51.1971 2.20203 31.138 2.16762 11.1133 2.16762C8.84251 2.16762 7.05336 3.92236 7.05336 6.1932C7.01896 8.84251 7.05336 11.4918 7.05336 14.1755C7.05336 14.5884 7.2254 14.6916 7.60387 14.6916C8.94573 14.6916 10.2876 14.6916 11.595 14.6572C12.0423 14.6572 12.1455 14.7949 12.1455 15.2077C12.1455 18.7516 12.1455 22.2611 12.1111 25.805C12.1111 26.2867 12.2488 26.3899 12.6961 26.3899C18.4076 26.3899 24.1191 26.3899 29.865 26.3899C38.0882 26.3899 46.3113 26.3899 54.5345 26.3899C54.3281 27.078 54.1905 27.7318 54.2249 28.4543C54.1561 28.4543 54.0528 28.4543 53.984 28.4543C40.2214 28.4543 26.4243 28.4543 12.6616 28.4543C12.5928 28.4543 12.524 28.4543 12.4552 28.4543C12.18 28.4199 12.1111 28.5575 12.1111 28.7984C12.1111 29.4865 12.1455 30.1746 12.1111 30.8628C12.0767 31.2757 12.2144 31.4133 12.6616 31.4133C26.7684 31.4133 40.9095 31.4133 55.0162 31.4133C55.1883 31.4133 55.3947 31.4821 55.5323 31.3101C56.1861 32.0326 56.9774 32.5831 57.8032 33.0992C58.044 33.2368 58.3193 33.3056 58.4569 33.5465C42.4922 33.5465 26.4931 33.5465 10.5284 33.5465C10.0467 33.5465 9.97793 33.34 9.97793 32.9272C9.97793 27.6974 9.97793 22.4675 9.97793 17.2377C9.97793 16.8249 9.87471 16.7216 9.46183 16.7216C7.2254 16.756 4.95456 16.756 2.71813 16.7216C2.23643 16.7216 2.13321 16.8249 2.13321 17.3065C2.13321 23.7406 2.13321 30.209 2.13321 36.6431C2.13321 37.0904 2.23643 37.2624 2.71813 37.2624C23.6718 37.2624 44.6598 37.2624 65.6135 37.2624C65.7511 37.2624 65.9575 37.3312 66.0608 37.1936C66.1984 37.2968 66.3704 37.3656 66.508 37.4688C67.6779 38.1914 68.8821 38.7419 70.0519 39.3268ZM17.513 41.4256C18.0291 41.4256 18.5108 41.4256 19.0269 41.4256C19.3709 41.4256 19.5086 41.3224 19.4742 40.9783C19.4398 40.5998 19.4742 40.187 19.4742 39.8085C19.4742 39.4988 19.3709 39.3612 19.0613 39.3612C18.442 39.3612 17.7882 39.3612 17.1689 39.3612C16.6528 39.3956 15.9647 39.1204 15.6894 39.4644C15.3798 39.8085 15.6206 40.4966 15.5862 41.0127C15.5518 41.288 15.6894 41.3912 15.9647 41.3568C16.4808 41.4256 16.9969 41.4256 17.513 41.4256ZM65.6135 41.4256C66.1296 41.4256 66.6457 41.4256 67.1618 41.4256C67.4026 41.4256 67.5058 41.3568 67.5058 41.0815C67.5058 40.6343 67.5058 40.187 67.5058 39.7053C67.5058 39.4644 67.437 39.3612 67.1618 39.3612C66.0952 39.3612 65.063 39.3612 63.9964 39.3612C63.7211 39.3612 63.6523 39.4988 63.6867 39.7053C63.6867 40.1526 63.6867 40.5654 63.6867 41.0127C63.6867 41.288 63.7899 41.3912 64.0652 41.3912C64.5469 41.4256 65.063 41.4256 65.6135 41.4256Z" fill="#A3D9F6"/>
<path d="M58.5257 33.6153C58.3881 33.3745 58.0784 33.3057 57.872 33.1681C57.0462 32.6864 56.2549 32.1014 55.6011 31.3789C54.8786 30.5532 54.4313 29.6242 54.3281 28.5576C54.2937 27.835 54.4313 27.1813 54.6377 26.4932C54.6722 26.4244 54.7066 26.3899 54.741 26.3211C55.6355 24.3944 57.1494 23.3622 59.2482 23.1557C59.4203 23.1213 59.6267 23.0869 59.8676 23.0525C59.6611 22.8117 59.5235 22.6052 59.3859 22.4332C57.3559 19.9559 55.2915 17.513 53.2615 15.0013C52.3325 13.9003 51.3003 12.8337 50.5778 11.5951C49.5112 9.73713 49.7864 7.39747 51.2315 5.84917C52.7454 4.23206 55.0506 3.75037 57.0118 4.64494C58.1128 5.12663 58.8698 6.02121 59.5923 6.91578C61.5879 9.28984 63.4114 11.7671 65.4758 14.1068C65.9919 14.6917 65.9919 14.6917 66.6457 14.3476C67.5746 13.9003 68.5724 13.7283 69.6046 13.9347C70.0519 14.038 70.3272 13.9347 70.6712 13.6939C71.6002 12.9369 72.7012 12.5929 73.8711 12.6961C74.5592 12.7649 75.0065 12.5241 75.4538 12.0768C76.0731 11.5951 76.7956 11.3542 77.5526 11.1822C79.4449 10.8725 80.9244 11.6295 82.1631 12.9714C83.2985 14.21 84.2963 15.5863 85.3973 16.8937C86.4295 18.0979 87.3929 19.371 88.4595 20.5752C90.4207 22.8117 91.5905 25.4266 92.2098 28.3167C92.3818 29.1769 92.6227 30.0371 92.8291 30.8628C93.0012 31.4821 93.242 32.1014 93.5517 32.652C94.3774 34.0626 94.2054 35.0948 92.9667 36.127C90.111 38.5355 87.2208 40.9095 84.3307 43.318C83.8146 43.7309 83.3329 44.2126 82.748 44.5567C81.5781 45.2448 80.5115 45.1416 79.5482 44.1782C79.4105 44.0406 79.2385 43.9029 79.1009 43.7309C78.0343 42.4234 76.5892 41.6321 74.9721 41.1504C73.3206 40.6687 71.7034 39.9806 70.0863 39.3613C68.9165 38.7763 67.7467 38.2258 66.6113 37.5377C66.4736 37.4345 66.3016 37.3657 66.164 37.2624C63.8931 35.783 61.347 34.8196 58.9042 33.6842C58.7321 33.6497 58.6289 33.6497 58.5257 33.6153ZM66.9553 26.6652C66.8865 26.9405 66.9897 27.3533 66.7145 27.6286C65.7855 28.5232 65.1662 28.6952 64.134 28.2135C63.5835 27.9727 63.0674 27.663 62.5169 27.4221C61.5191 27.0093 60.5213 26.6996 59.4203 26.906C58.8009 27.0093 58.216 27.2157 58.044 27.9038C57.872 28.5576 58.3881 28.936 58.801 29.3145C58.9042 29.3833 59.0074 29.4865 59.1106 29.5554C59.9364 30.1059 60.8309 30.5187 61.6911 30.8972C63.2394 31.5853 64.8221 32.1703 66.2672 33.0648C69.3638 34.9228 72.598 36.5399 76.0731 37.6065C77.9999 38.1914 79.789 39.1204 81.1997 40.5999C81.4405 40.8407 81.5437 40.6343 81.6814 40.5311C84.2963 38.3979 86.8768 36.2302 89.4917 34.097C89.6981 33.925 89.8013 33.753 89.6637 33.4777C89.1476 32.2735 88.8035 30.966 88.5627 29.693C88.1154 27.3189 87.2552 25.1513 85.7069 23.2589C83.5737 20.7473 81.5093 18.1668 79.4449 15.6551C79.3073 15.5174 79.1697 15.3798 79.0321 15.2422C78.4127 14.7261 77.7246 14.7605 77.1741 15.4142C76.9333 15.6895 76.7956 16.0335 76.658 16.3432C76.486 16.6873 76.3483 17.0657 76.1763 17.4098C76.0731 17.6851 75.9011 17.6851 75.6602 17.5818C75.3161 17.4098 75.0409 17.169 74.7312 16.9625C73.5614 16.1024 72.7012 16.3432 72.0475 17.6163C71.8411 18.0635 71.6346 18.5108 71.4282 18.9581C71.2906 19.2678 71.0841 19.3022 70.8433 19.0957C70.4304 18.7517 70.0175 18.3732 69.5702 18.0291C68.8477 17.4786 68.1251 17.5474 67.5402 18.2356C67.3338 18.5108 67.1274 18.7861 66.9553 19.0957C66.7145 19.5086 66.4736 19.9559 66.2672 20.4032C66.0952 20.8161 65.9231 20.7473 65.6823 20.472C65.407 20.1279 65.1318 19.8527 64.8565 19.5086C62.0696 16.1024 59.2482 12.6961 56.4613 9.25543C56.186 8.91137 55.9108 8.60171 55.6011 8.32645C55.085 7.91357 54.5345 7.91357 54.0184 8.32645C53.5367 8.70493 53.3991 9.25543 53.6744 9.87475C53.812 10.2188 54.0528 10.4941 54.2937 10.7693C55.7043 12.4553 57.0806 14.1068 58.4913 15.7927C61.0718 18.9237 63.6523 22.0547 66.2328 25.1857C66.6801 25.4954 66.9897 25.9771 66.9553 26.6652Z" fill="#028DD2"/>
</svg>
