<svg width="73" height="82" viewBox="0 0 73 82" fill="none" xmlns="http://www.w3.org/2000/svg">
<path d="M0 29.7512C0.341606 28.9748 0.962708 28.4158 1.55275 27.8568C2.17386 27.2357 2.79496 26.6146 3.41606 25.9935C4.47193 24.9066 5.77624 24.4097 7.26689 24.3165C9.4718 24.1923 11.6146 24.6581 13.6953 25.4035C16.6455 26.4283 19.3163 27.8879 21.5212 30.1549C23.0739 31.7387 24.254 33.602 25.403 35.4964C26.3347 37.0181 27.1732 38.6019 28.0117 40.1546C28.167 40.4341 28.2291 40.4962 28.5086 40.2478C38.4462 30.2791 48.4149 20.3725 58.3214 10.4039C59.0357 9.6896 59.7189 8.97533 60.5263 8.38529C62.5449 6.86359 64.7809 6.55304 67.11 7.48469C69.4391 8.4474 70.8056 10.2486 71.1472 12.7641C71.4267 14.7826 70.8677 16.5528 69.5323 18.0745C69.2218 18.4161 68.9112 18.7577 68.5696 19.0682C65.0604 22.6085 61.5512 26.1488 58.0419 29.6891C57.9798 29.7512 57.9177 29.8133 57.8556 29.9065C58.0109 30.0617 58.1972 30.0928 58.3525 30.1549C61.3959 31.2729 63.0729 34.3784 62.3586 37.546C62.2965 37.8255 62.0791 38.1671 62.2344 38.3845C62.3586 38.6019 62.7313 38.5398 63.0107 38.6019C66.3336 39.4714 68.2901 42.7322 67.5448 46.1793C67.3585 47.0799 67.3274 47.111 68.228 47.3283C70.5261 47.8563 71.9546 49.3469 72.6378 51.5208C73.3831 53.9741 72.9484 56.2412 71.1161 58.1045C65.8368 63.4149 60.4953 68.6942 55.2159 74.0047C54.1601 75.0605 53.0731 76.1475 52.0483 77.2344C49.8434 79.5014 47.1727 80.8678 44.0361 81.3647C39.9368 82.0169 36.3034 81.0231 33.0115 78.6008C32.1109 77.9487 31.3035 77.1102 30.5271 76.3338C26.4589 72.2656 22.4218 68.2284 18.3535 64.1602C17.8256 63.6323 17.5151 63.0112 17.2977 62.3279C15.2791 55.8995 13.0431 49.5333 10.9003 43.1359C10.124 40.7757 10.5277 41.2416 8.50909 39.2851C6.08679 36.8628 3.6645 34.4405 1.2422 32.0182C0.745322 31.5213 0.310551 30.9623 0.0310552 30.3412C1.18003e-07 30.1238 0 29.9375 0 29.7512ZM8.13643 27.8258C7.39111 27.7947 6.64579 27.7947 6.05574 28.3537C5.5278 28.8506 5.03092 29.3475 4.53404 29.8443C4.34771 29.9996 4.37877 30.1238 4.53404 30.2791C4.93776 30.6828 5.34147 31.1176 5.77624 31.5524C7.98115 33.7573 10.2171 35.9622 12.422 38.1982C12.95 38.695 13.3537 39.2851 13.5711 39.9683C13.9748 41.2726 14.4096 42.5459 14.8133 43.8191C16.7387 49.6264 18.633 55.4337 20.6206 61.241C20.6827 61.4584 20.8069 61.6447 20.9622 61.8311C25.3409 66.1788 29.6887 70.5575 34.0364 74.9363C34.3159 75.2158 34.5954 75.4953 34.937 75.7127C37.3282 77.5139 39.9989 78.3524 43.0113 78.0108C45.682 77.7002 47.8869 76.458 49.7502 74.5947C55.9613 68.4147 62.1412 62.2037 68.3522 55.9927C68.5386 55.8064 68.7249 55.589 68.8802 55.3716C69.8118 54.0673 69.6255 52.2972 68.4454 51.1792C67.2653 50.0923 65.5573 50.0612 64.284 51.1171C64.1287 51.2413 64.0045 51.3655 63.8492 51.4897C63.166 51.9556 62.2654 51.8624 61.6754 51.3034C61.0543 50.6823 60.9611 49.8749 61.4269 49.1295C61.7064 48.6637 62.1101 48.3221 62.5139 47.9494C62.8555 47.6389 63.1971 47.2973 63.5076 46.9246C64.5946 45.6203 64.5635 43.8191 63.4145 42.639C62.2344 41.4279 60.4332 41.3658 59.0978 42.4527C58.8804 42.639 58.6941 42.7943 58.4457 42.9185C57.7314 43.2291 56.924 43.0738 56.4271 42.4838C55.8991 41.9248 55.837 41.1484 56.2407 40.4652C56.396 40.1857 56.6134 39.9683 56.8308 39.7199C57.3587 39.1609 57.9798 38.695 58.4457 38.105C59.4084 36.8628 59.3462 35.1858 58.3214 34.0368C57.1413 32.7325 55.1849 32.6393 53.8806 33.7883C53.5079 34.0989 53.1352 34.3784 52.6384 34.4094C51.893 34.4405 51.334 34.1299 50.9614 33.4778C50.6198 32.8256 50.6819 32.1735 51.1477 31.5834C51.5514 31.0865 52.0483 30.6828 52.4831 30.217C56.8618 25.8382 61.2717 21.4284 65.6504 17.0497C66.1163 16.5838 66.6752 16.1491 67.079 15.6211C67.8553 14.5963 68.0106 13.4783 67.4827 12.3293C66.9237 11.1492 65.9299 10.5281 64.6256 10.466C63.5697 10.4039 62.8244 10.9629 62.1101 11.6771C51.2409 22.5775 40.3405 33.4467 29.4713 44.3471C29.347 44.4713 29.1918 44.6266 29.0675 44.7508C28.3222 45.4029 27.2664 45.3098 26.5831 44.5644C26.3347 44.285 26.1484 43.9433 25.962 43.6017C24.2851 40.3099 22.3597 37.1733 20.2479 34.1299C19.8442 33.5399 19.4405 32.9498 18.9125 32.453C17.453 31.1176 15.776 30.0617 13.9748 29.2853C12.0804 28.4469 10.1861 27.8258 8.13643 27.8258Z" fill="#EE7F1B"/>
<path d="M31.583 0C31.6451 0.12422 31.8004 0.0931651 31.8935 0.12422C32.5767 0.372661 33.0115 0.900597 33.0426 1.61486C33.0736 2.17386 33.0736 2.70179 33.0736 3.26078C33.0736 6.02468 33.0736 8.78859 33.0736 11.5525C33.0736 11.8941 33.0736 12.2357 33.0115 12.5773C32.8252 13.4779 32.1109 14.0369 31.2414 13.9748C30.3718 13.9127 29.7197 13.2605 29.6265 12.3599C29.5955 12.1736 29.5955 11.9873 29.5955 11.832C29.5955 8.66437 29.5955 5.46569 29.5955 2.29808C29.5955 2.08069 29.5955 1.8633 29.6265 1.64592C29.6886 0.962707 29.9992 0.434771 30.6824 0.186331C30.7756 0.155275 30.8998 0.155275 30.9308 0.0310552C31.1172 1.18003e-07 31.3656 0 31.583 0Z" fill="#F6A72D"/>
<path d="M24.4093 13.7886C24.3782 14.6271 24.1298 15.155 23.5397 15.4656C22.9497 15.7761 22.2975 15.7761 21.7075 15.4035C21.5212 15.2792 21.3659 15.124 21.2106 14.9998C19.192 12.9812 17.1734 10.9936 15.1549 8.97507C14.9064 8.72663 14.689 8.47819 14.4406 8.22975C13.7574 7.48442 13.7884 6.3975 14.5027 5.71428C15.1859 5.03107 16.2418 5.06213 16.9871 5.77639C18.1051 6.89438 19.2231 8.04342 20.3721 9.1614C21.5212 10.3104 22.7013 11.4595 23.8503 12.6396C24.1919 12.9812 24.4403 13.4159 24.4093 13.7886Z" fill="#F6A72D"/>
<path d="M48.6944 6.95666C48.6944 7.39143 48.5391 7.73304 48.2596 8.04359C46.179 10.1553 44.0983 12.2671 42.0176 14.3478C41.6449 14.7204 41.2723 15.0931 40.8375 15.3726C40.1543 15.8384 39.1916 15.6831 38.5705 14.9689C38.0115 14.2857 38.0425 13.4472 38.6326 12.8261C40.3095 11.1491 41.9865 9.47212 43.6635 7.79515C44.3467 7.11194 44.9368 6.36662 45.6821 5.77657C46.179 5.37285 46.7069 5.09336 47.359 5.27969C48.1665 5.49707 48.6944 6.18029 48.6944 6.95666Z" fill="#F6A72D"/>
</svg>
