<svg width="74" height="74" viewBox="0 0 74 74" fill="none" xmlns="http://www.w3.org/2000/svg">
<path d="M20.8545 0C21.2643 0 21.7014 0 22.1112 0C22.1659 0.136607 22.3025 0.0819637 22.4118 0.0819637C23.5046 0.136606 24.6248 0.245892 25.6903 0.464462C32.6573 1.96713 37.7937 5.84676 40.8537 12.3492C41.0449 12.7317 41.2088 12.7864 41.5913 12.7044C44.624 12.0214 47.602 11.1744 50.6074 10.4367C51.3177 10.2728 51.5636 9.97228 51.6729 9.26193C52.4106 5.08177 54.7875 2.15838 58.8038 0.737675C62.82 -0.710355 66.5903 0.0273214 69.8142 2.86874C72.5737 5.30034 73.8032 8.46961 73.5573 12.1853C73.5573 12.24 73.53 12.3219 73.53 12.3766C72.9016 17.7042 68.1477 22.0756 62.8473 22.1303C59.0223 22.1849 55.9623 20.6549 53.6127 17.6222C53.5034 17.4583 53.3941 17.349 53.1482 17.4037C49.897 18.2233 46.6185 18.9883 43.3672 19.8899C42.9574 19.9992 42.8481 20.1905 42.8481 20.6003C42.9028 22.4308 42.7935 24.2613 42.4383 26.0919C41.8919 28.6874 40.717 30.9824 39.3783 33.2227C38.8865 34.0424 38.8592 34.0697 39.5696 34.78C43.7224 38.9329 47.7659 43.1677 51.9461 47.2932C52.4652 47.8123 52.875 47.9216 53.5581 47.6757C55.5798 46.9107 57.6563 46.6102 59.8147 47.1293C67.7378 49.0418 70.7705 57.7573 66.645 64.0412C64.2407 67.7022 59.5688 69.5054 54.9788 68.6038C49.7604 67.5656 45.9627 62.5112 46.4545 57.2108C46.5365 56.2273 46.7824 55.2437 47.1376 54.3148C47.4381 53.4951 47.2468 52.976 46.6731 52.375C42.6842 48.3041 38.4767 44.4245 34.6244 40.217C33.4769 38.9329 33.7774 39.0968 32.4387 39.8891C28.6137 42.1568 24.5428 43.2496 20.0895 42.9218C19.707 42.8945 19.5977 43.0311 19.5157 43.3862C18.8054 46.255 18.1223 49.1237 17.33 51.9651C17.0295 52.976 17.2754 53.4951 18.0404 54.1509C20.6086 56.2546 21.9746 59.0687 22.0566 62.4019C22.2205 69.1229 16.3464 74.396 9.65271 73.6036C3.53274 72.866 -0.94796 66.7733 0.172214 60.7353C1.0465 56.0633 4.43434 52.6482 9.13361 51.7739C9.62539 51.6919 9.92592 51.446 10.0352 50.9816C10.0899 50.8176 10.1172 50.6264 10.1718 50.4625C10.9641 47.4298 11.5925 44.3698 12.4941 41.3645C12.5761 41.1186 12.4941 41.0093 12.2756 40.9273C9.95325 39.9711 7.95879 38.4684 6.23755 36.6925C1.12846 31.3102 -0.94796 24.917 0.445427 17.5676C2.27596 7.97783 9.92592 1.06553 19.5703 0.163928C20.0075 0.109285 20.4446 0.191249 20.8545 0ZM21.5921 12.3492C16.4557 12.3492 12.2756 16.4474 12.3029 21.4746C12.3029 26.5563 16.4011 30.7092 21.4282 30.7092C26.51 30.7092 30.6901 26.611 30.6901 21.6112C30.6901 16.5294 26.5919 12.3492 21.5921 12.3492Z" fill="#AFCA1F"/>
</svg>
