<svg width="74" height="75" viewBox="0 0 74 75" fill="none" xmlns="http://www.w3.org/2000/svg">
<path d="M0.0838633 8.88968C0.111818 6.70919 0.139773 4.5287 0.167728 2.34822C0.195683 1.23002 0.754782 0.503189 1.84503 0.195684C2.5439 -3.16587e-07 3.24277 0 3.94165 0C4.80825 0 5.6469 0.0279545 6.5135 0.0279545C21.4694 0.0279545 36.4253 0.0279545 51.4092 0.0279545C52.136 0.0279545 52.8628 0.0279547 53.5897 0.0838647C55.211 0.195685 55.854 0.866604 55.9938 2.48799C56.1056 3.74597 56.0777 5.03189 56.0497 6.28987C55.9938 9.16923 55.9938 12.0486 56.0217 14.9C56.0217 15.7386 55.7702 16.3257 55.1831 16.8848C54.1208 17.8632 53.1144 18.8696 52.0801 19.9039C51.8285 20.1555 51.6049 20.4351 51.3812 20.7146C51.0737 20.6028 51.1296 20.3233 51.1296 20.0996C51.1296 16.9128 51.1296 13.7259 51.1017 10.539C51.1017 8.77786 51.0737 7.0167 51.0737 5.25553C51.0737 5.00394 50.9899 4.92007 50.7383 4.89212C49.5082 4.7803 48.2782 4.7803 47.0482 4.7803C42.5754 4.75234 38.1026 4.75234 33.6578 4.80825C28.1506 4.86416 22.6156 4.86416 17.1084 4.7803C13.1947 4.72439 9.309 4.80825 5.39531 4.83621C5.36735 4.83621 5.31144 4.83621 5.28349 4.83621C5.0878 4.80825 5.00394 4.92007 5.03189 5.11576C5.03189 5.22758 5.03189 5.3394 5.03189 5.45122C5.03189 26.6131 5.03189 47.775 5.03189 68.9369C5.03189 69.0208 5.03189 69.1047 5.03189 69.1606C5.00394 69.3563 5.0878 69.4122 5.28349 69.4401C6.65328 69.5519 8.05103 69.524 9.44878 69.5519C12.6636 69.6079 15.8784 69.5799 19.0653 69.524C22.5876 69.4681 26.1099 69.4122 29.6043 69.4681C35.9221 69.524 42.2679 69.524 48.5857 69.496C49.2566 69.496 49.9555 69.4401 50.6264 69.4122C50.906 69.4122 51.1017 69.3563 51.1017 68.9649C51.0737 67.9026 51.1296 66.8683 51.1296 65.806C51.1296 61.9762 51.1576 58.1184 51.1576 54.2885C51.1576 52.7231 51.1576 51.1296 51.2135 49.5642C51.7167 49.2846 52.0801 48.8653 52.4715 48.446C53.394 47.4955 54.2606 46.4611 55.267 45.5666C55.4626 45.3709 55.7142 45.0354 55.9379 45.1473C56.1336 45.2311 56.0217 45.6225 56.0217 45.9021C56.2454 51.521 56.0777 57.1679 56.0497 62.7868C56.0217 65.5823 56.0217 68.3499 56.0217 71.1454C56.0217 71.6206 55.9658 72.1238 55.854 72.599C55.6863 73.3538 55.239 73.8291 54.5122 74.0807C54.009 74.2484 53.4778 74.3043 52.9187 74.3882C52.8069 74.3882 52.6951 74.3322 52.6112 74.472C51.0178 74.472 49.4244 74.472 47.8309 74.472C47.7191 74.3602 47.5793 74.4161 47.4675 74.4161C45.958 74.3882 44.4484 74.3602 42.9388 74.3602C31.7289 74.3602 20.5189 74.3602 9.309 74.3602C7.54784 74.3602 5.78668 74.4161 4.02551 74.4161C3.43846 74.3882 2.8514 74.3882 2.26435 74.3322C1.23002 74.2484 0.587052 73.6893 0.307503 72.6829C0.139773 72.0679 0.111818 71.4529 0.111818 70.8099C0.111818 66.2253 0.111818 61.6127 0.0838633 57.0281C0.0838633 54.624 0.0838632 52.2199 0.0559082 49.8157C0.0559082 49.676 0.0838633 49.5082 0.0838633 49.3685C0.0838633 36.006 0.0838633 22.6156 0.0838633 9.25309C0.0838633 9.14127 0.0838633 9.02945 0.0838633 8.88968Z" fill="#03AFB0"/>
<path d="M3.99756 74.4436C5.75872 74.4157 7.51988 74.3877 9.28105 74.3877C20.491 74.3877 31.7009 74.3877 42.9109 74.3877C44.4204 74.3877 45.93 74.4157 47.4396 74.4436C47.5514 74.4436 47.6912 74.3877 47.803 74.4995C33.2105 74.4995 18.59 74.4995 3.99756 74.4995C3.99756 74.4995 3.99756 74.4716 3.99756 74.4436Z" fill="#BCF8F9"/>
<path d="M3.99756 74.4441C3.99756 74.4721 3.99756 74.5 3.99756 74.5C2.76754 74.5 1.53752 74.5 0.307504 74.5C0.0559095 74.5 0 74.4441 0 74.1925C0 66.0856 0 57.9786 0 49.8438H0.0279545H0.0559096C0.0559096 52.2479 0.0559097 54.652 0.0838647 57.0561C0.0838647 61.6407 0.0838648 66.2533 0.11182 70.8379C0.11182 71.4529 0.139774 72.0959 0.307504 72.7109C0.587054 73.6893 1.23002 74.2484 2.26435 74.3603C2.82345 74.4162 3.41051 74.4162 3.99756 74.4441Z" fill="#FEFEFE"/>
<path d="M0.0559096 49.8716H0.0279545H0C0 36.2016 0 22.5596 0 8.88965C0.027955 8.88965 0.0559096 8.88965 0.0559096 8.88965C0.0559096 9.02942 0.0838647 9.14124 0.0838647 9.28102C0.0838647 22.6435 0.0838647 36.0339 0.0838647 49.3964C0.0838647 49.5641 0.0838646 49.7039 0.0559096 49.8716Z" fill="#BCF8F9"/>
<path d="M73.8851 17.5552C73.8851 19.4002 73.2701 20.5743 72.3476 21.6366C70.9219 23.2301 69.3284 24.6278 67.8189 26.1374C60.5506 33.4057 53.2543 40.646 45.986 47.9143C45.6506 48.2498 45.3151 48.5852 44.9797 48.9207C43.8615 50.0948 42.5196 50.8496 40.9542 51.2968C39.1371 51.8 37.32 52.3032 35.5309 52.9182C34.9718 53.1139 34.4127 53.1698 33.8256 53.1139C33.5461 53.086 33.4063 52.9741 33.3784 52.6946C33.2945 52.1355 33.3784 51.6044 33.5461 51.1012C34.217 48.8648 34.8879 46.6284 35.6148 44.392C36.0341 43.106 36.9286 42.1556 37.8512 41.2331C43.9453 35.1668 50.0116 29.1006 56.1057 23.0064C58.8174 20.2948 61.529 17.5552 64.2686 14.8156C64.632 14.4522 64.9675 14.1167 65.3588 13.7813C67.735 11.8524 71.2014 12.4674 73.0185 15.1231C73.5776 15.9897 73.8851 16.9122 73.8851 17.5552Z" fill="#03AFB0"/>
<path d="M28.1226 20.7988C33.0147 20.7988 37.9069 20.7988 42.799 20.7988C43.3301 20.7988 43.8613 20.7988 44.3644 20.9106C45.2311 21.1063 45.6783 21.6934 45.7342 22.6718C45.7902 23.5384 45.3708 24.0975 44.5601 24.405C44.029 24.5727 43.4978 24.6007 42.9667 24.6007C33.2943 24.6007 23.6498 24.6007 13.9774 24.6007C13.2506 24.6007 12.5237 24.6287 11.7969 24.4889C10.8464 24.2932 10.3992 23.6782 10.3992 22.6159C10.3992 21.7213 10.8744 21.1622 11.7969 20.9386C12.3001 20.8268 12.7753 20.8268 13.2785 20.8268C18.2266 20.7988 23.1746 20.7988 28.1226 20.7988Z" fill="#03AFB0"/>
<path d="M27.7593 10.8182C31.8966 10.8182 36.0339 10.8182 40.1992 10.8182C41.1777 10.8182 42.1561 10.7623 43.1345 10.7623C43.6097 10.7623 44.085 10.8182 44.5323 10.9859C45.287 11.2375 45.6784 11.7966 45.7343 12.5793C45.7902 13.3341 45.5107 13.9491 44.8398 14.3405C44.4763 14.5642 44.057 14.5082 43.6377 14.5362C41.1217 14.6201 38.6058 14.648 36.0899 14.648C29.4086 14.648 22.7274 14.6201 16.0461 14.6201C15.3193 14.6201 14.6204 14.6201 13.8936 14.676C13.2227 14.7319 12.5238 14.7039 11.8529 14.5362C11.0702 14.3405 10.5111 13.7535 10.4272 12.9987C10.3154 12.2159 10.6788 11.4612 11.3777 11.0977C11.6293 10.958 11.8809 10.93 12.1604 10.9021C16.5214 10.7064 20.8823 10.7623 25.2433 10.7623C26.082 10.7623 26.9486 10.7623 27.7872 10.7623C27.7593 10.7623 27.7593 10.7902 27.7593 10.8182Z" fill="#03AFB0"/>
<path d="M41.0937 30.7781C40.8142 31.2254 40.5626 31.5049 40.311 31.7565C39.668 32.4275 38.9971 33.0425 38.3821 33.7413C37.9069 34.3004 37.3198 34.5241 36.565 34.5241C28.7097 34.5241 20.8264 34.5241 12.971 34.5241C12.4958 34.5241 12.0206 34.4961 11.5733 34.3564C10.7905 34.1048 10.4271 33.5736 10.3992 32.707C10.3992 31.8124 10.7626 31.2534 11.5174 30.9738C11.9087 30.834 12.3281 30.8061 12.7194 30.8061C21.2177 30.7502 29.744 30.6943 38.2423 30.7781C39.1928 30.8061 40.0873 30.7781 41.0937 30.7781Z" fill="#03AFB0"/>
<path d="M21.9447 40.7863C25.0756 40.7025 28.1787 40.7304 31.2817 40.7863C31.6171 40.7863 31.673 40.8981 31.5612 41.1777C31.1139 42.1841 30.6666 43.2184 30.415 44.3087C30.3871 44.4484 30.3032 44.5043 30.1635 44.5043C29.8839 44.5043 29.6323 44.5602 29.3528 44.5602C25.3552 44.6721 21.3856 44.5602 17.388 44.5602C15.9064 44.5602 14.4248 44.728 12.9152 44.6441C12.5239 44.6162 12.1325 44.5602 11.7411 44.4764C10.8466 44.2248 10.3713 43.5539 10.3713 42.5754C10.3713 41.7648 10.8466 41.2057 11.7411 40.9541C12.1325 40.8422 12.5518 40.8143 12.9711 40.8143C15.9623 40.7863 18.9535 40.7863 21.9447 40.7863Z" fill="#03AFB0"/>
<path d="M20.3792 50.7941C22.9231 50.7103 25.495 50.7382 28.0389 50.7941C28.3744 50.7941 28.4582 50.878 28.4023 51.2135C28.2625 52.2198 28.2905 53.1983 28.626 54.1767C28.7098 54.4003 28.6819 54.5122 28.4023 54.5122C27.3121 54.596 26.1939 54.624 25.1036 54.624C21.0781 54.6799 17.0806 54.5681 13.055 54.5401C12.5239 54.5401 11.9928 54.4842 11.4896 54.3165C10.7068 54.0369 10.3434 53.4778 10.3714 52.5553C10.3714 51.7446 10.7348 51.2414 11.5455 50.9898C12.0487 50.8221 12.5798 50.7941 13.111 50.7941C15.5151 50.7941 17.9472 50.7941 20.3792 50.7941Z" fill="#03AFB0"/>
<path d="M51.1856 49.62C51.1018 51.1855 51.1297 52.779 51.1297 54.3444C51.1297 58.1743 51.1018 62.0321 51.1018 65.8619C51.1018 66.9242 51.0458 67.9585 51.0738 69.0208C51.0738 69.4122 50.8781 69.4681 50.5986 69.4681C49.9276 69.496 49.2288 69.5519 48.5578 69.5519C42.24 69.5799 35.8943 69.6078 29.5764 69.524C26.0541 69.496 22.5318 69.5519 19.0374 69.5799C15.8226 69.6078 12.6078 69.6358 9.42091 69.6078C8.02316 69.5799 6.65336 69.6078 5.25562 69.496C5.05993 69.4681 4.97607 69.4122 5.00402 69.2165C5.00402 69.1326 5.00402 69.0487 5.00402 68.9928C5.00402 47.8309 5.00402 26.669 5.00402 5.50711C5.00402 5.39529 5.00402 5.28347 5.00402 5.17165C4.97607 4.97597 5.05993 4.86415 5.25562 4.8921C5.28357 4.8921 5.33948 4.8921 5.36744 4.8921C9.28113 4.86415 13.1669 4.78028 17.0806 4.83619C22.5877 4.92005 28.1228 4.92005 33.6299 4.86414C38.1027 4.80823 42.5755 4.80824 47.0203 4.83619C48.2503 4.83619 49.4804 4.83619 50.7104 4.94801C50.9899 4.97597 51.0458 5.03188 51.0458 5.31142C51.0458 7.07259 51.0738 8.83375 51.0738 10.5949C51.0738 13.7818 51.0738 16.9686 51.1018 20.1555C51.1018 20.3792 51.0458 20.6587 51.3533 20.7705C51.2415 20.8544 51.4093 21.1339 51.1018 21.078C50.8222 21.0221 50.7383 20.8823 50.7383 20.6028C50.7383 15.6548 50.7383 10.7347 50.7383 5.78666C50.7383 5.28347 50.7383 5.31142 50.2351 5.28347C46.5451 5.1996 42.855 5.25551 39.165 5.1996C29.213 5.05983 19.289 5.17165 9.33704 5.14369C8.2468 5.14369 7.1286 5.17165 6.03835 5.1996C5.39539 5.22756 5.42335 5.22756 5.39539 5.84257C5.25562 7.82737 5.33948 9.81217 5.31153 11.797C5.1438 24.3488 5.28357 36.9005 5.22766 49.4523C5.22766 51.1576 5.19971 52.8628 5.22766 54.5681C5.33948 58.6775 5.25562 62.8148 5.28357 66.9242C5.28357 67.4274 5.22766 67.9305 5.22766 68.4058C5.22766 69.0208 5.31153 69.1326 5.92654 69.2444C6.03836 69.2724 6.17813 69.2724 6.3179 69.2724C20.2674 69.2724 34.217 69.2724 48.1665 69.2724C48.8933 69.2724 49.5922 69.2165 50.319 69.2165C50.6545 69.2165 50.7663 69.0767 50.7663 68.7133C50.7663 62.7589 50.7663 56.7765 50.7663 50.8221C50.7663 50.3469 50.7943 49.9275 51.1856 49.62Z" fill="#BCF8F9"/>
</svg>
