<svg width="48" height="44" viewBox="0 0 48 44" fill="none" xmlns="http://www.w3.org/2000/svg">
<path d="M42.0615 37.074C42.0615 37.2406 42.1615 37.3073 42.2282 37.374C43.3282 38.5406 43.4615 40.0406 42.3615 41.4406C41.2948 42.774 39.8282 43.4073 38.1948 43.674C37.3615 43.8073 36.4948 43.8073 35.6282 43.8073C29.5948 43.8073 23.5615 43.8073 17.4948 43.8073C16.8282 43.8073 16.1615 43.7406 15.5948 43.4073C14.9615 43.074 14.6282 42.6073 14.6282 41.8406C14.6615 34.774 14.6615 27.7073 14.6282 20.6406C14.6282 19.9406 14.7948 19.3406 15.2282 18.7406C16.4948 16.9406 17.7615 15.1073 18.9615 13.2406C19.8615 11.8073 20.7282 10.3073 21.1282 8.64062C21.2948 7.94062 21.3615 7.27396 21.3282 6.57396C21.3282 5.90729 21.2948 5.20729 21.2615 4.54062C21.2282 3.67396 21.2948 2.80729 21.5282 1.94062C21.8948 0.573956 22.7282 0.0739552 24.0282 0.00728855C26.1282 -0.0927115 27.6948 0.840624 28.8282 2.54062C29.6282 3.77396 30.0282 5.14062 30.2948 6.54062C30.5615 7.94062 30.5282 9.34062 30.2615 10.7406C29.8948 12.6406 29.3615 14.5073 28.7615 16.3406C28.7282 16.4406 28.6948 16.5073 28.6615 16.6073C28.6282 16.7406 28.6948 16.8406 28.8282 16.8406C28.9948 16.8406 29.1615 16.8406 29.3615 16.8406C34.1282 16.8406 38.9282 16.8406 43.6948 16.8406C44.1282 16.8406 44.5948 16.874 45.0282 16.9406C46.4282 17.2073 47.4282 18.2406 47.6282 19.6406C47.6948 20.0406 47.7282 20.4406 47.6948 20.8406C47.6282 22.174 46.8948 23.074 45.7948 23.7073C45.4948 23.874 45.1282 24.0406 44.7615 24.2406C46.3615 25.2073 46.9282 26.6073 46.4615 28.374C46.1948 29.3406 45.2282 30.474 43.4615 30.7073C43.4615 30.8406 43.5615 30.874 43.6282 30.9073C44.8282 31.6406 45.2615 32.9073 44.8948 34.3406C44.6282 35.4406 43.9282 36.174 42.9282 36.6406C42.6282 36.8406 42.3282 36.974 42.0615 37.074Z" fill="#E4F255"/>
<path d="M11.6282 31.8079C11.6282 35.5412 11.6282 39.3079 11.6282 43.0412C11.6282 43.2079 11.6282 43.3412 11.6282 43.5079C11.6282 43.7412 11.5282 43.8079 11.2949 43.8079C11.1949 43.8079 11.0615 43.8079 10.9615 43.8079C8.96154 43.8079 6.96154 43.8079 4.96154 43.8079C4.86154 43.8079 4.76154 43.8079 4.66154 43.8079C4.39488 43.8412 4.29488 43.7079 4.26154 43.4412C4.09488 42.3746 3.89488 41.3412 3.69488 40.3079C3.02821 36.7746 2.39488 33.2079 1.76155 29.6745C1.36155 27.4412 0.961546 25.1745 0.561546 22.9079C0.39488 21.9745 0.228211 21.0412 0.0282112 20.1079C-0.0384555 19.7745 -0.00512163 19.7412 0.328212 19.7412C0.628211 19.7412 0.894877 19.7412 1.19488 19.7412C4.39488 19.7412 7.59487 19.7412 10.7949 19.7412C10.9615 19.7412 11.0949 19.7412 11.2615 19.7412C11.4949 19.7412 11.6282 19.8079 11.6282 20.0745C11.6282 20.2412 11.6282 20.3745 11.6282 20.5412C11.6282 24.3079 11.6282 28.0746 11.6282 31.8079Z" fill="#E4F256"/>
</svg>
