<svg width="54" height="54" viewBox="0 0 54 54" fill="none" xmlns="http://www.w3.org/2000/svg">
<path d="M43.3888 22.5676C41.9888 22.7343 40.5888 22.5676 39.2221 22.2676C39.1554 22.1676 39.0554 22.1009 38.9221 22.1676C36.9888 21.5676 35.3221 20.5343 33.9221 19.0676C33.4555 18.5676 33.0888 18.0009 32.6555 17.5009C32.0555 16.4343 31.5555 15.3343 31.2221 14.1676C31.1888 14.0343 31.1888 13.9343 31.1555 13.8009C31.2888 13.6676 31.2221 13.6009 31.1221 13.5343C31.0888 13.3676 31.0555 13.2009 31.0555 13.0676C31.1888 12.9676 31.1221 12.8676 31.0221 12.8009C30.9221 12.5676 30.9555 12.3343 30.9221 12.0676C31.0888 11.6343 31.0555 11.1676 30.9221 10.7343C31.2555 6.53426 33.2888 3.43426 36.9554 1.36759C37.0888 1.30093 37.2554 1.23426 37.4221 1.16759C37.5554 1.20093 37.6554 1.13426 37.7221 1.00093C38.0888 0.867592 38.4221 0.734259 38.7888 0.634259C38.9221 0.700926 39.0221 0.667591 39.0888 0.534258C39.3221 0.467591 39.5554 0.434258 39.7554 0.367591C39.8888 0.467591 39.9888 0.400926 40.0554 0.300926C40.6554 0.200926 41.2554 0.0675902 41.8888 0.100924C42.1221 0.26759 42.3554 0.234257 42.6221 0.100924C42.9888 0.134257 43.3554 0.167591 43.7554 0.200925C43.8221 0.300925 43.8888 0.334257 43.9888 0.234257C44.0554 0.267591 44.1554 0.267592 44.2221 0.300926C44.2888 0.400926 44.3554 0.500925 44.4888 0.367591C44.6221 0.400925 44.7221 0.434257 44.8554 0.434257C44.9221 0.534257 45.0221 0.600925 45.1554 0.534258C48.7221 1.53426 51.2221 3.80093 52.6554 7.20093C53.4221 9.00093 53.6554 10.9009 53.3554 12.8009C52.7221 17.0676 50.3554 20.1009 46.3888 21.8343C45.5554 22.2009 44.6554 22.3343 43.7888 22.5343C43.6554 22.4343 43.5221 22.4343 43.3888 22.5676Z" fill="#56B2F5"/>
<path d="M33.722 41.4351C33.722 41.3684 33.722 41.2684 33.7554 41.2018C34.0221 40.9351 33.9887 40.5684 34.122 40.2351C34.622 38.9684 35.3554 37.9018 36.3554 36.9684C38.0554 35.3351 40.0554 34.3684 42.4554 34.4018C42.6554 34.4018 42.8554 34.4684 43.0554 34.3018C45.4887 34.4351 47.6554 35.2351 49.4221 37.0018C50.8554 38.4351 51.7887 40.1018 52.1554 42.0684C52.6221 44.7351 52.0887 47.1684 50.4887 49.3684C48.9554 51.5018 46.8554 52.8351 44.2221 53.1351C41.6221 53.4684 39.1554 52.9351 37.0554 51.2351C35.1887 49.7351 33.9887 47.8018 33.622 45.4351C33.422 44.2018 33.4554 42.9351 33.6887 41.7018C33.722 41.6351 33.7554 41.5351 33.722 41.4351Z" fill="#A9CDD9"/>
<path d="M17.6221 24.9354C17.5555 25.7354 17.6888 26.5354 17.4888 27.302C17.4221 27.602 17.3555 27.9354 17.2555 28.2354C17.2221 28.3354 17.1555 28.402 17.1221 28.502C16.7555 29.702 16.0888 30.702 15.1888 31.602C14.9555 31.8354 14.6888 32.0354 14.5221 32.3354C13.5555 33.0687 12.5555 33.6687 11.3888 34.002C10.7888 34.1687 10.1555 34.302 9.52214 34.302C8.22214 34.3354 6.92214 34.302 5.6888 33.802C2.72214 32.602 0.788803 30.4687 0.188803 27.3354C-0.44453 24.0687 0.522137 21.2354 2.9888 18.9687C4.0888 17.9687 5.3888 17.3354 6.85547 17.002C6.95547 17.102 7.02214 17.102 7.0888 16.9687C7.25547 16.9354 7.42214 16.902 7.5888 16.8687C7.72214 17.002 7.85547 17.002 7.95547 16.8354C8.52214 16.702 9.12214 16.702 9.68881 16.8354C9.78881 17.002 9.92214 17.002 10.0555 16.8687C10.2221 16.8687 10.3555 16.902 10.5221 16.902C10.5888 17.0354 10.6221 17.1354 10.7888 17.002C12.4888 17.402 13.9555 18.2353 15.1888 19.502C15.7888 20.102 16.2555 20.8687 16.7221 21.5687C17.1221 22.6687 17.4888 23.7687 17.6221 24.9354Z" fill="#9FC3E4"/>
<path d="M14.5222 32.3353C14.6556 32.0353 14.9556 31.8353 15.1889 31.602C16.0889 30.7353 16.7555 29.702 17.1222 28.502C17.1555 28.402 17.2222 28.302 17.2555 28.2354C17.9222 28.3354 18.4555 28.7353 19.0555 29.0353C20.8889 30.0353 22.7889 30.902 24.6556 31.902C26.8889 33.0687 29.1555 34.1687 31.3889 35.3353C32.6222 35.9687 33.8555 36.5687 35.0555 37.2353C35.3222 37.3687 35.5555 37.402 35.7222 37.102C36.0222 36.5687 36.5222 36.302 36.9889 35.9353C38.2889 34.902 39.8222 34.402 41.4555 34.202C41.9889 34.1353 42.5555 34.0353 43.0889 34.302C42.9222 34.4687 42.6889 34.402 42.4889 34.402C40.0889 34.3687 38.0889 35.3353 36.3889 36.9687C35.4222 37.902 34.6556 38.9687 34.1556 40.2353C34.0222 40.5687 34.0555 40.9353 33.7889 41.202C33.7222 41.1353 33.6555 41.0687 33.6889 41.002C33.9222 40.5687 33.6222 40.402 33.3222 40.2353C32.8222 39.9687 32.3222 39.7353 31.8222 39.502C30.4556 38.8353 29.0889 38.1687 27.7556 37.4687C23.9889 35.5353 20.2555 33.602 16.4555 31.702C15.6555 31.302 15.9222 31.2687 15.2889 31.8687C15.0555 32.0687 14.8889 32.3687 14.5222 32.3353Z" fill="#E2DDF1"/>
<path d="M17.6222 24.9346C17.5222 23.768 17.1555 22.668 16.7222 21.6013C18.7222 20.5013 20.7888 19.5346 22.8222 18.468C24.9222 17.368 27.0555 16.3346 29.1888 15.2346C29.8888 14.868 30.5555 14.468 31.2555 14.168C31.5888 15.3346 32.0888 16.4346 32.6888 17.5013C32.4222 17.5013 32.2222 17.6346 31.9888 17.7346C30.6555 18.4013 29.2888 19.0346 27.9555 19.768C25.9555 20.868 23.8555 21.8013 21.8555 22.868C20.6555 23.5013 19.4555 24.1013 18.2222 24.7346C18.0555 24.8013 17.8555 24.9346 17.6222 24.9346Z" fill="#E2DDF1"/>
<path d="M30.9221 10.7012C31.0555 11.1345 31.0888 11.6012 30.9221 12.0345C30.7555 11.6012 30.7555 11.1678 30.9221 10.7012Z" fill="#9FC3E4"/>
<path d="M42.6555 0.101516C42.4221 0.234848 42.1555 0.234848 41.9221 0.101516C42.1555 0.0015168 42.3888 -0.0651493 42.6555 0.101516Z" fill="#9FC3E4"/>
<path d="M7.95553 16.8677C7.85553 17.0343 7.7222 17.0343 7.58887 16.901C7.68887 16.7343 7.8222 16.7343 7.95553 16.8677Z" fill="#C5E6FD"/>
<path d="M10.0554 16.901C9.92205 17.0343 9.78872 17.0343 9.68872 16.8677C9.82205 16.7343 9.92205 16.7343 10.0554 16.901Z" fill="#C5E6FD"/>
<path d="M43.3887 22.5685C43.522 22.4352 43.622 22.4351 43.7887 22.5351C43.6553 22.7018 43.5553 22.7351 43.3887 22.5685Z" fill="#C5E6FD"/>
<path d="M43.989 0.234336C43.889 0.334333 43.8223 0.301001 43.7556 0.201003C43.8556 0.101006 43.9223 0.134338 43.989 0.234336Z" fill="#9FC3E4"/>
<path d="M40.0888 0.301285C39.9888 0.401284 39.9222 0.467949 39.7888 0.36795C39.8555 0.267951 39.9555 0.234619 40.0888 0.301285Z" fill="#9FC3E4"/>
<path d="M44.4888 0.334626C44.3555 0.467958 44.2888 0.401291 44.2222 0.267959C44.3222 0.234626 44.4222 0.267961 44.4888 0.334626Z" fill="#9FC3E4"/>
<path d="M45.1555 0.534863C45.0221 0.601528 44.9221 0.568195 44.8555 0.434865C44.9888 0.334868 45.0888 0.401534 45.1555 0.534863Z" fill="#9FC3E4"/>
<path d="M39.0888 0.534647C39.0222 0.667979 38.9222 0.701313 38.7888 0.634647C38.8555 0.534648 38.9555 0.467981 39.0888 0.534647Z" fill="#9FC3E4"/>
<path d="M37.7221 1.00166C37.6554 1.13499 37.5555 1.16833 37.4221 1.16833C37.4888 1.03499 37.5888 0.968325 37.7221 1.00166Z" fill="#9FC3E4"/>
<path d="M31.0221 12.8018C31.1221 12.8684 31.1887 12.9684 31.0554 13.0684C30.9554 12.9684 30.9554 12.8684 31.0221 12.8018Z" fill="#9FC3E4"/>
<path d="M31.1223 13.5352C31.2223 13.6018 31.3223 13.6685 31.1556 13.8018C31.0889 13.7018 31.0556 13.6352 31.1223 13.5352Z" fill="#9FC3E4"/>
<path d="M7.0888 17.0019C7.02213 17.1352 6.95547 17.1352 6.85547 17.0352C6.92214 16.9019 6.9888 16.8685 7.0888 17.0019Z" fill="#C5E6FD"/>
<path d="M10.7889 17.0345C10.6222 17.2012 10.5889 17.0679 10.5222 16.9345C10.6222 16.9012 10.7222 16.9012 10.7889 17.0345Z" fill="#C5E6FD"/>
<path d="M38.9221 22.1684C39.0555 22.1018 39.1554 22.1684 39.2221 22.2684C39.0888 22.3351 38.9888 22.2684 38.9221 22.1684Z" fill="#C5E6FD"/>
<path d="M33.7222 41.4346C33.7555 41.5346 33.7222 41.6346 33.6222 41.7012C33.4555 41.5346 33.5889 41.5012 33.7222 41.4346Z" fill="#E2DDF1"/>
</svg>
