<svg width="76" height="76" viewBox="0 0 76 76" fill="none" xmlns="http://www.w3.org/2000/svg">
<path d="M37.7276 0C37.9943 0 38.2276 0 38.4943 0C39.6943 0 40.8943 0.0666674 42.0943 0.200001C43.1943 0.300001 44.2609 0.5 45.3276 0.733333C45.9943 0.866667 46.6943 1 47.3609 1.2C47.9276 1.33333 48.4943 1.56667 49.0609 1.73333C50.1943 2.03333 51.2609 2.46667 52.3609 2.93333C53.2943 3.33333 54.1943 3.76667 55.0943 4.23333C56.1276 4.76667 57.0943 5.33333 58.0609 5.93333C58.5609 6.23333 59.0276 6.56667 59.4943 6.9C59.9276 7.23333 60.361 7.53333 60.7943 7.86667C61.1943 8.16667 61.5609 8.46667 61.9276 8.8C62.4276 9.23333 62.9609 9.63333 63.4276 10.1C63.8943 10.5667 64.3943 10.9667 64.7943 11.4667C65.1276 11.8667 65.5276 12.2667 65.8943 12.6667C66.4276 13.2 66.8609 13.8333 67.3276 14.4C67.8276 15 68.2943 15.6667 68.7609 16.3C69.2276 16.9667 69.6609 17.6667 70.0943 18.3667C70.6276 19.2667 71.1276 20.2 71.5943 21.1333C71.9276 21.8333 72.2943 22.5333 72.5609 23.2333C72.7943 23.8667 73.061 24.5 73.2609 25.1333C73.561 26.1 73.8943 27.0333 74.1609 28C74.3943 28.9333 74.561 29.9 74.7943 30.8667C75.0276 31.9 75.1276 32.9333 75.2276 34C75.4609 35.8667 75.3943 37.7333 75.3609 39.6333C75.3276 40.9 75.1943 42.1333 74.9943 43.3667C74.7943 44.7333 74.4943 46.1 74.1276 47.4333C73.7943 48.7 73.4276 49.9333 72.9276 51.1333C72.7276 51.6333 72.5609 52.1667 72.3276 52.6667C71.8943 53.5667 71.4943 54.5 70.9943 55.4C70.6609 56 70.3276 56.6 69.961 57.2C69.5276 57.9333 69.0609 58.6667 68.5609 59.3333C68.1276 59.9 67.7276 60.5 67.2943 61.0667C66.9276 61.5 66.5943 61.9333 66.2276 62.3667C65.6943 62.9667 65.1609 63.6 64.5609 64.1667C63.9276 64.7667 63.2943 65.4 62.6276 66C62.1609 66.4 61.6609 66.8 61.1943 67.2333C60.6943 67.6667 60.1276 68.0667 59.5943 68.4333C58.9943 68.8333 58.4276 69.2667 57.7943 69.6333C56.861 70.2 55.8943 70.7667 54.9276 71.2667C53.8276 71.8333 52.6943 72.3333 51.5609 72.8C50.6276 73.1667 49.6943 73.5 48.7609 73.8C48.0609 74.0333 47.3276 74.2 46.5943 74.3667C45.8276 74.5333 45.0943 74.7 44.3276 74.8667C43.7609 75 43.1609 75.0333 42.5943 75.1C42.061 75.1666 41.5276 75.2333 40.9943 75.3C40.7943 75.3333 40.561 75.3333 40.361 75.3333C39.8276 75.3333 39.3276 75.4 38.7943 75.4C38.461 75.4 38.1276 75.4667 37.7943 75.4333C36.6276 75.4 35.4943 75.3666 34.3276 75.2333C33.2943 75.1333 32.2276 75.0333 31.1943 74.8667C30.3276 74.7 29.4609 74.4667 28.5943 74.3C27.4943 74.0667 26.4609 73.7 25.3943 73.3333C24.0276 72.8667 22.6943 72.3 21.361 71.6667C20.4943 71.2667 19.6609 70.8 18.8276 70.3333C18.0943 69.9333 17.3943 69.5 16.7276 69C16.2276 68.6667 15.7276 68.3333 15.2609 67.9667C14.7276 67.5667 14.2276 67.1666 13.7276 66.7667C13.2276 66.3333 12.7276 65.9 12.1943 65.4667C12.1276 65.4 12.0609 65.3667 12.0276 65.3C11.4943 64.7667 10.9276 64.2333 10.3943 63.6667C9.79428 63.0667 9.26095 62.4 8.69428 61.7667C8.29428 61.3333 7.96095 60.8333 7.59428 60.4C7.26095 60 6.99428 59.5333 6.69428 59.1C6.39428 58.6667 6.06095 58.2333 5.79428 57.7667C5.46095 57.1667 5.06095 56.6333 4.76095 56C4.56095 55.6 4.32761 55.2333 4.12761 54.8667C3.62761 53.8667 3.16095 52.8333 2.72762 51.8C2.19428 50.5 1.72761 49.1333 1.36095 47.8C1.09428 46.8333 0.860948 45.8667 0.660948 44.9C0.494281 44.0667 0.360947 43.2333 0.294281 42.4C0.194281 41.5333 0.127614 40.7 0.0942811 39.8333C0.0276144 38.8667 -0.0390525 37.9 0.0276142 36.9333C0.0609475 35.9 0.127615 34.8667 0.227615 33.8667C0.327615 32.6333 0.494281 31.3667 0.760948 30.1667C1.06095 28.8667 1.32761 27.6 1.76095 26.3333C2.02761 25.5333 2.26095 24.7333 2.59428 23.9667C2.86095 23.3333 3.06095 22.7 3.36095 22.1C3.79428 21.2333 4.19428 20.3667 4.66095 19.5333C5.09428 18.7333 5.56095 17.9667 6.02761 17.2C6.46095 16.5333 6.89428 15.9 7.36095 15.2667C8.12761 14.2333 8.92761 13.2667 9.76095 12.3333C10.1609 11.8667 10.6276 11.4 11.0609 10.9667C11.8276 10.2333 12.5943 9.5 13.4276 8.83333C14.1276 8.26667 14.8276 7.7 15.5609 7.16667C16.3276 6.6 17.0943 6.06667 17.8943 5.6C18.6943 5.1 19.5276 4.63333 20.361 4.2C21.4276 3.66667 22.4943 3.13333 23.6276 2.7C24.1943 2.5 24.7276 2.23333 25.2943 2.06667C26.5276 1.66667 27.7276 1.23333 28.9943 1C30.0276 0.8 31.0609 0.566667 32.0943 0.4C32.8943 0.266667 33.6943 0.233333 34.4943 0.166667C35.5943 0 36.6609 0 37.7276 0ZM38.2276 68.9667C44.2943 68.8667 50.3609 67.0333 55.7609 63.2C60.3276 59.9667 63.7943 55.8 66.1276 50.7333C68.0276 46.6333 69.0276 42.3 68.9943 37.7667C68.9276 28.4667 65.4609 20.5667 58.5609 14.3333C52.7276 9.03333 45.6943 6.53333 37.861 6.33333C29.2943 6.53333 21.8276 9.43333 15.7276 15.5C9.72762 21.4667 6.79428 28.7667 6.46095 37.1667C6.36095 55.0333 20.3943 68.8333 38.2276 68.9667Z" fill="#E1DCEF"/>
<path d="M32.3942 49.0661C32.3942 47.2328 32.3942 45.3661 32.3942 43.5328C32.3942 43.1328 32.4276 43.1661 32.0609 43.1661C28.3609 43.1661 24.6276 43.1661 20.9276 43.1661C20.5942 43.1661 20.5942 43.1661 20.5942 42.8328C20.5942 39.4661 20.5942 36.1328 20.5942 32.7661C20.5942 32.5328 20.6609 32.4661 20.8942 32.4661C24.6276 32.4661 28.3942 32.4661 32.1276 32.4661C32.3609 32.4661 32.4276 32.3995 32.4276 32.1661C32.4276 28.4328 32.4276 24.6661 32.4276 20.9328C32.4276 20.6661 32.4942 20.6328 32.7276 20.6328C36.0609 20.6328 39.4276 20.6328 42.7609 20.6328C42.9942 20.6328 43.0609 20.6995 43.0609 20.9328C43.0609 24.6661 43.0609 28.3995 43.0609 32.0995C43.0609 32.4661 43.0276 32.4328 43.3942 32.4328C47.1276 32.4328 50.8276 32.4328 54.5609 32.4328C54.8942 32.4328 54.8942 32.4328 54.8942 32.7661C54.8942 36.1328 54.8942 39.4661 54.8942 42.8328C54.8942 43.0661 54.8276 43.1328 54.5942 43.1328C50.8609 43.1328 47.0942 43.1328 43.3609 43.1328C43.1276 43.1328 43.0609 43.1995 43.0609 43.4328C43.0609 47.1661 43.0609 50.8995 43.0609 54.5995C43.0609 54.9328 43.0609 54.9328 42.7276 54.9328C39.3942 54.9328 36.0609 54.9328 32.7276 54.9328C32.4609 54.9328 32.4276 54.8661 32.4276 54.6328C32.3942 52.7995 32.3942 50.9328 32.3942 49.0661Z" fill="#B2A4DA"/>
</svg>
