<svg width="62" height="57" viewBox="0 0 62 57" fill="none" xmlns="http://www.w3.org/2000/svg">
<path d="M30.6879 0.0226772C39.7701 0.0226772 48.8012 0.0226772 57.8834 0.0226772C59.159 0.0226772 60.1285 0.532912 60.8428 1.60441C61.2 2.16567 61.302 2.77795 61.302 3.44126C61.302 7.72724 61.302 12.0642 61.302 16.3502C61.302 17.8809 60.5877 19.0545 59.108 19.6668C58.7508 19.8198 58.2916 19.8198 57.8834 19.8198C53.4444 19.8198 49.0053 19.8198 44.5663 19.8198C42.3723 19.8198 40.1783 19.8198 37.9842 19.8198C37.6271 19.8198 37.525 19.7178 37.525 19.3606C37.525 18.2381 37.6271 17.0646 37.372 15.9931C36.7086 13.1357 34.9739 11.2479 32.1675 10.3805C29.1061 9.46205 25.6875 10.8397 23.9527 13.7991C23.3915 14.7685 23.0853 15.84 23.0343 17.0135C23.0343 17.8299 23.0343 18.6463 23.0343 19.4627C23.0343 19.7178 22.9323 19.8198 22.6772 19.8198C16.1461 19.8198 9.66614 19.8198 3.13512 19.7688C1.55338 19.7688 0.379842 18.7483 0.0226772 17.1666C-0.0283464 16.9625 0.0226772 16.7584 0.0226772 16.5543C0.0226772 12.1153 0.0737008 7.67622 0.0226772 3.23717C0.0226772 1.50236 1.50236 0.0226772 3.23717 0.0226772C7.37008 0.0226772 11.503 0.0226772 15.5849 0.0226772C20.6362 -0.0283464 25.6365 0.0226772 30.6879 0.0226772Z" fill="#A876AA"/>
<path d="M46.454 32.5759C46.8112 32.1166 47.1173 31.8105 47.4745 31.5554C48.6991 30.739 50.5869 30.8921 51.6584 31.9636C52.4238 32.7289 52.7809 33.5963 52.7809 34.6678C52.7809 38.1374 52.7809 41.607 52.7809 45.0766C52.7809 47.4237 52.1687 49.5667 50.791 51.5056C49.4134 53.4445 47.6276 54.8732 45.3825 55.6895C44.4131 56.0467 43.4436 56.3018 42.3721 56.2508C39.6679 56.1998 36.9126 56.2508 34.2084 56.2508C33.443 56.2508 32.6776 55.9957 31.9123 55.7406C29.9224 55.0773 28.1876 54.0058 26.7589 52.4751C25.9935 51.7097 25.3813 50.8423 24.6669 50.0259C23.8506 49.0565 23.0342 48.087 22.2178 47.0666C21.5035 46.1992 20.7381 45.3318 20.0238 44.4133C19.1564 43.3418 18.289 42.2193 17.4216 41.1478C16.7073 40.2804 16.5542 39.311 16.7073 38.2395C16.9113 36.8618 17.8298 36.0455 19.0543 35.6373C20.3299 35.1781 21.5035 35.5352 22.4729 36.4536C23.6465 37.5762 24.769 38.6987 25.8915 39.8722C26.0956 40.0763 26.2487 40.2294 26.5548 40.1273C26.861 40.0253 26.8609 39.7702 26.8609 39.5151C26.8609 32.1677 26.8609 24.7692 26.8609 17.4218C26.8609 15.8401 27.7794 14.5135 29.208 14.0543C30.9939 13.442 32.9328 14.4115 33.545 16.1463C33.6981 16.6055 33.8002 17.0137 33.8002 17.4729C33.8002 21.0955 33.8002 24.7182 33.8002 28.3409C33.8002 28.494 33.7491 28.596 33.8512 28.7491C34.8717 27.5245 36.0962 26.9633 37.678 27.4225C39.2087 27.8817 39.974 29.0042 40.1781 30.637C41.2496 29.3103 42.6272 28.8001 44.209 29.3614C45.5866 29.9226 46.3009 30.9941 46.454 32.5759Z" fill="#A876AA"/>
</svg>
