<svg width="66" height="65" viewBox="0 0 66 65" fill="none" xmlns="http://www.w3.org/2000/svg">
<path d="M54.1866 17.6787C57.6431 17.6787 61.1484 17.6787 64.605 17.6787C65.1405 17.6787 65.1405 17.6787 65.1405 18.1656C65.1405 33.4524 65.1405 48.7392 65.1405 64.026C65.1405 64.5128 65.1405 64.5128 64.6536 64.5128C49.3668 64.5128 34.08 64.5128 18.7932 64.5128C18.3064 64.5128 18.3064 64.5128 18.3064 63.9773C18.3064 60.7154 18.3064 57.5023 18.3064 54.2405C18.4038 54.0944 18.3551 53.8997 18.3551 53.7536C18.3551 41.8747 18.3551 29.9958 18.3551 18.1656C18.3551 17.6787 18.3551 17.6787 18.8419 17.6787C30.4774 17.6787 42.0642 17.6787 53.6997 17.6787C53.8945 17.6787 54.0405 17.6787 54.1866 17.6787Z" fill="#CDBEF5"/>
<path d="M54.1865 17.6784C54.0405 17.6784 53.8457 17.6784 53.6997 17.6784C42.0642 17.6784 30.4774 17.6784 18.8419 17.6784C18.355 17.6784 18.355 17.6784 18.355 18.1652C18.355 30.0442 18.355 41.9231 18.355 53.7533C18.355 53.8994 18.4037 54.0941 18.3064 54.2402C12.3669 54.2402 6.42745 54.2402 0.487993 54.2402C-0.0475318 54.2402 0.00115229 54.2888 0.00115229 53.7533C0.00115229 35.9836 0.00115229 18.2626 0.00115229 0.492926C0.00115229 -0.0425986 -0.0475318 0.00608551 0.487993 0.00608551C18.2577 0.00608551 35.9787 0.00608551 53.7484 0.00608551C54.2839 0.00608551 54.2352 -0.0912827 54.2352 0.492926C54.2352 6.23765 54.1865 11.9337 54.1865 17.6784Z" fill="#8E76AE"/>
</svg>
