<svg width="35" height="64" viewBox="0 0 35 64" fill="none" xmlns="http://www.w3.org/2000/svg">
<path d="M8.18405 2.77823C8.78877 2.8387 9.30278 2.86894 9.84702 2.92941C10.0284 2.95965 10.1494 2.86894 10.2401 2.71776C10.5424 2.23399 10.8448 1.75021 11.1169 1.26644C11.2076 1.11526 11.2681 1.11526 11.4193 1.1455C11.9635 1.32691 12.538 1.47809 13.0823 1.65951C13.2334 1.71998 13.3241 1.65951 13.4149 1.53856C13.8079 1.11526 14.2312 0.69196 14.6243 0.238423C14.715 0.147715 14.7755 0.147715 14.8964 0.208186C15.4104 0.480309 15.8942 0.752431 16.4082 1.05479C16.5594 1.1455 16.7106 1.1455 16.8617 1.02455C17.285 0.722195 17.7386 0.419838 18.1619 0.0872438C18.3433 -0.0336995 18.4642 -0.0336999 18.6154 0.117479C19.0387 0.510545 19.4923 0.873375 19.9156 1.2362C20.0063 1.32691 20.097 1.29668 20.1877 1.26644C20.7017 1.05479 21.2459 0.843138 21.7599 0.601252C21.9414 0.510544 22.0623 0.510545 22.1832 0.69196C22.5158 1.17573 22.9089 1.62927 23.2415 2.11304C23.3322 2.23399 23.4531 2.20375 23.5438 2.17351C24.0881 2.08281 24.6626 1.96186 25.2068 1.84092C25.3882 1.81069 25.4487 1.84092 25.5394 1.9921C25.7813 2.53634 26.0534 3.05035 26.2953 3.5946C26.3558 3.71554 26.4163 3.71554 26.507 3.71554C27.0512 3.77601 27.6257 3.74578 28.1699 3.74578C28.5025 3.74578 28.5025 3.74578 28.5932 4.07837C28.7142 4.59238 28.8351 5.13662 28.9561 5.65063C28.9863 5.80181 29.077 5.89252 29.2282 5.92276C29.7724 6.0437 30.3167 6.19488 30.8912 6.31582C31.0423 6.34606 31.1028 6.43676 31.1028 6.58794C31.133 7.16242 31.133 7.7369 31.133 8.31138C31.133 8.46256 31.1935 8.52304 31.3145 8.61374C31.8587 8.85563 32.3727 9.12775 32.917 9.36964C33.0379 9.43011 33.0984 9.49058 33.0681 9.64176C32.9472 10.186 32.8867 10.7303 32.7658 11.2745C32.7053 11.4559 32.7658 11.6071 32.9472 11.728C33.431 12.0606 33.8845 12.4235 34.338 12.7863C34.459 12.877 34.3985 12.9375 34.3683 13.0282C34.1566 13.5422 33.945 14.0864 33.7031 14.6004C33.6426 14.7818 33.6124 14.8726 33.7636 15.0237C34.1566 15.447 34.5497 15.9006 34.9428 16.3541C35.0335 16.4448 35.0032 16.5053 34.9428 16.596C34.6102 17.0798 34.2776 17.5635 33.945 18.0171C33.7636 18.2287 33.8845 18.4101 33.9752 18.5613C34.2171 19.0149 34.4892 19.4986 34.7311 19.9522C34.7916 20.0731 34.7916 20.1638 34.6706 20.2545C34.2473 20.6476 33.824 21.0709 33.3705 21.464C33.2798 21.5547 33.2495 21.6454 33.2798 21.7663C33.4612 22.3408 33.6124 22.885 33.7938 23.4595C33.8543 23.6107 33.824 23.6712 33.6728 23.7619C33.1588 24.0642 32.6751 24.3666 32.1913 24.669C32.0099 24.7597 32.0401 24.9108 32.0401 25.062C32.0704 25.6063 32.1308 26.1505 32.1611 26.725C32.1611 26.9064 32.1308 26.9669 31.9494 27.0274C31.3749 27.2088 30.8307 27.4204 30.2864 27.6018C30.1655 27.6321 30.1353 27.7228 30.1353 27.8135C30.0748 28.4182 29.9841 29.0229 29.9236 29.6276C29.9236 29.7486 29.8631 29.7788 29.7422 29.809C29.1375 29.8695 28.563 29.9602 27.9583 30.0207C27.8071 30.0509 27.7466 30.1114 27.6862 30.2324C27.4745 30.8068 27.2931 31.3511 27.0814 31.9256C27.0512 32.0465 26.9907 32.0767 26.8396 32.0767C26.2651 32.0163 25.6604 31.986 25.0859 31.9256C24.9649 31.9256 24.8742 31.9558 24.7835 32.0767C24.4812 32.5907 24.1486 33.1048 23.8462 33.6188C23.7857 33.7397 23.7253 33.7699 23.5741 33.7397C22.9996 33.5583 22.4554 33.4071 21.8809 33.2257C21.7297 33.1652 21.639 33.1955 21.5181 33.3164C21.125 33.7397 20.7319 34.163 20.3389 34.5863C20.2179 34.7073 20.1574 34.7375 20.0063 34.6468C19.4923 34.3444 18.9782 34.0723 18.4642 33.8002C18.3433 33.7397 18.2526 33.7397 18.1619 33.8304C17.6781 34.163 17.1943 34.4956 16.7408 34.8282C16.5896 34.9189 16.4989 34.9189 16.378 34.798C15.9547 34.4351 15.5314 34.0723 15.1081 33.6792C14.9569 33.5583 14.8662 33.5583 14.715 33.6188C14.201 33.8304 13.6567 34.0723 13.1125 34.284C12.9916 34.3444 12.9311 34.3444 12.8404 34.2235C12.4775 33.7397 12.1147 33.2862 11.7519 32.8024C11.6309 32.6512 11.5402 32.6512 11.3891 32.6814C10.8448 32.8024 10.3006 32.8931 9.75632 33.014C9.5749 33.0443 9.4842 33.014 9.42373 32.8326C9.18184 32.2884 8.90972 31.7441 8.66783 31.1999C8.60736 31.079 8.51665 31.079 8.42594 31.079C7.85146 31.079 7.24674 31.0487 6.67226 31.0487C6.52108 31.0487 6.46062 30.9882 6.40014 30.8371C6.2792 30.2928 6.12802 29.7486 6.00708 29.1741C5.97684 28.9927 5.91637 28.9322 5.73495 28.902C5.16047 28.781 4.61623 28.6299 4.04175 28.5089C3.92081 28.4787 3.8301 28.4182 3.8301 28.267C3.8301 27.6925 3.79986 27.0878 3.79986 26.5133C3.79986 26.3319 3.73939 26.2715 3.58821 26.1807C3.0742 25.9389 2.5602 25.697 2.01595 25.4551C1.86477 25.3946 1.86477 25.3039 1.89501 25.183C2.01595 24.6085 2.10666 24.034 2.2276 23.4595C2.25784 23.3386 2.2276 23.2479 2.10666 23.1572C1.62288 22.7943 1.13911 22.4315 0.655339 22.0687C0.564631 21.978 0.534394 21.9175 0.594866 21.7966C0.836752 21.2523 1.0484 20.7081 1.29029 20.1638C1.35076 20.0126 1.32052 19.9219 1.22982 19.8312C0.836752 19.4079 0.473923 18.9544 0.0808578 18.5009C-0.0703213 18.3497 0.0203857 18.2287 0.111093 18.0776C0.443687 17.624 0.746044 17.1705 1.07864 16.6867C1.16935 16.5658 1.16935 16.4751 1.07864 16.3541C0.806516 15.8401 0.534395 15.3563 0.232037 14.8423C0.141329 14.6911 0.171564 14.6004 0.292508 14.4795C0.715809 14.1167 1.10887 13.7236 1.53218 13.3305C1.65312 13.2096 1.71359 13.1189 1.65312 12.9375C1.4717 12.3932 1.32053 11.849 1.13911 11.3047C1.07864 11.1536 1.10888 11.0628 1.26006 11.0024C1.77406 10.7 2.25784 10.3977 2.77185 10.0953C2.89279 10.0348 2.92302 9.94412 2.92302 9.79294C2.86255 9.18822 2.83232 8.61374 2.77185 8.00903C2.77185 7.85785 2.86255 7.82761 2.95326 7.76714C3.34633 7.6462 3.73939 7.49502 4.13246 7.37407C4.82788 7.13219 4.82788 7.13219 4.88835 6.40653C4.91859 5.98323 5.0093 5.55993 5.06977 5.13662C5.06977 5.04592 5.13024 5.01568 5.22095 4.98544C5.79543 4.92497 6.36991 4.83427 6.94439 4.7738C7.09557 4.74356 7.18627 4.71332 7.24675 4.56214C7.42816 4.04814 7.60958 3.53413 7.79099 3.02012C7.8817 2.8387 8.00264 2.71776 8.18405 2.77823Z" fill="#75AAE6"/>
<path d="M24.3905 63.3144C22.2438 58.0534 20.097 52.8528 17.9201 47.5918C15.7733 52.8528 13.6266 58.0534 11.4496 63.3144C11.2077 62.8609 10.9658 62.4678 10.7239 62.0747C10.1797 61.1072 9.60521 60.1396 9.06097 59.1721C8.78884 58.7186 8.51672 58.265 8.27484 57.8115C8.21436 57.7208 8.15389 57.6603 8.03295 57.7208C6.94446 57.9929 5.85597 58.265 4.76748 58.5371C3.83017 58.779 2.89286 59.0209 1.92531 59.2628C1.83461 59.293 1.7439 59.3535 1.68343 59.2628C1.62296 59.2023 1.71366 59.1116 1.7439 59.0511C2.46956 57.2672 3.22545 55.4531 3.95111 53.6692C4.67677 51.9457 5.40243 50.1921 6.09786 48.4686C6.67234 47.0173 7.30729 45.566 7.91201 44.1147C8.45625 42.8145 8.97026 41.5144 9.5145 40.2142C10.0587 38.9141 10.603 37.614 11.117 36.3138C11.1472 36.2231 11.1775 36.1626 11.1775 36.0719C11.1472 35.8603 11.2379 35.7998 11.4496 35.7998C15.7128 35.7998 19.9761 35.7998 24.2393 35.7998C24.4208 35.7998 24.5719 35.83 24.5115 36.0417C24.4812 36.1929 24.6626 36.1929 24.6929 36.3138C24.8138 36.6766 24.9952 37.0092 25.1162 37.3721C25.6907 38.7629 26.2651 40.1538 26.8396 41.5748C27.2932 42.6331 27.7165 43.7216 28.17 44.7798C28.7747 46.2614 29.4097 47.7429 30.0144 49.2245C30.4377 50.2828 30.861 51.341 31.3145 52.3993C31.7681 53.4878 32.2216 54.546 32.6449 55.6345C33.0682 56.6323 33.4613 57.6603 33.8846 58.6581C33.945 58.8395 34.0357 58.9907 34.0962 59.1721C34.1265 59.2326 34.1567 59.293 34.0962 59.3233C34.066 59.3837 33.9753 59.3535 33.9148 59.3233C33.038 59.1116 32.1611 58.8697 31.2843 58.6581C30.1958 58.386 29.1073 58.1138 28.0188 57.8417C27.6258 57.751 27.6258 57.751 27.4443 58.0836C26.628 59.4744 25.8116 60.8955 25.0255 62.2864C24.8138 62.5283 24.6022 62.8911 24.3905 63.3144Z" fill="#75ABE6"/>
</svg>
