<svg width="55" height="54" viewBox="0 0 55 54" fill="none" xmlns="http://www.w3.org/2000/svg">
<path d="M33.4032 44.7999C39.1365 44.7999 44.8365 44.7999 50.5699 44.7999C51.6032 44.7999 52.5032 45.1333 53.2365 45.8666C54.5365 47.1666 54.6032 49.1666 53.4699 50.5666C52.7032 51.4666 51.7032 51.8333 50.5699 51.8666C50.2365 51.8666 49.9365 51.8666 49.6032 51.8666C38.5365 51.8666 27.4699 51.8666 16.4032 51.8666C15.4032 51.8666 14.5032 51.6333 13.7365 50.9333C12.2699 49.6666 12.1699 47.2999 13.5365 45.8999C14.3032 45.1333 15.2032 44.7666 16.2699 44.7666C21.9365 44.7666 27.6699 44.7999 33.4032 44.7999ZM33.3699 47.0666C27.7032 47.0666 22.0699 47.0666 16.4032 47.0666C16.2699 47.0666 16.1032 47.0666 15.9699 47.0666C15.0699 47.1666 14.5365 48.0999 15.0032 48.8999C15.2699 49.3999 15.7365 49.5333 16.2699 49.5333C27.6699 49.5333 39.1032 49.5333 50.5032 49.5333C50.6699 49.5333 50.8699 49.5333 51.0365 49.4666C51.5699 49.2999 51.9699 48.8333 51.9699 48.2999C51.9699 47.7666 51.5699 47.2666 51.0365 47.1333C50.8365 47.0666 50.6032 47.0666 50.3699 47.0666C44.7032 47.0666 39.0365 47.0666 33.3699 47.0666Z" fill="#336680"/>
<path d="M33.3698 8.83314C27.5698 8.83314 21.8031 8.83314 16.0031 8.83314C14.3698 8.83314 12.9365 7.66647 12.6031 6.06647C12.1031 3.46647 14.1365 1.7998 16.0698 1.7998C26.2031 1.7998 36.3031 1.7998 46.4365 1.7998C47.8365 1.7998 49.2365 1.7998 50.6698 1.7998C52.7365 1.7998 54.3698 3.49981 54.2365 5.56647C54.1031 7.43314 52.5698 8.83314 50.8031 8.83314C47.6698 8.83314 44.5365 8.83314 41.4031 8.83314C38.7365 8.83314 36.0365 8.83314 33.3698 8.83314ZM33.3698 4.09981C27.7031 4.09981 22.0365 4.09981 16.3698 4.09981C16.2365 4.09981 16.1365 4.09981 16.0031 4.09981C15.4031 4.13314 14.9031 4.59981 14.8365 5.19981C14.7698 5.79981 15.1698 6.33314 15.7365 6.4998C16.0031 6.56647 16.3031 6.59981 16.5698 6.59981C22.8698 6.59981 29.2031 6.59981 35.5031 6.59981C40.4365 6.59981 45.3365 6.59981 50.2698 6.59981C50.5365 6.59981 50.8031 6.5998 51.0698 6.4998C51.8698 6.23314 52.2031 5.36647 51.7365 4.66647C51.4698 4.23314 51.0365 4.09981 50.5365 4.09981C44.8365 4.09981 39.1031 4.09981 33.3698 4.09981Z" fill="#336680"/>
<path d="M36.9365 39.8999C32.1698 39.8999 27.4365 39.8999 22.6698 39.8999C21.3698 39.8999 20.3031 39.1665 19.8698 37.9665C19.3031 36.3999 20.2365 34.5999 21.8365 34.1665C22.1698 34.0665 22.4698 34.0332 22.8365 34.0332C32.2698 34.0332 41.7365 34.0332 51.1698 34.0332C52.1031 34.0332 52.9031 34.3332 53.5365 35.0665C55.1698 36.9999 53.8365 39.3665 52.1031 39.7665C51.7698 39.8332 51.4698 39.8665 51.1365 39.8665C46.3698 39.8999 41.6698 39.8999 36.9365 39.8999ZM37.0031 35.7665C32.3031 35.7665 27.6365 35.7665 22.9365 35.7665C22.8031 35.7665 22.7031 35.7665 22.5698 35.7665C21.9365 35.7999 21.4365 36.2999 21.4031 36.9665C21.3698 37.7332 21.9698 38.2665 22.8365 38.2665C32.2698 38.2665 41.7031 38.2665 51.1365 38.2665C51.3365 38.2665 51.5698 38.2332 51.7698 38.1665C52.5031 37.8999 52.8031 36.9999 52.4031 36.3665C52.1365 35.9665 51.7365 35.7999 51.2698 35.7999C46.4698 35.7665 41.7365 35.7665 37.0031 35.7665Z" fill="#336680"/>
<path d="M36.9697 29.733C32.1697 29.733 27.403 29.733 22.603 29.733C21.2697 29.733 20.0697 28.7997 19.7697 27.533C19.3364 25.733 20.5697 23.8997 22.6697 23.8664C25.3364 23.833 28.0364 23.8664 30.703 23.8664C37.5364 23.8664 44.3364 23.8664 51.1697 23.8664C52.0697 23.8664 52.8697 24.1664 53.503 24.8664C55.0697 26.6997 54.003 28.9664 52.3364 29.533C52.003 29.6664 51.6364 29.6997 51.2697 29.6997C46.4697 29.733 41.7364 29.733 36.9697 29.733ZM36.9697 28.0997C41.6364 28.0997 46.303 28.0997 50.9697 28.0997C51.2364 28.0997 51.503 28.0997 51.7364 27.9997C52.5697 27.6997 52.803 26.6664 52.203 26.033C51.8697 25.6997 51.4697 25.5664 51.003 25.5664C49.303 25.5664 47.603 25.5664 45.903 25.5664C38.303 25.5664 30.703 25.5664 23.103 25.5664C22.803 25.5664 22.5364 25.5664 22.2697 25.6664C21.3364 25.9664 21.103 27.0997 21.803 27.7664C22.103 28.0664 22.503 28.0997 22.903 28.0997C27.603 28.0997 32.2697 28.0997 36.9697 28.0997Z" fill="#336680"/>
<path d="M36.9698 19.5998C32.2031 19.5998 27.4698 19.5998 22.7031 19.5998C21.0698 19.5998 19.8698 18.5331 19.7031 16.9331C19.5364 15.3331 20.7698 13.8665 22.4031 13.7998C22.4698 13.7998 22.5364 13.7998 22.6364 13.7998C32.1698 13.7998 41.7031 13.7998 51.2364 13.7998C52.6364 13.7998 53.7031 14.5998 54.1031 15.9331C54.6364 17.6665 53.2364 19.5998 51.4031 19.5998C49.9364 19.5998 48.4698 19.5998 47.0031 19.5998C43.6698 19.5998 40.3364 19.5998 36.9698 19.5998ZM36.9364 17.9331C41.6031 17.9331 46.2698 17.9331 50.9364 17.9331C51.1364 17.9331 51.3698 17.9331 51.5698 17.8998C52.1698 17.7331 52.5697 17.1998 52.5364 16.6331C52.5031 16.0331 52.0031 15.5331 51.3697 15.4665C51.2031 15.4665 51.0364 15.4665 50.8697 15.4665C41.5697 15.4665 32.2698 15.4665 22.9364 15.4665C22.8364 15.4665 22.7031 15.4665 22.6031 15.4665C21.9031 15.4998 21.4031 15.9665 21.3698 16.6331C21.3364 17.2998 21.8031 17.8665 22.5031 17.9331C22.6698 17.9665 22.8031 17.9331 22.9698 17.9331C27.6364 17.9331 32.3031 17.9331 36.9364 17.9331Z" fill="#336680"/>
<path d="M0.00314216 5.33333C-0.0635245 2.5 2.30314 0 5.26981 0C8.20314 0 10.6031 2.36667 10.6031 5.33333C10.6031 8.26667 8.20314 10.6667 5.23647 10.6333C2.20314 10.6333 -0.0635245 8.06667 0.00314216 5.33333ZM5.26981 8.36667C6.96981 8.36667 8.36981 7 8.33647 5.33333C8.30314 3.36667 6.70314 2.3 5.30314 2.3C3.60314 2.3 2.23647 3.66667 2.23647 5.33333C2.26981 7 3.60314 8.36667 5.26981 8.36667Z" fill="#336680"/>
<path d="M0.00305542 48.3003C-0.0969446 45.6003 2.26972 42.967 5.33639 43.0003C8.26972 43.0336 10.6031 45.367 10.6031 48.367C10.6031 51.267 8.13639 53.7003 5.13639 53.6336C2.53639 53.567 -0.0969446 51.3003 0.00305542 48.3003ZM5.30305 51.367C6.93639 51.367 8.36972 49.967 8.33639 48.3336C8.30306 46.567 6.96972 45.3336 5.30305 45.267C3.63639 45.2336 2.23639 46.6336 2.23639 48.3003C2.26972 49.967 3.63639 51.367 5.30305 51.367Z" fill="#336680"/>
<path d="M18.9699 16.6997C19.0365 18.5331 17.5032 20.2331 15.4365 20.2331C13.4032 20.2331 11.9365 18.6331 11.9365 16.6997C11.9365 14.7997 13.5699 13.1664 15.4699 13.1997C17.5365 13.1664 19.0365 14.9331 18.9699 16.6997ZM13.6365 16.6664C13.6365 17.7331 14.4032 18.4997 15.4699 18.4997C16.4699 18.4997 17.3032 17.6997 17.3032 16.6664C17.3032 15.6664 16.5032 14.8331 15.4699 14.8331C14.4365 14.8664 13.6365 15.6331 13.6365 16.6664Z" fill="#336680"/>
<path d="M18.9699 26.8331C19.0365 28.4998 17.7032 30.3665 15.4699 30.3665C13.4032 30.3665 11.9699 28.7331 11.9365 26.8331C11.9365 24.9331 13.5365 23.2998 15.4699 23.2998C17.6365 23.3331 19.0365 25.1665 18.9699 26.8331ZM13.6365 26.8331C13.5699 27.7665 14.3699 28.6665 15.4699 28.6665C16.4365 28.6665 17.3032 27.8331 17.3032 26.8331C17.3032 25.8331 16.4365 24.9331 15.4365 24.9665C14.3365 25.0331 13.6032 25.8998 13.6365 26.8331Z" fill="#336680"/>
<path d="M18.9699 36.9669C18.9699 38.9669 17.4365 40.4669 15.4365 40.4669C13.5032 40.4669 11.9365 38.9003 11.9365 36.9669C11.9365 35.0336 13.5365 33.4336 15.4699 33.4336C17.4032 33.4669 18.9699 35.0336 18.9699 36.9669ZM13.6365 37.0003C13.5699 37.9336 14.4365 38.8336 15.4365 38.8336C16.4365 38.8336 17.3032 38.0003 17.3032 37.0003C17.3032 36.0003 16.4365 35.1336 15.4699 35.1336C14.4365 35.1336 13.6365 35.9669 13.6365 37.0003Z" fill="#336680"/>
</svg>
